<svg width="310" height="49" viewBox="0 0 310 49" fill="none" xmlns="http://www.w3.org/2000/svg">
<path d="M26.0397 0.309998C26.3297 0.259998 26.6197 0.349998 26.8997 0.559998C27.1897 0.779998 27.4297 0.980013 27.6197 1.17001C28.2897 1.94001 28.7697 2.53002 29.0597 2.93002C29.3497 3.34002 29.6397 3.81002 29.9197 4.33002C30.1597 5.00002 30.2097 5.59 30.0597 6.09C29.9197 6.59 29.4597 7.01001 28.6897 7.35001C28.4497 7.59001 27.8597 7.69001 26.9297 7.64001C25.9897 7.59001 25.1897 7.62002 24.5197 7.71002C23.4197 8.00002 22.2597 8.35 21.0597 8.75C19.8597 9.16 18.8497 9.79 18.0397 10.66C17.7997 11 17.4997 11.27 17.1397 11.49C16.7797 11.71 16.4597 11.98 16.1697 12.32C15.2097 13.23 14.3797 14.14 13.6897 15.06C12.9897 15.97 12.3097 16.98 11.6397 18.08C11.1097 18.75 10.6097 19.74 10.1297 21.03C9.64968 22.33 9.33968 23.74 9.18968 25.28C9.08968 26.43 8.98967 27.8 8.86967 29.38C8.74967 30.96 8.73966 32.33 8.82966 33.48C8.87966 34.54 9.08966 35.53 9.47966 36.47C9.85966 37.41 10.3397 38.26 10.9197 39.03C11.4997 39.8 12.1397 40.42 12.8597 40.9C13.5797 41.38 14.3197 41.67 15.0897 41.76C16.0497 41.86 17.0897 41.86 18.2197 41.76C19.3497 41.66 20.4997 41.51 21.6797 41.29C22.8597 41.07 24.0097 40.79 25.1397 40.43C26.2697 40.07 27.3097 39.7 28.2697 39.31C28.9397 38.93 29.6397 38.66 30.3597 38.52C31.0797 38.38 31.8497 38.35 32.6597 38.45C33.6697 38.5 34.4097 38.76 34.8897 39.24C35.3697 39.72 35.8497 40.51 36.3297 41.62L31.6497 44.28C31.4597 44.52 31.2397 44.62 30.9997 44.57C28.6997 45.24 26.4697 45.84 24.3397 46.37C22.1997 46.9 19.8897 47.14 17.3897 47.09C15.8497 47.04 14.2497 46.93 12.5697 46.77C10.8897 46.6 9.25966 46.14 7.66966 45.37C5.98966 44.51 4.54968 43.41 3.34968 42.09C2.14968 40.77 1.28966 39.1 0.759655 37.09C0.619655 36.37 0.49967 35.57 0.39967 34.68C0.29967 33.79 0.21967 32.87 0.14967 31.91C0.0796701 30.95 0.0296554 30.01 0.00965543 29.1C-0.0103446 28.19 -0.000336029 27.37 0.049664 26.65C0.149664 25.4 0.239673 24.15 0.339673 22.91C0.439672 21.66 0.599672 20.39 0.839673 19.09C0.889673 18.08 1.09967 17 1.48967 15.85C1.86967 14.75 2.44968 13.54 3.21968 12.21C3.98968 10.89 4.70968 9.75001 5.37968 8.79001C6.47968 7.35001 7.90968 6.01001 9.65968 4.76001C11.4097 3.51001 13.0997 2.48 14.7397 1.66C15.2197 1.52 15.8097 1.36 16.4997 1.19C17.1997 1.02 17.9197 0.870001 18.6597 0.720001C19.3997 0.580001 20.1197 0.440007 20.8197 0.320007C21.5197 0.200007 22.1297 0.09 22.6597 0L26.0397 0.290009V0.309998Z" fill="#010000"/>
<path d="M37.9197 33.57C37.7797 32.66 37.8497 31.78 38.1397 30.94C38.4297 30.1 38.8098 29.2 39.2898 28.24C39.9098 26.9 40.5697 25.58 41.2697 24.28C41.9697 22.98 42.6997 21.64 43.4697 20.25C44.6197 18.14 46.5697 16.48 49.2997 15.28C50.4997 14.7 51.6397 14.5 52.7197 14.67C53.7997 14.84 54.9198 15.11 56.0698 15.5C58.3698 16.12 59.9697 17.18 60.8597 18.67C61.7497 20.16 62.3097 21.84 62.5497 23.71C62.6897 25.39 62.6297 27.03 62.3697 28.64C62.1097 30.25 61.7997 31.89 61.4697 33.57C61.3298 34.58 61.0697 35.56 60.7097 36.52C60.3497 37.48 59.9297 38.46 59.4497 39.47C59.3497 39.76 59.2197 40.01 59.0497 40.23C58.8797 40.45 58.6798 40.65 58.4398 40.84C58.1998 41.08 57.9597 41.25 57.7197 41.34C57.4797 41.44 57.3398 41.6 57.2898 41.84C56.8598 42.75 56.1697 43.39 55.2397 43.75C54.2997 44.11 53.3298 44.41 52.3198 44.65C51.2198 44.79 50.1797 44.84 49.2197 44.79C48.2597 44.74 47.3198 44.43 46.4098 43.85C46.3098 43.75 46.1697 43.68 45.9797 43.63C45.7897 43.58 45.6197 43.56 45.4797 43.56C44.0397 43.03 42.8398 42.48 41.8798 41.9C40.9198 41.32 40.1497 40.65 39.5797 39.88C38.9997 39.11 38.5798 38.21 38.3198 37.18C38.0598 36.15 37.9197 34.94 37.9197 33.54V33.57ZM56.4197 21.26C55.8397 21.12 55.3597 21.02 54.9797 20.97C54.5997 20.92 54.2697 20.93 54.0097 21.01C53.7497 21.08 53.4797 21.22 53.2197 21.41C52.9597 21.6 52.6598 21.89 52.3198 22.27L50.0897 25.58C49.2297 27.16 48.5897 28.59 48.1797 29.86C47.7697 31.13 47.3497 32.61 46.9197 34.29C46.7797 35.11 46.8197 35.86 47.0597 36.56C47.2997 37.26 47.6597 37.87 48.1397 38.4C48.6197 38.93 49.1697 39.35 49.7997 39.66C50.4197 39.97 51.0198 40.13 51.5998 40.13C53.0898 40.13 54.2698 39.73 55.1598 38.94C56.0498 38.15 56.6597 37.06 56.9997 35.66L57.7197 32.2C57.8597 31.05 58.0397 29.85 58.2597 28.6C58.4797 27.35 58.4197 26.1 58.0797 24.86C57.9397 24.28 57.7598 23.64 57.5398 22.92C57.3198 22.2 56.9497 21.65 56.4197 21.26Z" fill="#010000"/>
<path d="M79.0997 17.7302C78.1397 18.0702 77.4197 18.5002 76.9397 19.0302C76.4597 19.5602 75.8797 20.2302 75.2097 21.0502C74.5397 21.9102 74.0397 23.0202 73.7297 24.3602C73.4197 25.7002 73.2097 27.1902 73.1197 28.8202V32.1702C73.1197 33.1502 73.1297 34.1102 73.1597 35.0502C73.1797 35.9902 73.2097 36.9502 73.2297 37.9302C73.2497 38.9102 73.2697 40.0302 73.2697 41.2802C73.2697 41.8102 73.3197 42.3502 73.4097 42.9002C73.5097 43.4502 73.5997 44.1402 73.6997 44.9502C73.4597 45.0902 73.1397 45.2002 72.7297 45.2702C72.3197 45.3402 71.8997 45.3902 71.4697 45.4102C71.0397 45.4302 70.6197 45.4201 70.2097 45.3701C69.7997 45.3201 69.4997 45.2502 69.3097 45.1502C68.7797 44.8602 68.2397 44.4802 67.6897 44.0002C67.1397 43.5202 66.6897 43.0202 66.3597 42.4902C66.1697 42.2002 66.0497 41.8502 65.9997 41.4502C65.9497 41.0402 65.9797 40.6502 66.0697 40.2602C66.6897 37.3802 66.9297 34.3301 66.7897 31.1201C66.6897 28.6701 66.5797 26.3802 66.4697 24.2402C66.3497 22.1002 66.2897 19.7602 66.2897 17.2202C66.9097 16.5502 67.6097 16.2102 68.3797 16.2102C69.1497 16.2102 69.6997 16.4002 70.0397 16.7902C70.1397 16.8902 70.3697 17.1902 70.7597 17.6902C71.1397 18.1902 71.3797 18.5402 71.4797 18.7302C72.8197 17.2902 74.2997 16.0801 75.9097 15.0901C77.5197 14.1101 79.1597 13.1802 80.8397 12.3202C81.6997 11.8902 82.5697 11.6702 83.4297 11.6702C84.2897 11.6702 85.0597 12.0102 85.7297 12.6802C86.5497 13.5002 87.1897 14.3702 87.6697 15.3102C88.1497 16.2502 88.5097 17.2701 88.7497 18.3701L91.1297 28.8802C91.6597 31.0402 92.1997 33.0202 92.7497 34.8202C93.2997 36.6202 93.8697 38.5802 94.4397 40.6902C94.5297 41.4102 94.5596 42.2302 94.5096 43.1402C94.4597 44.0502 94.3697 44.9402 94.2197 45.8002C94.1697 46.0402 94.0297 46.3502 93.7897 46.7402C93.5497 47.1202 93.3097 47.3602 93.0697 47.4602C92.8297 47.6002 92.4797 47.7102 92.0297 47.7802C91.5697 47.8502 91.0697 47.8802 90.5197 47.8502C89.9697 47.8202 89.4397 47.7702 88.9397 47.6702C88.4397 47.5702 88.0197 47.4102 87.6797 47.1702C85.5197 45.8302 84.2697 43.9602 83.9397 41.5502C83.5597 39.7302 83.2297 38.0001 82.9697 36.3701C82.7097 34.7401 82.4097 33.0102 82.0697 31.1902C81.6897 29.4202 81.3397 27.8202 81.0297 26.4002C80.7197 24.9802 80.4197 23.4402 80.1297 21.7602L79.1197 17.7302H79.0997Z" fill="#010000"/>
<path d="M128.49 38.6099C128.11 39.1399 127.77 39.6099 127.48 40.0099C127.19 40.4199 126.9 40.7999 126.62 41.1599C126.33 41.5199 126.02 41.8699 125.68 42.1999C125.34 42.5399 124.96 42.9199 124.53 43.3499C123.95 43.8799 123.28 44.3699 122.51 44.8299C121.74 45.2899 120.93 45.6899 120.06 46.0499C119.2 46.41 118.33 46.7099 117.47 46.9499C116.61 47.1899 115.81 47.3599 115.09 47.4499C112.59 47.8299 110.49 47.4399 108.79 46.2599C107.09 45.0899 105.97 43.06 105.44 40.18C105.25 39.22 105.19 38.2099 105.26 37.1599C105.33 36.0999 105.37 35.0699 105.37 34.0599C105.37 33.8199 105.38 33.2999 105.41 32.5099C105.43 31.7199 105.46 30.8299 105.48 29.8499C105.5 28.8699 105.54 27.8699 105.59 26.8599C105.64 25.8499 105.69 25.0099 105.73 24.3399C104.91 24.2399 104.1 24.2999 103.28 24.5199C102.46 24.7399 101.55 25.0399 100.54 25.4199C100.16 25.5599 99.6996 25.5999 99.1696 25.5299C98.6396 25.4599 98.1396 25.2399 97.6596 24.8799C97.1796 24.5199 96.8096 23.9999 96.5396 23.3299C96.2796 22.6599 96.2196 21.7699 96.3596 20.6699C97.4196 20.4299 98.3596 20.1999 99.1996 19.99C100.04 19.7699 100.83 19.5599 101.58 19.3399C102.33 19.1199 103.07 18.8799 103.81 18.6199C104.55 18.3599 105.36 18.0599 106.22 17.7199C106.32 15.6999 106.42 13.8399 106.54 12.1399C106.66 10.4399 106.82 8.59994 107.01 6.62994C107.06 6.29994 107.15 5.94993 107.3 5.58993C107.44 5.22993 107.63 4.92993 107.88 4.68993C108.17 4.44993 108.54 4.26995 109 4.14995C109.46 4.02995 109.95 3.94995 110.48 3.89995C111.01 3.84995 111.52 3.85993 112.03 3.93993C112.53 4.00993 112.95 4.11994 113.29 4.25994C114.25 4.68994 114.91 5.17995 115.27 5.73995C115.63 6.28995 115.76 6.89995 115.67 7.57995C115.57 8.53995 115.46 9.74993 115.35 11.2199C115.23 12.6799 115.17 14.2599 115.17 15.9399C115.65 15.8899 116.08 15.8199 116.47 15.7199C116.85 15.6199 117.23 15.5399 117.59 15.4699C117.95 15.3999 118.33 15.3299 118.74 15.2499C119.15 15.1799 119.62 15.0899 120.14 14.9999C120.86 14.8999 121.42 14.8299 121.83 14.7799C122.24 14.7299 122.83 14.6799 123.59 14.6399C124.5 14.5399 125.19 14.6799 125.64 15.0399C126.1 15.3999 126.54 16.0599 126.97 17.0199C127.21 17.4999 127.3 17.9399 127.26 18.3499C127.21 18.7599 127.21 19.0799 127.26 19.3199C125.92 19.6599 124.7 19.9599 123.62 20.2199C122.54 20.4799 121.51 20.7199 120.52 20.9399C119.54 21.1599 118.56 21.3699 117.6 21.5899C116.64 21.8099 115.61 22.0299 114.5 22.2699C114.26 23.0899 114.03 24.2499 113.82 25.7599C113.6 27.2699 113.41 28.8599 113.24 30.5099C113.07 32.1699 112.94 33.7399 112.84 35.2299C112.74 36.7199 112.74 37.8499 112.84 38.6099C112.98 40.3399 113.5 41.3999 114.39 41.7799C115.28 42.1599 116.54 42.0899 118.17 41.5599C119.61 41.0799 120.94 40.44 122.17 39.65C123.39 38.86 124.32 38.06 124.94 37.24C125.76 36.18 126.46 35.3799 127.06 34.8299C127.66 34.2799 128.37 33.74 129.18 33.21C130.28 33.59 130.78 34.1799 130.66 34.9699C130.54 35.7599 129.81 36.9699 128.46 38.6099H128.49Z" fill="#010000"/>
<path d="M151.31 27.59C151.12 28.17 150.93 28.81 150.73 29.53C150.54 30.25 150.35 30.96 150.15 31.65C149.96 32.35 149.77 33.01 149.57 33.63C149.38 34.25 149.19 34.78 148.99 35.21C148.56 36.07 148.16 36.9 147.8 37.69C147.44 38.48 147.03 39.24 146.58 39.96C146.13 40.68 145.6 41.36 145 42.01C144.4 42.66 143.64 43.3 142.73 43.92C142.06 44.45 141.36 44.65 140.64 44.53C139.92 44.41 139.27 44.23 138.7 43.99C137.26 43.37 136.16 42.55 135.39 41.54C134.62 40.53 134.05 39.26 133.66 37.72C133.23 35.27 133.28 32.94 133.8 30.74C134.33 28.53 135.12 26.35 136.18 24.19C136.85 22.89 137.62 21.63 138.48 20.41C139.34 19.19 140.42 18.14 141.72 17.28C141.96 17.04 142.37 16.75 142.94 16.42C144.96 15.37 146.97 15.32 148.99 16.28L150.07 15.34C150.55 15.05 151.04 14.75 151.55 14.44C152.05 14.13 152.57 13.97 153.1 13.97C153.91 13.97 154.62 14.02 155.22 14.11C155.82 14.21 156.55 14.35 157.42 14.54L159.36 24.91L160.51 33.26C160.8 34.8 161.16 36.42 161.59 38.12C162.02 39.82 162.5 41.37 163.03 42.76C163.13 42.95 163.17 43.24 163.17 43.62C163.17 44 163.05 44.32 162.81 44.56C162.57 44.8 162.13 45.06 161.48 45.35C160.83 45.64 160.34 45.78 160 45.78C159.04 45.78 158.34 45.64 157.91 45.35C156.52 44.97 155.35 44.28 154.42 43.3C153.48 42.32 152.92 41.1 152.73 39.66C152.49 37.93 152.26 36.29 152.05 34.73C151.84 33.17 151.65 31.74 151.51 30.45C151.46 30.21 151.43 29.8 151.4 29.23C151.38 28.65 151.34 28.1 151.29 27.57L151.31 27.59ZM147.28 20.18C145.7 19.85 144.47 20.35 143.61 21.69C143.37 22.22 143.06 22.75 142.67 23.27C142.29 23.8 141.9 24.35 141.52 24.93C140.51 26.99 139.68 29.01 139.04 30.98C138.39 32.95 138.12 35.13 138.21 37.53C138.26 37.67 138.32 37.87 138.39 38.11C138.46 38.35 138.59 38.61 138.79 38.9C139.51 38.61 140.33 37.65 141.24 36.02C142.15 34.39 143.04 32.54 143.9 30.48C144.76 28.42 145.51 26.41 146.13 24.47C146.75 22.53 147.14 21.1 147.28 20.19V20.18Z" fill="#010000"/>
<path d="M190.7 18.5899C190.46 19.2599 190.11 19.8599 189.66 20.3899C189.2 20.9199 188.81 21.2299 188.47 21.3299C187.94 21.4299 187.35 21.5299 186.71 21.6499C186.06 21.7699 185.42 21.8799 184.8 21.9699L182.86 22.1899C181.32 22.3299 179.94 22.5999 178.72 22.9799C177.5 23.3599 176.48 24.0899 175.66 25.1399C175.13 25.8099 174.7 26.4099 174.36 26.9399C174.02 27.4699 173.66 28.1199 173.28 28.8799C173.09 29.2599 172.94 29.7399 172.85 30.3199C172.75 30.8999 172.73 31.4799 172.78 32.0799C172.83 32.6799 172.91 33.2399 173.03 33.7699C173.15 34.2999 173.33 34.7099 173.57 34.9899C174.24 35.8499 175.3 36.8199 176.74 37.8699C178.18 38.9299 179.95 39.8599 182.07 40.6799C183.22 41.0599 184.45 41.2099 185.74 41.1099C187.04 41.0099 188.24 40.6299 189.34 39.9599C190.4 40.3399 191.14 40.8999 191.57 41.6199C191.95 42.3899 191.87 43.1399 191.32 43.8899C190.77 44.6399 190.08 45.1299 189.27 45.3699C188.45 45.6099 187.62 45.7999 186.79 45.9499C185.95 46.0899 185.1 46.2399 184.23 46.3799C182.69 46.6199 181.23 46.4899 179.84 45.9799C178.45 45.4799 177.1 44.8399 175.81 44.0699C174.99 43.6399 174.19 43.1599 173.4 42.6299C172.61 42.0999 171.83 41.5499 171.06 40.9699C170.48 40.5899 170 40.1499 169.62 39.6699C169.28 39.2399 168.97 38.7799 168.68 38.2999C168.39 37.8199 168.1 37.3399 167.82 36.8599C167.72 35.8499 167.52 34.5999 167.21 33.1199C166.9 31.6299 166.69 30.2599 166.6 29.0199C166.55 28.5899 166.55 27.9599 166.6 27.1499C166.65 26.3399 166.79 25.7299 167.03 25.3499C167.13 25.1099 167.21 24.8799 167.28 24.6699C167.35 24.4599 167.44 24.2699 167.53 24.1299C168.63 22.5899 169.68 21.3199 170.66 20.3099C171.64 19.2999 172.69 18.3199 173.79 17.3599C175.18 16.1599 176.9 15.1899 178.94 14.4399C180.98 13.6999 183.22 13.3699 185.67 13.4699C186.1 13.4699 186.63 13.5899 187.25 13.8299C187.87 14.0699 188.45 14.4099 188.98 14.8399C189.51 15.2699 189.94 15.8099 190.28 16.4599C190.61 17.1099 190.76 17.8199 190.71 18.5799L190.7 18.5899Z" fill="#010000"/>
<path d="M225.26 38.6099C224.88 39.1399 224.54 39.6099 224.25 40.0099C223.96 40.4199 223.67 40.7999 223.39 41.1599C223.1 41.5199 222.79 41.8699 222.45 42.1999L221.3 43.3499C220.72 43.8799 220.05 44.3699 219.28 44.8299C218.51 45.2899 217.7 45.6899 216.83 46.0499C215.97 46.41 215.1 46.7099 214.24 46.9499C213.37 47.1899 212.58 47.3599 211.86 47.4499C209.36 47.8299 207.26 47.4399 205.56 46.2599C203.86 45.0899 202.74 43.06 202.21 40.18C202.02 39.22 201.96 38.2099 202.03 37.1599C202.1 36.0999 202.14 35.0699 202.14 34.0599C202.14 33.8199 202.15 33.2999 202.18 32.5099C202.2 31.7199 202.23 30.8299 202.25 29.8499C202.27 28.8699 202.31 27.8699 202.36 26.8599C202.41 25.8499 202.46 25.0099 202.5 24.3399C201.68 24.2399 200.87 24.2999 200.05 24.5199C199.23 24.7399 198.32 25.0399 197.31 25.4199C196.93 25.5599 196.47 25.5999 195.94 25.5299C195.41 25.4599 194.91 25.2399 194.43 24.8799C193.95 24.5199 193.58 23.9999 193.31 23.3299C193.04 22.6599 192.99 21.7699 193.13 20.6699C194.19 20.4299 195.13 20.1999 195.97 19.99C196.81 19.7699 197.6 19.5599 198.35 19.3399C199.1 19.1199 199.84 18.8799 200.58 18.6199C201.32 18.3599 202.13 18.0599 202.99 17.7199C203.09 15.6999 203.19 13.8399 203.31 12.1399C203.43 10.4399 203.59 8.59994 203.78 6.62994C203.83 6.29994 203.92 5.94993 204.07 5.58993C204.22 5.22993 204.4 4.92993 204.65 4.68993C204.94 4.44993 205.31 4.26995 205.77 4.14995C206.23 4.02995 206.72 3.94995 207.25 3.89995C207.78 3.84995 208.29 3.85993 208.8 3.93993C209.3 4.00993 209.72 4.11994 210.06 4.25994C211.02 4.68994 211.68 5.17995 212.04 5.73995C212.4 6.28995 212.53 6.89995 212.44 7.57995C212.34 8.53995 212.23 9.74993 212.12 11.2199C212 12.6799 211.94 14.2599 211.94 15.9399C212.42 15.8899 212.85 15.8199 213.24 15.7199C213.62 15.6199 214 15.5399 214.36 15.4699C214.72 15.3999 215.1 15.3299 215.51 15.2499C215.92 15.1799 216.39 15.0899 216.91 14.9999C217.63 14.8999 218.19 14.8299 218.6 14.7799C219.01 14.7299 219.6 14.6799 220.36 14.6399C221.27 14.5399 221.96 14.6799 222.41 15.0399C222.87 15.3999 223.31 16.0599 223.74 17.0199C223.98 17.4999 224.07 17.9399 224.03 18.3499C223.98 18.7599 223.98 19.0799 224.03 19.3199C222.69 19.6599 221.47 19.9599 220.39 20.2199C219.31 20.4799 218.28 20.7199 217.29 20.9399C216.31 21.1599 215.33 21.3699 214.37 21.5899C213.41 21.8099 212.38 22.0299 211.27 22.2699C211.03 23.0899 210.8 24.2499 210.59 25.7599C210.37 27.2699 210.18 28.8599 210.01 30.5099C209.84 32.1599 209.71 33.7399 209.61 35.2299C209.51 36.7199 209.51 37.8499 209.61 38.6099C209.75 40.3399 210.27 41.3999 211.16 41.7799C212.05 42.1599 213.31 42.0899 214.94 41.5599C216.38 41.0799 217.71 40.44 218.94 39.65C220.16 38.86 221.09 38.06 221.71 37.24C222.53 36.18 223.23 35.3799 223.83 34.8299C224.43 34.2799 225.14 33.74 225.95 33.21C227.05 33.59 227.54 34.1799 227.43 34.9699C227.32 35.7599 226.58 36.9699 225.23 38.6099H225.26Z" fill="#010000"/>
<path d="M249.02 18.7401C250.03 18.9801 250.83 19.2001 251.43 19.3901C252.03 19.5801 252.5 19.8501 252.83 20.1801C253.16 20.5201 253.39 20.9601 253.51 21.5101C253.63 22.0601 253.69 22.8001 253.69 23.7101C253.74 26.5401 254.05 29.5301 254.63 32.6701C255.21 35.8101 256 38.7501 257.01 41.4901C257.97 41.2501 259 40.7701 260.11 40.0501C261.21 39.3301 262.03 38.6301 262.56 37.9601C264.05 35.7001 265.31 33.3001 266.34 30.7601C267.37 28.2201 268.01 25.7701 268.25 23.4201C268.25 23.2301 268.24 23.0001 268.21 22.7401C268.18 22.4801 268.15 22.2301 268.1 21.9801L267.67 16.1501C267.86 15.6701 268.32 15.2101 269.04 14.7801C269.76 14.3501 270.56 14.0201 271.45 13.8101C272.34 13.5901 273.19 13.5201 274.01 13.5901C274.83 13.6601 275.4 13.9601 275.74 14.4901C276.17 15.3501 276.46 16.2401 276.61 17.1501C276.71 18.4001 276.8 19.6101 276.9 20.7901C277 21.9701 277.07 23.1801 277.12 24.4301C277.17 25.5801 277.25 26.7301 277.37 27.8901C277.49 29.0401 277.62 30.2201 277.77 31.4201C277.91 32.1901 278.1 33.1001 278.35 34.1601C278.59 35.2201 278.84 36.3201 279.11 37.4701C279.37 38.6201 279.64 39.7301 279.9 40.7801C280.16 41.8401 280.37 42.7501 280.51 43.5201C280.75 44.2901 280.87 45.0401 280.87 45.7901C280.87 46.5401 280.25 47.3401 279 48.2001C278.28 48.4401 277.54 48.3301 276.77 47.8801C276 47.4201 275.21 46.8601 274.39 46.1901C273.91 45.8101 273.49 45.1701 273.13 44.2801C272.77 43.3901 272.47 42.4101 272.23 41.3301C271.99 40.2501 271.79 39.1501 271.62 38.0201C271.45 36.8901 271.32 35.8701 271.22 34.9601C271.03 35.5401 270.76 36.2501 270.43 37.0801C270.09 37.9201 269.78 38.6001 269.49 39.1301C268.96 40.0901 268.39 41.0701 267.76 42.0801C267.14 43.0901 266.42 44.0001 265.6 44.8201C264.88 45.5401 263.87 46.2801 262.58 47.0501C261.29 47.8201 260.08 48.3701 258.98 48.7101C258.88 48.7601 258.67 48.7301 258.33 48.6401C256.51 48.3501 254.96 47.6101 253.69 46.4101C252.42 45.2101 251.59 43.4301 251.21 41.0801C250.83 38.8701 250.45 36.5901 250.09 34.2401C249.73 31.8901 249.43 29.6301 249.19 27.4701C249 26.0801 248.91 24.6601 248.94 23.2201C248.96 21.7801 249 20.2901 249.05 18.7601L249.02 18.7401Z" fill="#010000"/>
<path d="M303.23 23.6299C302.27 23.0499 301.36 22.4299 300.49 21.7599C299.63 21.0899 298.77 20.4799 297.93 19.9199C297.09 19.3699 296.29 18.9099 295.52 18.5499C294.75 18.1899 294.01 18.0099 293.29 18.0099C292.52 18.3899 291.91 19.0199 291.45 19.8799C290.99 20.7399 290.6 21.5799 290.26 22.3999C289.54 24.0799 289.62 25.4799 290.51 26.6099C291.4 27.7399 292.97 28.5199 295.23 28.9499C296.38 29.1899 297.52 29.3899 298.65 29.5599C299.78 29.7299 300.87 30.0499 301.93 30.5299C303.75 31.3499 305.28 32.2899 306.5 33.3699C307.72 34.4499 308.5 35.9499 308.84 37.8699C309.22 39.6499 309.07 41.3299 308.37 42.9099C307.67 44.4899 306.58 45.6199 305.09 46.2899C304.42 46.6299 303.7 46.8399 302.93 46.9399C302.16 47.0399 301.42 47.1799 300.7 47.3699C300.51 47.4199 300.32 47.4299 300.12 47.4099C299.93 47.3899 299.74 47.3999 299.54 47.4499C298.15 47.7799 296.82 47.9299 295.54 47.8799C294.27 47.8299 293.04 47.6799 291.87 47.4099C290.69 47.1499 289.54 46.7999 288.41 46.3699C287.28 45.9399 286.19 45.5299 285.13 45.1499C284.89 45.0499 284.64 44.7899 284.37 44.3599C284.11 43.9299 283.9 43.5199 283.76 43.1399C283.38 42.0899 283.05 41.0299 282.79 39.9699C282.53 38.9199 282.61 37.9099 283.04 36.9499C283.71 36.3699 284.32 36.2199 284.88 36.4799C285.43 36.7399 285.97 36.9999 286.5 37.2399C288.08 37.9099 289.71 38.4599 291.36 38.8999C293.02 39.3299 294.85 39.6699 296.87 39.9099C297.69 40.0099 298.41 39.9099 299.03 39.6199C299.65 39.3299 299.97 38.5599 299.97 37.3199C299.97 36.2199 299.63 35.3299 298.96 34.6599C298.29 33.9899 297.62 33.5299 296.94 33.2899C295.98 32.9999 295.01 32.7799 294.02 32.6099C293.04 32.4399 292.06 32.1899 291.1 31.8499C290.23 31.5199 289.5 31.1899 288.9 30.8799C288.3 30.5699 287.81 30.2099 287.42 29.7999C287.04 29.3899 286.72 28.8999 286.48 28.3199C286.24 27.7399 286.05 27.0499 285.9 26.2299C285.52 24.0199 285.52 22.0999 285.9 20.4699C286.28 18.8399 287.27 17.1799 288.85 15.4999C289.47 14.8299 290.25 14.2499 291.19 13.7699C292.13 13.2899 293.1 12.9699 294.11 12.7999C295.12 12.6299 296.11 12.6099 297.1 12.7299C298.08 12.8499 298.98 13.1699 299.8 13.6999C300.47 14.1799 301.14 14.6699 301.82 15.1799C302.49 15.6799 303.09 16.2199 303.62 16.7999C304.44 17.7599 304.77 18.8299 304.63 19.9999C304.49 21.1799 304.01 22.3899 303.19 23.6399L303.23 23.6299Z" fill="#010000"/>
</svg>
