<svg width="140" height="140" viewBox="0 0 140 140" fill="none" xmlns="http://www.w3.org/2000/svg">
<g clip-path="url(#clip0_256_3160)">
<path d="M140 70C140 31.34 108.66 0 70 0C31.34 0 0 31.34 0 70C0 104.938 25.5979 133.898 59.0625 139.15V90.2344H41.2891V70H59.0625V54.5781C59.0625 37.0344 69.5133 27.3438 85.5025 27.3438C93.1588 27.3438 101.172 28.7109 101.172 28.7109V45.9375H92.3453C83.65 45.9375 80.9375 51.3338 80.9375 56.875V70H100.352L97.248 90.2344H80.9375V139.15C114.402 133.898 140 104.938 140 70Z" fill="#1877F2"/>
<path d="M97.248 90.2344L100.352 70H80.9375V56.875C80.9375 51.3393 83.65 45.9375 92.3453 45.9375H101.172V28.7109C101.172 28.7109 93.1615 27.3438 85.5025 27.3438C69.5133 27.3438 59.0625 37.0344 59.0625 54.5781V70H41.2891V90.2344H59.0625V139.15C66.3101 140.283 73.6899 140.283 80.9375 139.15V90.2344H97.248Z" fill="white"/>
</g>
<defs>
<clipPath id="clip0_256_3160">
<rect width="140" height="140" fill="white"/>
</clipPath>
</defs>
</svg>
