<svg width="22" height="21" viewBox="0 0 22 21" fill="none" xmlns="http://www.w3.org/2000/svg">
<path d="M10.98 5.37988C8.09998 5.37988 5.75 7.71986 5.75 10.6099C5.75 13.4999 8.08998 15.8398 10.98 15.8398C13.87 15.8398 16.21 13.4899 16.21 10.6099C16.21 7.72986 13.87 5.37988 10.98 5.37988ZM10.98 14.0999C9.05998 14.0999 7.48999 12.5299 7.48999 10.6099C7.48999 8.68986 9.05998 7.11987 10.98 7.11987C12.9 7.11987 14.47 8.68986 14.47 10.6099C14.47 12.5299 12.9 14.0999 10.98 14.0999Z" fill="#494542"/>
<path d="M15.7 0.349854H6.25C3.2 0.349854 0.719971 2.82988 0.719971 5.87988V15.3298C0.719971 18.3798 3.2 20.8599 6.25 20.8599H15.7C18.75 20.8599 21.23 18.3798 21.23 15.3298V5.87988C21.23 2.82988 18.75 0.349854 15.7 0.349854ZM19.5 15.3398C19.5 17.4298 17.8 19.1299 15.71 19.1299H6.26001C4.17001 19.1299 2.46997 17.4298 2.46997 15.3398V5.88989C2.46997 3.79989 4.17001 2.09985 6.26001 2.09985H15.71C17.8 2.09985 19.5 3.79989 19.5 5.88989V15.3398Z" fill="#494542"/>
<path d="M16.17 3.52979C15.46 3.52979 14.89 4.09981 14.89 4.80981C14.89 5.51981 15.46 6.08972 16.17 6.08972C16.88 6.08972 17.45 5.51981 17.45 4.80981C17.45 4.09981 16.88 3.52979 16.17 3.52979Z" fill="#494542"/>
</svg>
