<svg width="831" height="69" viewBox="0 0 831 69" fill="none" xmlns="http://www.w3.org/2000/svg">
<path d="M9.81002 54.0499C9.38002 54.1499 8.91 54.2399 8.41 54.3399C7.91 54.4399 7.43 54.4999 6.97 54.5199C6.50999 54.5399 6.09005 54.5599 5.71005 54.5599C5.33005 54.5599 5.06001 54.51 4.92001 54.42C4.39001 54.13 3.96002 53.9099 3.62002 53.7399C3.28002 53.5699 2.95001 53.2499 2.61001 52.7699C2.42001 52.5799 2.26004 52.3899 2.14004 52.1899C2.02004 51.9999 1.86001 51.7799 1.67001 51.5399C1.33001 51.0599 1.08 50.3399 0.909997 49.3799C0.739997 48.4199 0.700012 47.6299 0.800012 46.9999C1.09001 43.7899 1.27005 40.5599 1.34005 37.3199C1.41005 34.0799 1.40001 30.8799 1.30001 27.7099C1.30001 26.5599 1.31005 25.1699 1.34005 23.5299C1.36005 21.8999 1.42004 20.2199 1.52004 18.4899C1.62004 16.7599 1.77001 15.0699 1.99001 13.4099C2.21001 11.7499 2.53005 10.35 2.96005 9.19995C3.92005 9.57995 4.86004 9.94994 5.77004 10.2799C6.68004 10.6199 7.35 11.1899 7.79 12.0099C7.93 12.3899 7.93 12.8299 7.79 13.3099C7.65 13.8899 7.51004 14.5799 7.39004 15.3999C7.27004 16.2199 7.16003 17.0799 7.07003 17.9899C6.97003 18.8999 6.9 19.82 6.85 20.7299C6.8 21.6399 6.78005 22.4799 6.78005 23.2499C6.83005 24.4499 6.86004 25.6299 6.89004 26.7799C6.91004 27.9299 6.97003 29.1099 7.07003 30.3099C7.07003 30.4999 7.08001 30.6799 7.11001 30.8499C7.13001 31.0199 7.15005 31.2199 7.15005 31.4599C7.39005 31.4099 7.61001 31.3399 7.80001 31.2399C7.99001 31.1399 8.13 31.0699 8.23 31.0199C9.77 30.3999 11.24 29.7699 12.66 29.1499C14.08 28.5299 15.7 27.95 17.52 27.42C19.06 26.99 20.46 26.5999 21.73 26.2699C23 25.9399 24.21 25.5699 25.37 25.1899C26.19 24.8999 26.75 24.5199 27.06 24.0399C27.37 23.5599 27.58 22.8899 27.67 22.0199C27.77 21.0099 27.9 20.0999 28.07 19.2799C28.24 18.4599 28.4 17.6599 28.57 16.8699C28.74 16.0799 28.92 15.2799 29.11 14.4599C29.3 13.6399 29.49 12.7299 29.69 11.7199C29.79 10.8999 29.95 10.0199 30.19 9.05994C30.43 8.09994 30.8101 7.20993 31.3401 6.39993C31.3901 6.29993 31.4701 6.23994 31.5901 6.21994C31.7101 6.19994 31.82 6.17993 31.91 6.17993C32.24 6.17993 32.69 6.18994 33.24 6.21994C33.79 6.24994 34.36 6.26995 34.93 6.28995C35.51 6.31995 36.07 6.35993 36.62 6.42993C37.17 6.49993 37.62 6.58993 37.95 6.67993C38.81 6.91993 39.46 7.38993 39.89 8.07993C40.32 8.77993 40.42 9.52995 40.18 10.3499C39.65 11.6899 39.15 12.9399 38.67 14.0899C38.19 15.2399 37.88 16.5899 37.73 18.1199C37.63 19.2299 37.56 20.2599 37.51 21.2199C37.46 22.1799 37.51 23.1899 37.65 24.2399C37.84 24.3399 38.07 24.5999 38.33 25.0299C38.59 25.4599 38.7 25.9399 38.65 26.4699C38.55 26.9499 38.36 27.4899 38.07 28.0899C37.78 28.6899 37.37 29.1099 36.85 29.3499C36.51 32.2299 36.17 35.2899 35.81 38.5299C35.45 41.7699 35.25 44.8799 35.2 47.8499C35.2 48.2299 35.19 48.6199 35.16 48.9999C35.13 49.3799 35.12 49.7699 35.12 50.1499C35.12 51.8799 35.07 53.5999 34.98 55.2999C34.88 56.9999 34.52 58.7399 33.9 60.5199C33.52 60.6599 33.01 60.7699 32.39 60.8399C31.77 60.9099 31.12 60.9199 30.45 60.8799C29.78 60.8299 29.14 60.7399 28.54 60.5899C27.94 60.4499 27.5201 60.2299 27.2801 59.9399C26.3701 58.8399 25.54 57.76 24.8 56.7C24.05 55.6399 23.68 54.4199 23.68 53.0299C23.68 52.7899 23.66 52.5599 23.61 52.3499C23.56 52.1399 23.59 51.9799 23.68 51.8799C23.92 50.1999 24.17 48.3799 24.44 46.4099C24.7 44.4399 24.96 42.4899 25.2 40.5399C25.44 38.5999 25.67 36.7699 25.88 35.0699C26.1 33.3699 26.3 31.9399 26.49 30.7899V30.3599C25.87 30.4099 25.27 30.4699 24.69 30.5399C24.11 30.6099 23.54 30.7399 22.96 30.9399C22 31.2299 21.12 31.4999 20.33 31.7699C19.54 32.0299 18.81 32.2899 18.13 32.5299C17.46 32.7699 16.79 32.9999 16.11 33.2099C15.44 33.4299 14.72 33.6799 13.95 33.9699C13.71 34.0699 13.38 34.1999 12.98 34.3699C12.57 34.5399 12.15 34.7099 11.72 34.8699C11.29 35.0399 10.87 35.2199 10.46 35.4099C10.05 35.5999 9.75002 35.7499 9.56002 35.8399C9.08002 36.0799 8.71003 36.36 8.44003 36.67C8.18003 36.98 8.01003 37.39 7.94003 37.89C7.87003 38.39 7.87003 39.0199 7.94003 39.7599C8.01003 40.5 8.14005 41.4499 8.34005 42.5999C8.34005 42.7399 8.38004 42.9599 8.45004 43.2499C8.52004 43.5399 8.59001 43.8499 8.67001 44.1899C8.74001 44.5299 8.83001 44.8299 8.92001 45.0899C9.02001 45.3499 9.06002 45.56 9.06002 45.7C9.39002 47.4799 9.64005 49.0099 9.78005 50.3099C9.92005 51.6099 9.92005 52.8499 9.78005 54.0499H9.81002Z" fill="#010000"/>
<path d="M68.5599 45.0499C69.3299 46.4899 69.6299 47.5799 69.4599 48.3299C69.2899 49.0799 68.5099 49.7799 67.1199 50.4499C65.5799 51.2199 63.9499 51.7499 62.2199 52.0299C60.4899 52.3199 58.7699 52.3399 57.0699 52.0999C55.3699 51.8599 53.7199 51.3299 52.1399 50.5199C50.5599 49.6999 49.1399 48.5499 47.8899 47.0599C46.8799 45.9099 46.1699 44.6399 45.7699 43.2399C45.3599 41.8499 45.0399 40.4299 44.7999 38.9899C44.4599 35.9699 44.5699 33.0299 45.1199 30.1699C45.6699 27.3099 46.9099 24.6099 48.8299 22.0699C49.4999 21.2499 50.2199 20.5599 50.9899 19.9799C51.7599 19.3999 52.6899 19.2799 53.7999 19.6199C54.0899 19.7199 54.3899 19.8099 54.6999 19.9099C55.0099 20.0099 55.3099 20.0099 55.5999 19.9099C56.9899 19.6699 58.3499 19.7999 59.6699 20.3099C60.9899 20.8099 62.0599 21.5199 62.8699 22.4299C63.3999 22.9599 63.9399 23.5199 64.4899 24.1199C65.0399 24.7199 65.5099 25.3099 65.8899 25.8799C66.4199 26.6999 66.9199 27.6399 67.3999 28.7199C67.8799 29.7999 68.0499 30.8899 67.8999 31.9999C67.8999 32.6199 67.8299 33.1799 67.6799 33.6599C67.3899 33.7599 67.1199 33.8599 66.8499 33.9799C66.5899 34.0999 66.2899 34.2099 65.9499 34.2999C64.4599 34.7799 62.9899 35.2699 61.5199 35.7799C60.0599 36.2799 58.5799 36.8499 57.0899 37.4699C56.0799 37.8499 54.9799 38.0399 53.7799 38.0099C52.5799 37.9899 51.7199 37.8299 51.1899 37.5399L49.8899 36.8199C49.8899 38.5499 50.1399 40.0999 50.6499 41.4599C51.1599 42.8199 51.8699 43.9599 52.8099 44.8399C53.7499 45.7299 54.8499 46.3399 56.1199 46.6799C57.3899 47.0199 58.7899 46.9899 60.3299 46.6099C61.5299 46.3199 62.6899 45.9699 63.8199 45.5699C64.9499 45.1599 66.1399 44.9599 67.3799 44.9599C67.5699 44.9599 67.7599 44.9699 67.9599 44.9999C68.1499 45.0199 68.3399 45.0399 68.5399 45.0399L68.5599 45.0499ZM49.7699 34.9699C50.4899 34.9699 51.1599 34.7999 51.7899 34.4699C52.4099 34.1299 53.1099 33.7699 53.8799 33.3899C54.6499 32.9599 55.5599 32.4899 56.6199 31.9899C57.6699 31.4899 58.5899 31.0399 59.3599 30.6599C58.9299 29.0799 58.2399 27.9199 57.3099 27.1999C56.3699 26.4799 55.3499 25.9999 54.2499 25.7599C53.5299 26.1399 52.8499 26.6799 52.1999 27.3799C51.5499 28.0799 51.0099 28.8299 50.5799 29.6499C50.1499 30.4699 49.8499 31.3399 49.6799 32.2799C49.5099 33.2199 49.5499 34.1199 49.7899 34.9799L49.7699 34.9699Z" fill="#010000"/>
<path d="M77.42 0.189941C78.62 0.669941 79.64 1.13994 80.48 1.58994C81.32 2.04994 82.0001 2.55995 82.5301 3.13995C83.0601 3.71995 83.4101 4.38994 83.5701 5.15994C83.7401 5.92994 83.7301 6.86994 83.5301 7.96994C83.2901 9.21994 83.09 10.6699 82.92 12.3299C82.75 13.9899 82.58 15.6799 82.42 17.4099C82.25 19.1399 82.1001 20.8299 81.9501 22.4899C81.8101 24.1499 81.6601 25.62 81.5201 26.92C81.1401 30.38 81.0501 33.8299 81.2701 37.2899C81.4901 40.7499 81.64 44.1999 81.74 47.6599C81.74 48.4299 81.78 49.2699 81.85 50.1799C81.92 51.0899 82.03 51.93 82.17 52.7C82.22 53.08 82.16 53.41 81.99 53.67C81.82 53.93 81.5801 54.17 81.2701 54.39C80.9601 54.61 80.61 54.8199 80.23 55.0399C79.85 55.2599 79.4801 55.5099 79.1501 55.7999C77.6601 55.4199 76.4701 54.5199 75.5901 53.0999C74.7001 51.6799 74.4501 49.7499 74.8301 47.2999C75.2601 44.3699 75.3701 41.4199 75.1501 38.4399C74.9301 35.4599 74.8301 32.4599 74.8301 29.4399C74.8301 27.8099 74.8701 25.9799 74.9401 23.9699C75.0101 21.9499 75.1201 19.9099 75.2601 17.8499C75.4001 15.7899 75.58 13.7599 75.8 11.7699C76.02 9.77993 76.2701 7.96993 76.5601 6.32993C76.6601 5.79993 76.7001 5.26994 76.7001 4.74994C76.7001 4.22994 76.7501 3.68995 76.8401 3.16995C76.8901 2.68995 76.9701 2.20995 77.0901 1.72995C77.2101 1.24995 77.32 0.74994 77.41 0.21994L77.42 0.189941Z" fill="#010000"/>
<path d="M94.34 0.189941C95.54 0.669941 96.56 1.13994 97.4 1.58994C98.24 2.04994 98.92 2.55995 99.45 3.13995C99.98 3.71995 100.33 4.38994 100.49 5.15994C100.66 5.92994 100.65 6.86994 100.45 7.96994C100.21 9.21994 100.01 10.6699 99.84 12.3299C99.67 13.9899 99.5 15.6799 99.34 17.4099C99.17 19.1399 99.02 20.8299 98.87 22.4899C98.73 24.1499 98.58 25.62 98.44 26.92C98.06 30.38 97.97 33.8299 98.19 37.2899C98.41 40.7499 98.56 44.1999 98.66 47.6599C98.66 48.4299 98.7 49.2699 98.77 50.1799C98.84 51.0899 98.95 51.93 99.09 52.7C99.14 53.08 99.08 53.41 98.91 53.67C98.74 53.93 98.5 54.17 98.19 54.39C97.88 54.61 97.53 54.8199 97.15 55.0399C96.77 55.2599 96.4 55.5099 96.07 55.7999C94.58 55.4199 93.39 54.5199 92.51 53.0999C91.62 51.6799 91.37 49.7499 91.75 47.2999C92.18 44.3699 92.29 41.4199 92.07 38.4399C91.85 35.4599 91.75 32.4599 91.75 29.4399C91.75 27.8099 91.79 25.9799 91.86 23.9699C91.93 21.9499 92.04 19.9099 92.18 17.8499C92.32 15.7899 92.5 13.7599 92.72 11.7699C92.94 9.77993 93.19 7.96993 93.48 6.32993C93.58 5.79993 93.62 5.26994 93.62 4.74994C93.62 4.22994 93.67 3.68995 93.76 3.16995C93.81 2.68995 93.89 2.20995 94.01 1.72995C94.13 1.24995 94.24 0.74994 94.33 0.21994L94.34 0.189941Z" fill="#010000"/>
<path d="M105.14 41.1599C105 40.2499 105.07 39.3699 105.36 38.5299C105.65 37.6899 106.03 36.7899 106.51 35.8299C107.13 34.4899 107.79 33.1699 108.49 31.8699C109.19 30.5699 109.92 29.2299 110.69 27.8399C111.84 25.7299 113.79 24.0699 116.52 22.8699C117.72 22.2899 118.86 22.0899 119.94 22.2599C121.02 22.4299 122.14 22.6999 123.29 23.0899C125.59 23.7099 127.19 24.7699 128.08 26.2599C128.97 27.7499 129.53 29.4299 129.77 31.2999C129.91 32.9799 129.85 34.6199 129.59 36.2299C129.33 37.8399 129.03 39.4799 128.69 41.1599C128.55 42.1699 128.29 43.1499 127.93 44.1099C127.57 45.0699 127.15 46.0499 126.67 47.0599C126.57 47.3499 126.44 47.5999 126.27 47.8199C126.1 48.0399 125.9 48.2399 125.66 48.4299C125.42 48.6699 125.18 48.8399 124.94 48.9299C124.7 49.0299 124.56 49.1899 124.51 49.4299C124.08 50.3399 123.39 50.9799 122.46 51.3399C121.52 51.6999 120.55 51.9999 119.54 52.2399C118.44 52.3799 117.4 52.4299 116.44 52.3799C115.48 52.3299 114.54 52.0199 113.63 51.4399C113.53 51.3399 113.39 51.2699 113.2 51.2199C113.01 51.1699 112.84 51.1499 112.7 51.1499C111.26 50.6199 110.06 50.0699 109.1 49.4899C108.14 48.9099 107.37 48.2399 106.8 47.4699C106.22 46.6999 105.8 45.7999 105.54 44.7699C105.28 43.7399 105.14 42.5299 105.14 41.1299V41.1599ZM123.64 28.8499C123.06 28.7099 122.58 28.6099 122.2 28.5599C121.82 28.5099 121.49 28.5199 121.23 28.5999C120.97 28.6699 120.7 28.8099 120.44 28.9999C120.18 29.1899 119.88 29.4799 119.54 29.8599L117.31 33.1699C116.45 34.7499 115.81 36.1799 115.4 37.4499C114.99 38.7199 114.57 40.1999 114.14 41.8799C114 42.6999 114.04 43.4499 114.28 44.1499C114.52 44.8499 114.88 45.4599 115.36 45.9899C115.84 46.5199 116.39 46.9399 117.02 47.2499C117.64 47.5599 118.24 47.7199 118.82 47.7199C120.31 47.7199 121.49 47.3199 122.38 46.5299C123.27 45.7399 123.88 44.6499 124.22 43.2499L124.94 39.7899C125.08 38.6399 125.26 37.4399 125.48 36.1899C125.7 34.9399 125.64 33.6899 125.3 32.4499C125.16 31.8699 124.98 31.2299 124.76 30.5099C124.54 29.7899 124.17 29.2399 123.64 28.8499Z" fill="#010000"/>
<path d="M139.41 57.5798C139.12 57.5798 138.76 57.5398 138.33 57.4698C137.9 57.3998 137.45 57.2998 137 57.1798C136.54 57.0598 136.12 56.9198 135.74 56.7498C135.36 56.5798 135.07 56.3498 134.88 56.0698C134.5 55.5898 134.27 55.0298 134.2 54.3798C134.13 53.7298 134.14 53.0798 134.24 52.4398C134.34 51.7898 134.52 51.1398 134.78 50.4998C135.04 49.8498 135.32 49.2898 135.61 48.8098C136.14 48.1898 136.76 47.6898 137.48 47.3298C138.2 46.9698 138.87 46.8198 139.5 46.8598C140.46 47.0498 141.37 47.2698 142.24 47.5098C143.1 47.7498 143.78 48.3298 144.26 49.2398C144.84 50.1998 145.12 51.3798 145.12 52.7698C145.12 54.1598 144.95 55.5598 144.62 56.9798C144.28 58.3998 143.82 59.7498 143.22 61.0498C142.62 62.3498 141.96 63.3998 141.24 64.2198C140.76 64.7498 140.18 65.3398 139.51 65.9798C138.84 66.6298 138.05 67.3598 137.13 68.1798C136.7 68.1798 136.43 68.0398 136.34 67.7498C136.24 67.4598 136.22 67.0898 136.27 66.6298C136.32 66.1698 136.41 65.6798 136.56 65.1498C136.7 64.6198 136.85 64.1398 136.99 63.7098C137.04 63.4698 137.17 63.0598 137.39 62.4898C137.61 61.9198 137.86 61.2998 138.15 60.6498C138.44 59.9998 138.7 59.3898 138.94 58.8098C139.18 58.2298 139.35 57.8298 139.44 57.5898L139.41 57.5798Z" fill="#010000"/>
<path d="M187.5 27.4799C187.64 26.1399 187.92 25.0899 188.33 24.3499C188.74 23.6099 189.59 23.0399 190.89 22.6599C191.71 22.4199 192.39 22.2199 192.94 22.0499C193.49 21.8799 194.18 21.7299 194.99 21.5799C195.71 22.8799 196.43 24.3499 197.15 26.0099C197.87 27.6699 198.59 29.3899 199.31 31.1899C200.03 32.9899 200.74 34.7899 201.43 36.5899C202.13 38.3899 202.79 40.0799 203.41 41.6699C204.46 39.5599 205.46 37.3499 206.4 35.0499C207.34 32.7499 208.19 30.6799 208.96 28.8599C209.92 26.6999 211.14 24.8499 212.63 23.3199C214.12 21.7799 215.89 20.8999 217.96 20.6599C218.92 21.1399 219.4 21.9099 219.4 22.9599C219.4 24.0099 219.11 25.0999 218.54 26.1999C217.92 27.2999 217.29 28.5499 216.67 29.9399C216.05 31.3299 215.47 32.5799 214.94 33.6799C213.69 36.6599 212.47 39.4299 211.27 41.9999C210.07 44.5699 208.94 47.3199 207.89 50.2399C207.55 51.2999 207.22 52.2299 206.88 53.0499C206.54 53.8699 206.15 54.4699 205.69 54.8499C205.23 55.2299 204.68 55.3799 204.03 55.2799C203.38 55.1799 202.58 54.7499 201.62 53.9799C200.76 53.3099 200.07 52.6499 199.57 51.9999C199.07 51.3499 198.89 50.3599 199.03 49.0099C199.17 48.4799 199.08 47.7899 198.74 46.9199C198.4 46.0599 198.12 45.3599 197.88 44.8299C197.59 44.0099 197.23 43.0199 196.8 41.8399C196.37 40.6599 195.9 39.4599 195.4 38.2399C194.9 37.0199 194.38 35.8299 193.85 34.6799C193.32 33.5299 192.79 32.5199 192.27 31.6599C192.17 32.1899 192.03 32.7899 191.84 33.4599C191.65 34.1299 191.44 34.8299 191.23 35.5499C191.01 36.2699 190.81 36.9699 190.62 37.6399C190.43 38.3099 190.31 38.8899 190.26 39.3699C189.92 42.1499 189.37 44.8499 188.6 47.4699C187.83 50.0899 186.75 52.7599 185.36 55.4999C184.88 55.5999 184.34 55.5199 183.74 55.2799C183.14 55.0399 182.65 54.7299 182.26 54.3399C181.88 54.0499 181.54 53.7399 181.25 53.3999C180.96 53.0699 180.77 52.6999 180.67 52.3199C180.24 50.7399 179.75 49.0599 179.19 47.2799C178.64 45.4999 178.07 43.6899 177.5 41.8399C176.92 39.9899 176.36 38.1799 175.81 36.3999C175.26 34.6299 174.77 32.9699 174.33 31.4299C174.14 30.8099 173.86 30.1799 173.5 29.5599C173.14 28.9399 172.7 28.1399 172.17 27.1799C171.74 26.4099 171.52 25.7899 171.52 25.3099C171.52 24.8299 172 24.4699 172.96 24.2299C173.87 24.0399 174.84 24.2799 175.88 24.9499C176.91 25.6199 177.76 26.7999 178.44 28.4799C178.73 29.2999 179.05 30.2599 179.41 31.3599C179.77 32.4699 180.07 33.4199 180.31 34.2399C180.41 34.5299 180.59 35.1999 180.85 36.2599C181.11 37.3199 181.39 38.4599 181.68 39.6799C181.97 40.8999 182.24 42.0399 182.51 43.0999C182.77 44.1599 182.95 44.8499 183.05 45.1899C183.34 43.8499 183.67 42.3099 184.06 40.5799C184.44 38.8499 184.85 37.1499 185.28 35.4699C185.71 33.7899 186.13 32.2299 186.54 30.7899C186.95 29.3499 187.27 28.2499 187.51 27.4799H187.5Z" fill="#010000"/>
<path d="M244.24 45.0499C245.01 46.4899 245.31 47.5799 245.14 48.3299C244.97 49.0799 244.19 49.7799 242.8 50.4499C241.26 51.2199 239.63 51.7499 237.9 52.0299C236.17 52.3199 234.45 52.3399 232.75 52.0999C231.05 51.8599 229.4 51.3299 227.82 50.5199C226.24 49.6999 224.82 48.5499 223.57 47.0599C222.56 45.9099 221.85 44.6399 221.45 43.2399C221.04 41.8499 220.72 40.4299 220.48 38.9899C220.14 35.9699 220.25 33.0299 220.8 30.1699C221.35 27.3099 222.59 24.6099 224.51 22.0699C225.18 21.2499 225.9 20.5599 226.67 19.9799C227.44 19.3999 228.37 19.2799 229.48 19.6199C229.77 19.7199 230.07 19.8099 230.38 19.9099C230.69 20.0099 230.99 20.0099 231.28 19.9099C232.67 19.6699 234.03 19.7999 235.35 20.3099C236.67 20.8099 237.74 21.5199 238.55 22.4299C239.08 22.9599 239.62 23.5199 240.17 24.1199C240.72 24.7199 241.19 25.3099 241.57 25.8799C242.1 26.6999 242.6 27.6399 243.08 28.7199C243.56 29.7999 243.73 30.8899 243.58 31.9999C243.58 32.6199 243.51 33.1799 243.36 33.6599C243.07 33.7599 242.8 33.8599 242.53 33.9799C242.27 34.0999 241.97 34.2099 241.63 34.2999C240.14 34.7799 238.67 35.2699 237.2 35.7799C235.74 36.2799 234.26 36.8499 232.77 37.4699C231.76 37.8499 230.66 38.0399 229.46 38.0099C228.26 37.9899 227.4 37.8299 226.87 37.5399L225.57 36.8199C225.57 38.5499 225.82 40.0999 226.33 41.4599C226.84 42.8199 227.55 43.9599 228.49 44.8399C229.43 45.7299 230.53 46.3399 231.8 46.6799C233.07 47.0199 234.47 46.9899 236.01 46.6099C237.21 46.3199 238.37 45.9699 239.5 45.5699C240.63 45.1599 241.82 44.9599 243.06 44.9599C243.25 44.9599 243.44 44.9699 243.64 44.9999C243.83 45.0199 244.02 45.0399 244.22 45.0399L244.24 45.0499ZM225.45 34.9699C226.17 34.9699 226.84 34.7999 227.47 34.4699C228.09 34.1299 228.79 33.7699 229.56 33.3899C230.33 32.9599 231.24 32.4899 232.3 31.9899C233.35 31.4899 234.27 31.0399 235.04 30.6599C234.61 29.0799 233.92 27.9199 232.99 27.1999C232.05 26.4799 231.03 25.9999 229.93 25.7599C229.21 26.1399 228.53 26.6799 227.88 27.3799C227.23 28.0799 226.69 28.8299 226.26 29.6499C225.83 30.4699 225.53 31.3399 225.36 32.2799C225.19 33.2199 225.23 34.1199 225.47 34.9799L225.45 34.9699Z" fill="#010000"/>
<path d="M251.8 0.839887C253.05 0.739887 254.08 0.769895 254.9 0.909895C255.72 1.04989 256.38 1.3099 256.88 1.6699C257.38 2.0299 257.76 2.4899 258 3.0399C258.24 3.5899 258.43 4.2299 258.58 4.9499C258.63 5.0899 258.6 5.44989 258.51 6.02989C258.41 6.60989 258.28 7.22988 258.11 7.89988C257.94 8.56988 257.75 9.2399 257.53 9.9199C257.31 10.5899 257.09 11.1399 256.85 11.5799C256.08 13.3099 255.35 14.8099 254.65 16.0799C253.95 17.3499 252.86 18.5399 251.37 19.6399C251.23 19.7399 250.84 19.6999 250.22 19.5299C249.6 19.3599 249.16 19.1799 248.92 18.9899C248.92 18.5599 248.97 17.9799 249.06 17.2599C249.16 16.5399 249.25 15.7999 249.35 15.0299C249.45 14.2599 249.54 13.5199 249.64 12.7999C249.73 12.0799 249.81 11.4999 249.86 11.0699C250.05 9.7699 250.39 8.24989 250.87 6.49989C251.35 4.74989 251.66 2.8599 251.81 0.849897L251.8 0.839887Z" fill="#010000"/>
<path d="M264.97 52.2499C264.49 51.1499 264.44 49.5599 264.83 47.4999C265.21 45.4799 265.36 43.5199 265.26 41.5999C265.16 39.6799 265.09 37.8099 265.04 35.9799C265.04 35.1199 265 34.1099 264.93 32.9599C264.86 31.8099 264.76 30.6299 264.64 29.4299C264.52 28.2299 264.4 27.0199 264.28 25.7899C264.16 24.5699 264.03 23.4499 263.88 22.4399C264.5 22.2999 265.15 22.2499 265.82 22.2999C266.49 22.3499 267.1 22.4899 267.66 22.7299C268.21 22.9699 268.69 23.2799 269.1 23.6699C269.51 24.0499 269.78 24.4599 269.93 24.8899C270.07 25.3199 270.18 25.8999 270.25 26.6199C270.32 27.3399 270.38 28.0999 270.43 28.8899C270.48 29.6799 270.51 30.4599 270.54 31.2299C270.56 31.9999 270.55 32.6499 270.5 33.1699C271.84 30.7699 273.67 28.7399 275.97 27.0899C278.27 25.4299 281.39 24.0299 285.33 22.8799C286.96 22.3999 288.32 22.3999 289.4 22.8799C290.48 23.3599 291.31 24.1499 291.88 25.2599C292.5 26.5099 292.67 27.6399 292.38 28.6399C292.09 29.6399 291.32 30.6799 290.08 31.7399C289.46 31.8799 289.01 31.7499 288.75 31.3399C288.49 30.9299 288.35 30.3899 288.35 29.7199C288.35 29.2399 288.34 28.8099 288.31 28.4199C288.28 28.0399 288.15 27.7499 287.91 27.5599C287.33 27.6099 286.75 27.6299 286.15 27.6299C285.55 27.6299 284.96 27.6999 284.39 27.8499C283.57 28.0399 282.76 28.3899 281.94 28.8899C281.12 29.3899 280.36 29.9099 279.64 30.4399C278.78 31.1099 277.97 31.9899 277.23 33.0699C276.49 34.1499 275.85 35.3899 275.32 36.7799C274.5 39.0399 273.99 41.2999 273.77 43.5799C273.55 45.8599 273.76 48.1799 274.38 50.5299C274.48 50.9599 274.56 51.4099 274.63 51.8599C274.7 52.3199 274.81 52.7399 274.95 53.1199C275.05 53.4999 275.01 53.8399 274.84 54.1299C274.67 54.4199 274.43 54.6699 274.12 54.8899C273.81 55.1099 273.45 55.2899 273.04 55.4299C272.63 55.5699 272.26 55.6899 271.92 55.7899C271.06 55.8899 270.22 55.8299 269.4 55.6099C268.58 55.3899 267.85 55.1099 267.2 54.7499C266.55 54.3899 266.02 53.9899 265.62 53.5599C265.21 53.1299 264.98 52.6999 264.94 52.2599L264.97 52.2499Z" fill="#010000"/>
<path d="M317.39 45.0499C318.16 46.4899 318.46 47.5799 318.29 48.3299C318.12 49.0799 317.34 49.7799 315.95 50.4499C314.41 51.2199 312.78 51.7499 311.05 52.0299C309.32 52.3199 307.6 52.3399 305.9 52.0999C304.2 51.8599 302.55 51.3299 300.97 50.5199C299.39 49.6999 297.97 48.5499 296.72 47.0599C295.71 45.9099 295 44.6399 294.6 43.2399C294.19 41.8499 293.87 40.4299 293.63 38.9899C293.29 35.9699 293.4 33.0299 293.95 30.1699C294.5 27.3099 295.74 24.6099 297.66 22.0699C298.33 21.2499 299.05 20.5599 299.82 19.9799C300.59 19.3999 301.52 19.2799 302.63 19.6199C302.92 19.7199 303.22 19.8099 303.53 19.9099C303.84 20.0099 304.14 20.0099 304.43 19.9099C305.82 19.6699 307.18 19.7999 308.5 20.3099C309.82 20.8099 310.89 21.5199 311.7 22.4299C312.23 22.9599 312.77 23.5199 313.32 24.1199C313.87 24.7199 314.34 25.3099 314.72 25.8799C315.25 26.6999 315.75 27.6399 316.23 28.7199C316.71 29.7999 316.88 30.8899 316.73 31.9999C316.73 32.6199 316.66 33.1799 316.51 33.6599C316.22 33.7599 315.95 33.8599 315.68 33.9799C315.42 34.0999 315.12 34.2099 314.78 34.2999C313.29 34.7799 311.82 35.2699 310.35 35.7799C308.89 36.2799 307.41 36.8499 305.92 37.4699C304.91 37.8499 303.81 38.0399 302.61 38.0099C301.41 37.9899 300.55 37.8299 300.02 37.5399L298.72 36.8199C298.72 38.5499 298.97 40.0999 299.48 41.4599C299.99 42.8199 300.7 43.9599 301.64 44.8399C302.58 45.7299 303.68 46.3399 304.95 46.6799C306.22 47.0199 307.62 46.9899 309.16 46.6099C310.36 46.3199 311.52 45.9699 312.65 45.5699C313.78 45.1599 314.97 44.9599 316.21 44.9599C316.4 44.9599 316.59 44.9699 316.79 44.9999C316.98 45.0199 317.17 45.0399 317.37 45.0399L317.39 45.0499ZM298.6 34.9699C299.32 34.9699 299.99 34.7999 300.62 34.4699C301.24 34.1299 301.94 33.7699 302.71 33.3899C303.48 32.9599 304.39 32.4899 305.45 31.9899C306.5 31.4899 307.42 31.0399 308.19 30.6599C307.76 29.0799 307.07 27.9199 306.14 27.1999C305.2 26.4799 304.18 25.9999 303.08 25.7599C302.36 26.1399 301.68 26.6799 301.03 27.3799C300.38 28.0799 299.84 28.8299 299.41 29.6499C298.98 30.4699 298.68 31.3399 298.51 32.2799C298.34 33.2199 298.38 34.1199 298.62 34.9799L298.6 34.9699Z" fill="#010000"/>
<path d="M381.25 12.29C378.75 12.63 376.39 12.93 374.16 13.19C371.93 13.45 369.61 13.75 367.21 14.09C366.3 14.23 365.55 14.39 364.98 14.56C364.4 14.73 363.96 14.98 363.65 15.32C363.34 15.66 363.12 16.11 363 16.69C362.88 17.27 362.82 18.01 362.82 18.92C362.77 23.48 362.66 28.32 362.5 33.43C362.33 38.54 362.13 43.38 361.89 47.94C361.79 49.33 361.68 50.7 361.57 52.04C361.45 53.38 361.34 54.75 361.25 56.14C360.72 56.62 359.95 56.85 358.95 56.82C357.94 56.8 357.1 56.66 356.43 56.42C354.89 55.89 353.66 54.98 352.72 53.68C351.78 52.38 351.36 50.92 351.46 49.29C351.56 47.37 351.76 45.29 352.07 43.06C352.38 40.83 352.73 38.56 353.11 36.26C353.49 33.96 353.89 31.7 354.3 29.49C354.71 27.28 355.08 25.22 355.42 23.3C355.66 22.15 355.96 20.83 356.32 19.34C356.68 17.85 357.08 16.46 357.51 15.16C355.3 15.35 353.01 15.68 350.63 16.13C348.25 16.59 346.3 17.01 344.76 17.39C343.22 17.77 342 17.86 341.09 17.64C340.18 17.42 339.55 17.03 339.22 16.45C339.03 16.11 338.86 15.77 338.72 15.41C338.58 15.05 338.43 14.68 338.29 14.29C341.03 13.19 343.85 12.27 346.75 11.55C349.65 10.83 352.57 10.21 355.5 9.68C358.52 9.15 361.52 8.59999 364.5 8.01999C367.48 7.43999 370.48 6.95999 373.5 6.57999C374.51 6.43999 375.53 6.47001 376.56 6.69001C377.59 6.91001 378.61 7.13 379.62 7.37C380.77 7.75 381.42 8.31 381.56 9.03C381.7 9.75 381.61 10.83 381.27 12.27L381.25 12.29Z" fill="#010000"/>
<path d="M397.45 45.0499C398.22 46.4899 398.52 47.5799 398.35 48.3299C398.18 49.0799 397.4 49.7799 396.01 50.4499C394.47 51.2199 392.84 51.7499 391.11 52.0299C389.38 52.3199 387.66 52.3399 385.96 52.0999C384.26 51.8599 382.61 51.3299 381.03 50.5199C379.45 49.6999 378.03 48.5499 376.78 47.0599C375.77 45.9099 375.06 44.6399 374.66 43.2399C374.25 41.8499 373.93 40.4299 373.69 38.9899C373.35 35.9699 373.46 33.0299 374.01 30.1699C374.56 27.3099 375.8 24.6099 377.72 22.0699C378.39 21.2499 379.11 20.5599 379.88 19.9799C380.65 19.3999 381.58 19.2799 382.69 19.6199C382.98 19.7199 383.28 19.8099 383.59 19.9099C383.9 20.0099 384.2 20.0099 384.49 19.9099C385.88 19.6699 387.24 19.7999 388.56 20.3099C389.88 20.8099 390.95 21.5199 391.76 22.4299C392.29 22.9599 392.83 23.5199 393.38 24.1199C393.93 24.7199 394.4 25.3099 394.78 25.8799C395.31 26.6999 395.81 27.6399 396.29 28.7199C396.77 29.7999 396.94 30.8899 396.79 31.9999C396.79 32.6199 396.72 33.1799 396.57 33.6599C396.28 33.7599 396.01 33.8599 395.74 33.9799C395.48 34.0999 395.18 34.2099 394.84 34.2999C393.35 34.7799 391.88 35.2699 390.41 35.7799C388.95 36.2799 387.47 36.8499 385.98 37.4699C384.97 37.8499 383.87 38.0399 382.67 38.0099C381.47 37.9899 380.61 37.8299 380.08 37.5399L378.78 36.8199C378.78 38.5499 379.03 40.0999 379.54 41.4599C380.04 42.8299 380.76 43.9599 381.7 44.8399C382.64 45.7299 383.74 46.3399 385.01 46.6799C386.28 47.0199 387.68 46.9899 389.22 46.6099C390.42 46.3199 391.58 45.9699 392.71 45.5699C393.84 45.1599 395.03 44.9599 396.27 44.9599C396.46 44.9599 396.65 44.9699 396.85 44.9999C397.04 45.0199 397.23 45.0399 397.43 45.0399L397.45 45.0499ZM378.66 34.9699C379.38 34.9699 380.05 34.7999 380.68 34.4699C381.3 34.1299 382 33.7699 382.77 33.3899C383.54 32.9599 384.45 32.4899 385.51 31.9899C386.56 31.4899 387.48 31.0399 388.25 30.6599C387.82 29.0799 387.13 27.9199 386.2 27.1999C385.26 26.4799 384.24 25.9999 383.14 25.7599C382.42 26.1399 381.74 26.6799 381.09 27.3799C380.44 28.0799 379.9 28.8299 379.47 29.6499C379.04 30.4699 378.74 31.3399 378.57 32.2799C378.4 33.2199 378.44 34.1199 378.68 34.9799L378.66 34.9699Z" fill="#010000"/>
<path d="M419.77 35.1801C419.58 35.7601 419.39 36.4001 419.19 37.1201C419 37.8401 418.81 38.5501 418.61 39.2401C418.42 39.9401 418.23 40.6001 418.03 41.2201C417.84 41.8401 417.65 42.37 417.45 42.8C417.02 43.66 416.62 44.4901 416.26 45.2801C415.9 46.0701 415.49 46.83 415.04 47.55C414.58 48.27 414.06 48.9501 413.46 49.6001C412.86 50.2501 412.1 50.8901 411.19 51.5101C410.52 52.0401 409.82 52.2401 409.1 52.1201C408.38 52.0001 407.73 51.82 407.16 51.58C405.72 50.96 404.62 50.1401 403.85 49.1301C403.08 48.1201 402.51 46.8501 402.12 45.3101C401.69 42.8601 401.74 40.53 402.26 38.33C402.79 36.12 403.58 33.9401 404.64 31.7801C405.31 30.4801 406.08 29.2201 406.94 28.0001C407.8 26.7801 408.88 25.7301 410.18 24.8701C410.42 24.6301 410.83 24.3401 411.4 24.0101C413.42 22.9601 415.43 22.9101 417.45 23.8701L418.53 22.9301C419.01 22.6401 419.5 22.3401 420.01 22.0301C420.51 21.7201 421.03 21.5601 421.56 21.5601C422.38 21.5601 423.08 21.6101 423.68 21.7001C424.28 21.8001 425.01 21.9401 425.88 22.1301L427.82 32.5001L428.97 40.8501C429.26 42.3901 429.62 44.0101 430.05 45.7101C430.48 47.4101 430.96 48.9601 431.49 50.3501C431.59 50.5401 431.63 50.8301 431.63 51.2101C431.63 51.5901 431.51 51.9101 431.27 52.1501C431.03 52.3901 430.59 52.6501 429.94 52.9401C429.29 53.2301 428.8 53.3701 428.46 53.3701C427.5 53.3701 426.8 53.2301 426.37 52.9401C424.98 52.5601 423.81 51.8701 422.88 50.8901C421.94 49.9101 421.38 48.6901 421.19 47.2501C420.95 45.5201 420.72 43.8801 420.51 42.3201C420.29 40.7601 420.11 39.3301 419.97 38.0401C419.92 37.8001 419.89 37.3901 419.86 36.8201C419.83 36.2401 419.8 35.6901 419.75 35.1601L419.77 35.1801ZM415.74 27.7701C414.16 27.4401 412.93 27.9401 412.07 29.2801C411.83 29.8101 411.52 30.34 411.13 30.86C410.75 31.39 410.36 31.9401 409.98 32.5201C408.97 34.58 408.14 36.6001 407.5 38.5701C406.85 40.5401 406.58 42.7201 406.67 45.1201C406.72 45.2601 406.78 45.4601 406.85 45.7001C406.92 45.9401 407.05 46.2001 407.25 46.4901C407.97 46.2001 408.79 45.24 409.7 43.61C410.61 41.98 411.5 40.1301 412.36 38.0701C413.22 36.0101 413.97 34.0001 414.59 32.0601C415.21 30.1201 415.6 28.6901 415.74 27.7801V27.7701Z" fill="#010000"/>
<path d="M446.7 29.1401C446.03 30.6801 445.5 32.3601 445.12 34.1801C444.74 36.0001 444.52 37.6801 444.47 39.2201C444.42 40.2801 444.39 41.2501 444.36 42.1401C444.33 43.0301 444.32 43.9201 444.32 44.8001V47.4601C444.32 48.3501 444.34 49.3201 444.39 50.3801C444.34 51.2001 444.19 51.8901 443.92 52.4701C443.65 53.0501 443.19 53.7401 442.52 54.5601C441.75 54.9401 441.09 55.1701 440.54 55.2401C439.99 55.3101 439.23 55.2301 438.27 54.9901C437.69 54.8501 437.06 54.5501 436.36 54.0901C435.66 53.6301 435.03 53.2401 434.45 52.9001C434.07 52.6601 433.84 52.2901 433.77 51.7801C433.7 51.2801 433.69 50.7801 433.73 50.3001L436.25 31.0801C436.44 29.9301 436.54 28.7901 436.54 27.6601C436.54 26.5301 436.64 25.3501 436.83 24.1001C436.88 23.5701 437.02 23.0001 437.26 22.3701C437.5 21.7501 437.86 21.2901 438.34 21.0001C438.77 20.7101 439.26 20.5201 439.82 20.4201C440.37 20.3201 440.95 20.3001 441.55 20.3501C442.15 20.4001 442.74 20.5601 443.31 20.8201C443.89 21.0801 444.39 21.4301 444.82 21.8601C444.96 22.0001 445.08 22.2101 445.18 22.4701C445.28 22.7301 445.36 23.0101 445.43 23.3001C445.5 23.5901 445.56 23.8501 445.61 24.0901C445.66 24.3301 445.73 24.5001 445.83 24.5901C446.26 24.2601 446.75 24.0601 447.31 24.0101C447.86 23.9601 448.41 24.0001 448.97 24.1201C449.52 24.2401 450.03 24.4301 450.48 24.7001C450.93 24.9701 451.26 25.2401 451.45 25.5301C451.98 26.3001 452.39 27.1601 452.67 28.1201C452.95 29.0801 453.22 30.0201 453.46 30.9301L454.47 36.9801C454.61 36.4001 454.78 35.7801 454.97 35.1101C455.16 34.4401 455.37 33.7801 455.58 33.1301C455.8 32.4801 456.01 31.8801 456.23 31.3301C456.45 30.7801 456.63 30.3601 456.77 30.0701C457.39 28.8201 458.01 27.5701 458.61 26.3301C459.21 25.0801 459.87 23.8601 460.59 22.6601C461.45 21.2701 462.51 20.5101 463.76 20.3901C465.01 20.2701 466.11 20.9101 467.07 22.3001C468.12 23.9801 468.88 25.7301 469.34 27.5601C469.8 29.3801 470.1 31.2601 470.24 33.1801C470.48 36.2501 470.92 39.1201 471.57 41.7801C472.22 44.4401 473.02 47.2601 473.98 50.2401C474.22 50.9101 474.46 51.5601 474.7 52.1801C474.94 52.8001 475.16 53.3601 475.35 53.8401C475.25 54.5101 475.13 55.0101 474.99 55.3501C474.85 55.6801 474.61 55.9701 474.27 56.2101C474.13 56.3001 473.79 56.1401 473.26 55.7101C472.73 55.2801 472.28 54.8901 471.89 54.5601C471.22 53.9401 470.69 53.2201 470.31 52.4001C469.93 51.5801 469.64 50.7201 469.45 49.8101L467.22 38.2901C466.88 36.6601 466.54 34.9001 466.18 33.0001C465.82 31.1001 465.52 29.3201 465.28 27.6401C465.28 27.3501 465.14 26.9401 464.85 26.4201C463.99 27.9601 463.3 29.5501 462.8 31.2101C462.3 32.8701 461.88 34.2901 461.54 35.4901C461.2 36.7401 460.94 38.1101 460.75 39.5901C460.56 41.0801 460.25 42.4201 459.81 43.6201C459.62 44.2401 459.51 44.8601 459.49 45.4601C459.47 46.0601 459.48 46.6601 459.53 47.2601C459.58 47.8601 459.6 48.4501 459.6 49.0201C459.6 49.5901 459.53 50.1701 459.38 50.7501C458.47 50.8001 457.53 50.7601 456.57 50.6401C455.61 50.5201 454.72 50.3301 453.91 50.0601C453.09 49.8001 452.39 49.4701 451.79 49.0901C451.19 48.7101 450.82 48.2701 450.67 47.7901C450.53 47.3601 450.43 46.9301 450.38 46.4901C450.33 46.0601 450.38 45.6001 450.52 45.1201C450.62 44.6401 450.69 44.1601 450.74 43.6801C450.79 43.2001 450.76 42.7001 450.67 42.1701C450.53 41.5001 450.36 40.6701 450.17 39.6901C449.98 38.7101 449.79 37.6901 449.59 36.6301C449.4 35.5701 449.21 34.5201 449.01 33.4601C448.82 32.4001 448.63 31.4401 448.43 30.5801C448.33 30.1501 448.17 29.7901 447.93 29.5001C447.69 29.2101 447.28 29.0901 446.71 29.1401H446.7Z" fill="#010000"/>
<path d="M523.02 7.89984C523.31 7.84984 523.6 7.93984 523.88 8.14984C524.16 8.35984 524.41 8.56986 524.6 8.75986C525.27 9.52986 525.75 10.1198 526.04 10.5198C526.33 10.9298 526.62 11.3999 526.9 11.9199C527.14 12.5899 527.19 13.1798 527.04 13.6798C526.9 14.1798 526.44 14.5998 525.67 14.9398C525.43 15.1798 524.84 15.2799 523.91 15.2299C522.97 15.1799 522.17 15.2098 521.5 15.2998C520.39 15.5898 519.24 15.9398 518.04 16.3398C516.84 16.7498 515.83 17.3798 515.02 18.2498C514.78 18.5898 514.48 18.8598 514.12 19.0798C513.76 19.2998 513.44 19.5699 513.15 19.9099C512.19 20.8199 511.36 21.7298 510.67 22.6498C509.97 23.5598 509.29 24.5699 508.62 25.6699C508.09 26.3399 507.59 27.3298 507.11 28.6198C506.63 29.9198 506.32 31.3298 506.17 32.8698C506.07 34.0198 505.96 35.3898 505.85 36.9698C505.73 38.5498 505.72 39.9199 505.81 41.0699C505.86 42.1299 506.07 43.1198 506.46 44.0598C506.84 44.9998 507.32 45.8498 507.9 46.6198C508.48 47.3898 509.12 48.0098 509.84 48.4898C510.56 48.9698 511.3 49.2599 512.07 49.3499C513.03 49.4499 514.07 49.4499 515.2 49.3499C516.33 49.2499 517.48 49.0999 518.66 48.8799C519.84 48.6599 520.99 48.3798 522.12 48.0198C523.25 47.6598 524.29 47.2898 525.25 46.8998C525.92 46.5198 526.62 46.2498 527.34 46.1098C528.06 45.9698 528.83 45.9399 529.64 46.0399C530.65 46.0899 531.39 46.3498 531.87 46.8298C532.35 47.3098 532.83 48.0998 533.31 49.2098L528.63 51.8698C528.44 52.1098 528.22 52.2099 527.98 52.1599C525.68 52.8298 523.46 53.4298 521.32 53.9598C519.18 54.4898 516.87 54.7298 514.37 54.6798C512.83 54.6298 511.23 54.5198 509.55 54.3598C507.87 54.1898 506.24 53.7298 504.65 52.9598C502.97 52.0998 501.53 50.9998 500.33 49.6798C499.13 48.3598 498.27 46.6898 497.74 44.6798C497.6 43.9598 497.48 43.1598 497.38 42.2698C497.28 41.3798 497.2 40.4598 497.13 39.4998C497.06 38.5398 497.01 37.5998 496.99 36.6898C496.97 35.7799 496.98 34.9598 497.03 34.2398C497.13 32.9898 497.22 31.7398 497.32 30.4998C497.42 29.2498 497.58 27.9798 497.82 26.6798C497.87 25.6698 498.08 24.5898 498.47 23.4398C498.85 22.3398 499.43 21.1298 500.2 19.7998C500.97 18.4798 501.69 17.3399 502.36 16.3799C503.46 14.9399 504.89 13.5999 506.64 12.3499C508.39 11.0999 510.08 10.0698 511.72 9.24985C512.2 9.10985 512.79 8.94985 513.48 8.77985C514.18 8.60985 514.9 8.45984 515.64 8.30984C516.38 8.16984 517.1 8.02985 517.8 7.90985C518.5 7.78985 519.11 7.67984 519.64 7.58984L523.02 7.87985V7.89984Z" fill="#010000"/>
<path d="M544.83 8.10983C545.93 8.48983 547.05 8.80984 548.18 9.04984C549.31 9.28984 550.59 9.50986 552.03 9.69986C553.13 9.83986 554.38 10.2199 555.77 10.8199C557.16 11.4199 558.51 12.1798 559.8 13.0898C561.1 13.9998 562.24 14.9998 563.22 16.0798C564.2 17.1598 564.89 18.2798 565.27 19.4298C565.37 19.6698 565.47 19.9499 565.59 20.2599C565.71 20.5699 565.82 20.8999 565.91 21.2299C566.1 22.2399 566.19 23.4299 566.16 24.7899C566.13 26.1499 566.08 27.5598 565.98 28.9998C565.88 30.4398 565.75 31.8398 565.58 33.2098C565.41 34.5798 565.26 35.7698 565.11 36.7698C564.73 39.4098 563.97 41.9298 562.84 44.3298C561.71 46.7298 560.28 48.8599 558.56 50.6999C556.83 52.5499 554.86 53.9998 552.66 55.0598C550.45 56.1098 548.05 56.6199 545.46 56.5699C543.44 56.4699 541.78 55.8399 540.46 54.6599C539.14 53.4899 538 52.0099 537.04 50.2299C536.46 49.0799 536.06 47.7499 535.82 46.2299C535.58 44.7199 535.42 43.1499 535.35 41.5099C535.28 39.8799 535.27 38.2798 535.31 36.7198C535.36 35.1598 535.43 33.7599 535.53 32.5099C535.91 29.2999 536.54 26.0499 537.4 22.7899C538.26 19.5299 539.22 16.3099 540.28 13.1399C540.62 11.8899 541.2 10.7998 542.04 9.85983C542.88 8.91983 543.8 8.33985 544.81 8.09985L544.83 8.10983ZM548.79 17.9799C548.02 19.2299 547.3 20.4298 546.63 21.5798C545.96 22.7298 545.43 23.9799 545.05 25.3199C544.43 26.5699 543.9 28.1399 543.47 30.0399C543.04 31.9399 542.7 33.9098 542.46 35.9398C542.22 37.9799 542.11 39.9599 542.14 41.8799C542.16 43.7999 542.32 45.4298 542.61 46.7798C543.14 48.9398 544.18 50.2399 545.74 50.6699C547.3 51.0999 549.06 50.5998 551.03 49.1599C551.7 48.7299 552.27 48.2998 552.72 47.8598C553.17 47.4198 553.56 46.9698 553.87 46.4898C554.18 46.0098 554.45 45.4898 554.66 44.9398C554.88 44.3899 555.08 43.7498 555.27 43.0298C555.46 42.4098 555.65 41.5398 555.85 40.4398C556.04 39.3398 556.21 38.1398 556.35 36.8398C556.49 35.5398 556.6 34.2199 556.67 32.8799C556.74 31.5399 556.75 30.2899 556.71 29.1399C556.61 26.8399 555.97 24.7499 554.77 22.8799C553.57 21.0099 551.58 19.3799 548.79 17.9799Z" fill="#010000"/>
<path d="M602.58 8.39985C603.01 8.49985 603.42 8.61987 603.8 8.75987C604.18 8.89987 604.5 9.16984 604.74 9.54984C605.03 10.0798 605.07 10.5299 604.88 10.9199C604.69 11.2999 604.38 11.7099 603.94 12.1399C601.83 14.5899 599.84 17.0099 597.96 19.4099C597.53 19.9899 597.08 20.5898 596.63 21.2098C596.17 21.8298 595.71 22.4099 595.23 22.9399C594.85 23.3699 594.44 23.8799 594.01 24.4499C593.58 25.0299 593.17 25.5899 592.79 26.1399C592.41 26.6899 592.06 27.1999 591.75 27.6499C591.44 28.1098 591.21 28.4499 591.07 28.6899C591.79 30.2299 592.74 31.9998 593.91 34.0198C595.09 36.0398 596.36 38.1099 597.73 40.2499C599.1 42.3899 600.48 44.4499 601.87 46.4399C603.26 48.4299 604.53 50.1699 605.69 51.6599C606.07 52.1899 606.54 52.8399 607.09 53.5999C607.64 54.3699 608.13 54.9899 608.57 55.4699L610.08 57.3399C609.7 57.8699 609.3 58.2999 608.89 58.6399C608.48 58.9799 608.16 59.1899 607.92 59.2899C607.39 59.5799 606.78 59.6698 606.08 59.5798C605.38 59.4798 604.72 59.2899 604.1 58.9999C603.19 58.5199 602.3 57.8199 601.44 56.9099C600.58 55.9999 599.88 55.1299 599.35 54.3199C598.1 52.5399 596.9 50.6999 595.75 48.7799C594.6 46.8599 593.52 44.9599 592.51 43.0899C591.5 41.2199 590.61 39.3798 589.85 37.5798C589.08 35.7798 588.48 34.1098 588.05 32.5798L586.47 35.3899C585.17 37.2199 584.27 39.2199 583.77 41.3999C583.27 43.5899 582.77 45.8299 582.29 48.1299C582.19 48.9899 582.15 49.8898 582.15 50.8298V53.8899C581.81 54.4699 581.24 54.8899 580.42 55.1499C579.6 55.4099 578.86 55.4299 578.19 55.1899C576.41 54.6599 574.97 53.9999 573.87 53.2099C572.77 52.4198 572.26 51.5199 572.36 50.5099V41.7998C572.36 40.3598 572.37 38.8699 572.4 37.3399C572.42 35.7999 572.46 34.0999 572.51 32.2299C572.51 30.4099 572.52 28.3799 572.55 26.1499C572.57 23.9199 572.62 21.6499 572.69 19.3499C572.76 17.0499 572.82 14.7699 572.87 12.5099C572.92 10.2499 572.99 8.18986 573.09 6.31986C573.43 6.26986 573.88 6.21985 574.46 6.17985C575.04 6.13985 575.65 6.12985 576.3 6.17985C576.95 6.22985 577.56 6.29985 578.14 6.39985C578.72 6.49985 579.17 6.63984 579.51 6.82984C580.13 7.16984 580.45 7.61987 580.45 8.19987C580.74 9.58987 580.88 11.0099 580.88 12.4499C580.98 13.5999 581.04 14.9199 581.06 16.4099C581.08 17.8999 581.1 19.4199 581.1 20.9799V25.5498C581.1 27.0398 581.15 28.3798 581.24 29.5798V33.3199C581.53 32.8399 581.89 32.2599 582.32 31.5899C582.75 30.9199 583.21 30.2499 583.69 29.5699C584.17 28.8999 584.64 28.2599 585.09 27.6599C585.55 27.0599 585.92 26.5698 586.21 26.1798C586.93 25.2199 587.76 24.1399 588.69 22.9399C589.63 21.7399 590.56 20.5298 591.5 19.2998C592.44 18.0798 593.35 16.8499 594.24 15.6299C595.13 14.4099 595.91 13.2899 596.58 12.2799C596.91 11.7999 597.34 11.3098 597.84 10.7998C598.34 10.2898 598.84 9.87987 599.32 9.53987C599.99 9.05987 600.54 8.73986 600.98 8.56986C601.41 8.39986 601.96 8.33987 602.64 8.38987L602.58 8.39985Z" fill="#010000"/>
<path d="M617.62 8.10983C618.72 8.48983 619.84 8.80984 620.97 9.04984C622.1 9.28984 623.38 9.50986 624.82 9.69986C625.92 9.83986 627.17 10.2199 628.56 10.8199C629.95 11.4199 631.3 12.1798 632.59 13.0898C633.89 13.9998 635.03 14.9998 636.01 16.0798C636.99 17.1598 637.68 18.2798 638.06 19.4298C638.16 19.6698 638.26 19.9499 638.38 20.2599C638.5 20.5699 638.61 20.8999 638.7 21.2299C638.89 22.2399 638.98 23.4299 638.95 24.7899C638.92 26.1499 638.87 27.5598 638.77 28.9998C638.67 30.4398 638.54 31.8398 638.37 33.2098C638.2 34.5798 638.05 35.7698 637.9 36.7698C637.52 39.4098 636.76 41.9298 635.63 44.3298C634.5 46.7298 633.07 48.8599 631.35 50.6999C629.62 52.5499 627.65 53.9998 625.45 55.0598C623.24 56.1098 620.84 56.6199 618.25 56.5699C616.23 56.4699 614.57 55.8399 613.25 54.6599C611.93 53.4899 610.79 52.0099 609.83 50.2299C609.25 49.0799 608.85 47.7499 608.61 46.2299C608.37 44.7199 608.21 43.1499 608.14 41.5099C608.07 39.8799 608.06 38.2798 608.1 36.7198C608.15 35.1598 608.22 33.7599 608.32 32.5099C608.7 29.2999 609.33 26.0499 610.19 22.7899C611.05 19.5299 612.01 16.3099 613.07 13.1399C613.41 11.8899 613.99 10.7998 614.83 9.85983C615.67 8.91983 616.59 8.33985 617.6 8.09985L617.62 8.10983ZM621.58 17.9799C620.81 19.2299 620.09 20.4298 619.42 21.5798C618.75 22.7298 618.22 23.9799 617.84 25.3199C617.22 26.5699 616.69 28.1399 616.26 30.0399C615.83 31.9399 615.49 33.9098 615.25 35.9398C615.01 37.9799 614.9 39.9599 614.93 41.8799C614.95 43.7999 615.11 45.4298 615.4 46.7798C615.93 48.9398 616.97 50.2399 618.53 50.6699C620.09 51.0999 621.85 50.5998 623.82 49.1599C624.49 48.7299 625.06 48.2998 625.51 47.8598C625.96 47.4198 626.35 46.9698 626.66 46.4898C626.97 46.0098 627.24 45.4898 627.45 44.9398C627.67 44.3899 627.87 43.7498 628.06 43.0298C628.25 42.4098 628.44 41.5398 628.64 40.4398C628.83 39.3398 629 38.1398 629.14 36.8398C629.28 35.5398 629.39 34.2199 629.46 32.8799C629.53 31.5399 629.54 30.2899 629.5 29.1399C629.4 26.8399 628.76 24.7499 627.56 22.8799C626.36 21.0099 624.37 19.3799 621.58 17.9799Z" fill="#010000"/>
<path d="M661.47 38.8599C660.65 38.8099 659.93 38.5699 659.31 38.1399C658.69 37.7099 658.18 37.1899 657.8 36.5899C657.42 35.9899 657.16 35.3899 657.04 34.7899C656.92 34.1899 656.93 33.6699 657.08 33.2399C656.46 32.3799 655.81 31.3999 655.14 30.3199C654.47 29.2399 653.78 28.1399 653.09 27.0099C652.39 25.8799 651.73 24.7499 651.11 23.6299C650.49 22.4999 649.91 21.4799 649.38 20.5699C649.24 21.5299 649.14 22.5899 649.09 23.7399C649.04 24.8899 648.99 26.0599 648.95 27.2299C648.9 28.4099 648.88 29.5599 648.88 30.6899V33.6799C648.93 35.1699 648.99 36.7399 649.06 38.3999C649.13 40.0599 649.24 41.6999 649.38 43.3299C649.52 44.9599 649.71 46.5099 649.96 47.9699C650.2 49.4299 650.51 50.6899 650.9 51.7499C650.9 52.2799 650.8 52.7099 650.61 53.0499C650.42 53.3899 650.17 53.6599 649.85 53.8799C649.54 54.0999 649.2 54.2399 648.84 54.3099C648.48 54.3799 648.13 54.4399 647.8 54.4899C646.6 53.4399 645.81 52.3599 645.42 51.2499C645.04 50.1499 644.72 48.8299 644.48 47.2899C644.14 45.4199 643.89 43.6699 643.72 42.0299C643.55 40.3999 643.43 38.7699 643.36 37.1299C643.29 35.4899 643.28 33.8499 643.32 32.1999C643.37 30.5399 643.44 28.7599 643.54 26.8399C643.64 25.7799 643.76 24.5799 643.9 23.2399C644.04 21.8999 644.21 20.6099 644.4 19.3899C644.59 18.1699 644.81 17.0699 645.05 16.1099C645.29 15.1499 645.55 14.5499 645.84 14.3099C646.51 13.6899 647.3 13.2799 648.22 13.0899C649.13 12.8999 650.03 12.8399 650.92 12.9099C651.81 12.9799 652.59 13.1599 653.26 13.4499C653.93 13.7399 654.36 14.0699 654.56 14.4599C654.7 14.8899 654.88 15.3199 655.1 15.7599C655.32 16.1899 655.47 16.5299 655.57 16.7699C655.86 17.2999 656.25 18.0099 656.76 18.8899C657.26 19.7799 657.8 20.7099 658.38 21.6999C658.96 22.6799 659.56 23.6699 660.18 24.6499C660.8 25.6299 661.4 26.5099 661.98 27.2799C663.13 26.1299 664.54 24.4999 666.19 22.3799C667.85 20.2699 669.51 18.0399 671.19 15.6799C672.29 14.1399 673.24 12.8799 674.03 11.8999C674.82 10.9199 675.7 9.93989 676.66 8.97989C677.09 8.54989 677.46 8.11987 677.78 7.67987C678.09 7.24987 678.42 6.76987 678.75 6.23987C679.57 5.90987 680.39 5.85988 681.23 6.09988C682.07 6.33988 682.8 6.77987 683.43 7.42987C684.05 8.07987 684.52 8.86987 684.83 9.80987C685.14 10.7499 685.2 11.7199 685.01 12.7299C684.77 13.7399 684.71 14.8999 684.83 16.2199C684.95 17.5399 685.06 18.7799 685.15 19.9299C685.25 20.8399 685.35 21.9499 685.47 23.2399C685.59 24.5399 685.7 25.8699 685.79 27.2399C685.89 28.6099 685.97 29.9499 686.04 31.2699C686.11 32.5899 686.15 33.7499 686.15 34.7599C686.2 35.8199 686.27 37.0999 686.37 38.6099C686.47 40.1199 686.57 41.6699 686.69 43.2499C686.81 44.8299 686.94 46.3799 687.09 47.8899C687.23 49.3999 687.35 50.6599 687.45 51.6699C687.55 52.1499 687.63 52.7499 687.7 53.4699C687.77 54.1899 687.83 54.8599 687.88 55.4899C687.93 56.1599 687.75 56.8299 687.34 57.5099C686.93 58.1799 686.49 58.7099 686.01 59.0899C685.87 59.2299 685.6 59.3499 685.22 59.4499C684.84 59.5499 684.43 59.6299 684 59.6999C683.57 59.7699 683.15 59.8199 682.74 59.8399C682.33 59.8599 682.03 59.8799 681.84 59.8799C681.65 59.8299 681.38 59.7599 681.05 59.6599C680.71 59.5599 680.38 59.4399 680.04 59.2999C679.7 59.1599 679.4 58.9599 679.14 58.7199C678.88 58.4799 678.74 58.1699 678.74 57.7799C678.84 56.8199 678.86 55.8099 678.81 54.7599C678.76 53.6999 678.74 52.6299 678.74 51.5199C678.74 50.6999 678.73 49.7899 678.7 48.7799C678.68 47.7699 678.64 46.8799 678.59 46.1199C678.3 42.1799 678.15 38.1399 678.12 33.9899C678.1 29.8399 677.82 25.7199 677.29 21.6399C676.62 23.0299 675.93 24.2099 675.24 25.1699C674.54 26.1299 673.72 27.1399 672.76 28.1899C671.85 29.2999 671.08 30.1699 670.46 30.8199C669.84 31.4699 669.26 32.0599 668.73 32.5799C668.2 33.1099 667.67 33.6999 667.15 34.3399C666.62 34.9899 666.07 35.6099 665.49 36.2099C664.91 36.8099 664.29 37.3499 663.62 37.8299C662.95 38.3099 662.23 38.6499 661.46 38.8399L661.47 38.8599Z" fill="#010000"/>
<path d="M701.79 8.10983C702.89 8.48983 704.01 8.80984 705.14 9.04984C706.27 9.28984 707.55 9.50986 708.99 9.69986C710.09 9.83986 711.34 10.2199 712.73 10.8199C714.12 11.4199 715.47 12.1798 716.76 13.0898C718.06 13.9998 719.2 14.9998 720.18 16.0798C721.16 17.1598 721.85 18.2798 722.23 19.4298C722.33 19.6698 722.43 19.9499 722.55 20.2599C722.67 20.5699 722.78 20.8999 722.87 21.2299C723.06 22.2399 723.15 23.4299 723.12 24.7899C723.1 26.1599 723.04 27.5598 722.94 28.9998C722.84 30.4398 722.71 31.8398 722.54 33.2098C722.37 34.5798 722.22 35.7698 722.07 36.7698C721.69 39.4098 720.93 41.9298 719.8 44.3298C718.67 46.7298 717.24 48.8599 715.52 50.6999C713.79 52.5499 711.82 53.9998 709.62 55.0598C707.41 56.1098 705.01 56.6199 702.42 56.5699C700.4 56.4699 698.74 55.8399 697.42 54.6599C696.1 53.4899 694.96 52.0099 694 50.2299C693.42 49.0799 693.02 47.7499 692.78 46.2299C692.54 44.7199 692.38 43.1499 692.31 41.5099C692.24 39.8799 692.23 38.2798 692.27 36.7198C692.32 35.1598 692.39 33.7599 692.49 32.5099C692.87 29.2999 693.5 26.0499 694.36 22.7899C695.22 19.5299 696.18 16.3099 697.24 13.1399C697.57 11.8899 698.16 10.7998 699 9.85983C699.84 8.91983 700.76 8.33985 701.77 8.09985L701.79 8.10983ZM705.75 17.9799C704.98 19.2299 704.26 20.4298 703.59 21.5798C702.92 22.7298 702.39 23.9799 702.01 25.3199C701.39 26.5699 700.86 28.1399 700.43 30.0399C700 31.9399 699.66 33.9098 699.42 35.9398C699.18 37.9799 699.07 39.9599 699.1 41.8799C699.12 43.7999 699.28 45.4298 699.57 46.7798C700.1 48.9398 701.14 50.2399 702.7 50.6699C704.26 51.0999 706.02 50.5998 707.99 49.1599C708.66 48.7299 709.23 48.2998 709.68 47.8598C710.14 47.4298 710.52 46.9698 710.83 46.4898C711.14 46.0098 711.41 45.4898 711.62 44.9398C711.84 44.3899 712.04 43.7498 712.23 43.0298C712.42 42.4098 712.61 41.5398 712.81 40.4398C713 39.3398 713.17 38.1398 713.31 36.8398C713.45 35.5398 713.56 34.2199 713.63 32.8799C713.7 31.5399 713.71 30.2899 713.67 29.1399C713.57 26.8399 712.92 24.7499 711.73 22.8799C710.53 21.0099 708.54 19.3799 705.75 17.9799Z" fill="#010000"/>
<path d="M735.63 21.5C735.44 22.27 735.25 23.42 735.05 24.96C734.86 26.5 734.65 28.19 734.44 30.04C734.22 31.89 734.01 33.81 733.79 35.8C733.57 37.79 733.38 39.65 733.21 41.38C733.04 43.11 732.9 44.62 732.78 45.92C732.66 47.22 732.6 48.08 732.6 48.51C732.55 49.42 732.44 50.25 732.28 50.99C732.11 51.74 731.84 52.35 731.45 52.83C731.07 53.31 730.57 53.65 729.97 53.84C729.37 54.03 728.61 54.03 727.7 53.84C727.56 53.26 727.47 52.27 727.45 50.85C727.42 49.43 727.45 47.83 727.52 46.03C727.59 44.23 727.69 42.3 727.81 40.23C727.93 38.17 728.07 36.17 728.24 34.25C728.41 32.33 728.57 30.57 728.74 28.96C728.91 27.35 729.09 26.07 729.28 25.11C729.52 23.81 729.7 22.54 729.82 21.29C729.94 20.04 729.81 18.77 729.42 17.47C729.04 16.17 729.54 15.29 730.93 14.81C731.75 14.38 732.62 13.99 733.56 13.66C734.5 13.33 735.47 12.94 736.48 12.51C736.86 13.18 737.28 14 737.74 14.96C738.2 15.92 738.71 16.86 739.29 17.77C739.87 18.87 740.39 19.93 740.87 20.94C741.35 21.95 741.97 23.32 742.74 25.04C743.6 27.06 744.61 29.23 745.76 31.56C746.91 33.89 747.97 36.06 748.93 38.08C749.17 38.46 749.4 38.91 749.61 39.41C749.82 39.91 750.08 40.38 750.37 40.81C750.61 40.43 750.79 39.99 750.91 39.51C751.03 39.03 751.11 38.67 751.16 38.43C751.45 37.09 751.77 35.45 752.13 33.53C752.49 31.61 752.83 29.65 753.14 27.66C753.45 25.67 753.76 23.73 754.08 21.83C754.39 19.93 754.67 18.34 754.91 17.04C755.01 16.22 755.15 15.47 755.34 14.77C755.53 14.07 755.67 13.32 755.77 12.5C755.86 12.02 755.95 11.47 756.02 10.84C756.09 10.22 756.13 9.73998 756.13 9.39998C756.08 8.72998 756.2 8.08998 756.49 7.48998C756.78 6.88998 757.21 6.51998 757.79 6.36998C758.22 6.26998 758.83 6.17997 759.63 6.07997C760.42 5.97997 761.01 5.96 761.39 6.01C762.4 6.11 763.43 6.32999 764.49 6.68999C765.54 7.04999 766.24 7.44999 766.58 7.87999C767.01 8.16999 767.23 8.72999 767.23 9.56999C767.23 10.41 767.11 11.05 766.87 11.48C766.15 12.3 765.67 13.17 765.43 14.11C765.19 15.05 764.93 16.14 764.64 17.39C764.4 18.35 764.09 19.8 763.7 21.75C763.32 23.69 762.91 25.75 762.48 27.91C762.05 30.07 761.64 32.13 761.26 34.1C760.88 36.07 760.56 37.56 760.32 38.56C760.18 39.18 760.01 40.04 759.82 41.12C759.63 42.2 759.44 43.32 759.24 44.47C759.05 45.62 758.88 46.71 758.74 47.75C758.6 48.78 758.5 49.54 758.45 50.02C758.64 50.45 758.63 50.94 758.41 51.5C758.19 52.05 757.89 52.58 757.51 53.08C757.13 53.58 756.71 54.03 756.25 54.41C755.79 54.79 755.4 55.06 755.06 55.2C753.72 54.86 752.42 54.19 751.17 53.18C749.92 52.17 748.99 51.19 748.36 50.23C747.83 49.51 747.4 48.83 747.06 48.18C746.72 47.53 746.34 46.8 745.91 45.98C745.48 45.12 745.11 44.34 744.79 43.64C744.48 42.94 744.18 42.27 743.89 41.62C743.6 40.97 743.3 40.3 742.99 39.6C742.68 38.9 742.35 38.12 742.02 37.26L736.76 25.16C736.62 24.73 736.42 24.2 736.18 23.58C735.94 22.96 735.75 22.26 735.6 21.49L735.63 21.5Z" fill="#010000"/>
<path d="M800 22.37C799.57 22.23 799.23 22.08 798.99 21.94C798.75 21.8 798.55 21.63 798.38 21.44C798.21 21.25 798.06 21.04 797.91 20.83C797.77 20.61 797.57 20.36 797.33 20.07C797.04 19.54 796.8 18.98 796.61 18.38C796.42 17.78 796.2 17.19 795.96 16.62C795.53 15.66 794.7 14.83 793.48 14.14C792.26 13.44 790.88 13.22 789.34 13.46C788.09 13.7 787.12 14.1 786.42 14.65C785.72 15.2 785.04 16.01 784.37 17.06C783.84 18.16 783.34 19.14 782.86 19.98C782.38 20.82 782.07 21.74 781.92 22.75C781.54 25.25 781.21 27.73 780.95 30.2C780.69 32.67 780.87 35.18 781.49 37.72C781.83 39.3 782.28 40.82 782.86 42.26C783.44 43.7 784.2 45.09 785.16 46.44C785.69 47.11 786.53 47.71 787.68 48.24C788.83 48.77 789.91 49.15 790.92 49.39C791.35 49.49 791.81 49.5 792.29 49.43C792.77 49.36 793.2 49.23 793.59 49.03C794.64 48.5 795.71 47.78 796.79 46.87C797.87 45.96 798.7 44.97 799.27 43.92C799.51 42.19 799.64 40.28 799.67 38.2C799.69 36.11 799.75 34.06 799.85 32.04C799.51 32.18 799.1 32.34 798.63 32.51C798.15 32.68 797.67 32.86 797.19 33.05C796.71 33.24 796.25 33.41 795.82 33.55C795.39 33.69 795.05 33.81 794.81 33.91C794.09 34.15 793.44 34.27 792.87 34.27C792.29 34.32 791.78 34.2 791.32 33.91C790.86 33.62 790.44 33.33 790.06 33.05C789.63 32.67 789.28 32.13 789.02 31.43C788.76 30.73 788.67 30.15 788.77 29.67C789.15 29.34 789.49 29.05 789.78 28.81C790.07 28.57 790.4 28.38 790.79 28.23C791.8 27.9 792.67 27.58 793.42 27.29C794.17 27 794.85 26.77 795.47 26.61C796.09 26.44 796.68 26.3 797.23 26.18C797.78 26.06 798.39 25.98 799.07 25.93C800.08 25.74 801.11 25.62 802.17 25.57C803.23 25.52 804.28 25.45 805.34 25.35C805.82 25.3 806.23 25.28 806.56 25.28H807.46C807.72 25.28 808 25.3 808.29 25.35C808.58 25.4 808.91 25.45 809.3 25.49C809.59 25.63 809.83 25.86 810.02 26.17C810.21 26.48 810.32 26.83 810.34 27.21C810.36 27.59 810.29 27.97 810.12 28.33C809.95 28.69 809.68 28.97 809.29 29.16C808.67 29.4 807.99 29.56 807.27 29.63C806.55 29.7 805.78 29.86 804.97 30.1C804.73 30.2 804.45 30.28 804.14 30.35C803.83 30.42 803.62 30.51 803.53 30.6C803.63 32.43 803.76 34.48 803.93 36.76C804.1 39.04 804.21 41.09 804.25 42.92C804.25 44.36 804.01 45.66 803.53 46.81C803.05 47.96 802.44 48.98 801.69 49.87C800.94 50.76 800.14 51.53 799.28 52.17C798.42 52.82 797.6 53.36 796.83 53.79C796.59 53.93 796.3 54.11 795.97 54.33C795.63 54.55 795.3 54.7 794.96 54.8C794.14 55.09 793.31 55.33 792.48 55.52C791.64 55.71 790.81 55.9 790 56.1C789.71 56.15 789.4 56.14 789.06 56.06C788.72 55.99 788.39 55.9 788.05 55.81C786.71 55.43 785.34 54.93 783.95 54.33C782.56 53.73 781.45 53.09 780.64 52.42C778.58 50.64 776.79 48.72 775.28 46.66C773.77 44.6 772.7 42.2 772.08 39.46C771.89 38.26 771.68 37.05 771.47 35.82C771.25 34.6 771.1 33.36 771 32.11C770.76 29.37 770.77 26.83 771.04 24.48C771.3 22.13 771.89 19.66 772.8 17.06C773.57 15.76 774.46 14.47 775.46 13.17C776.46 11.87 777.58 10.69 778.81 9.60998C780.03 8.52998 781.34 7.58998 782.73 6.79998C784.12 6.00998 785.61 5.46999 787.19 5.17999C787.67 5.12999 788.24 5.17 788.92 5.29C789.59 5.41 790.29 5.57 791.01 5.76C791.73 5.95 792.43 6.15999 793.1 6.36999C793.77 6.58999 794.35 6.79 794.83 6.98C796.37 7.6 797.57 8.33999 798.43 9.17999C799.29 10.02 800.09 11.35 800.81 13.18C801.24 14.28 801.6 15.33 801.89 16.31C802.18 17.29 802.37 18.1 802.47 18.72C802.52 19.1 802.46 19.49 802.29 19.87C802.12 20.25 801.91 20.62 801.64 20.95C801.38 21.29 801.09 21.57 800.78 21.81C800.47 22.05 800.21 22.24 800.02 22.39L800 22.37Z" fill="#010000"/>
<path d="M824.19 58.8698C824.09 59.4898 823.76 59.8998 823.18 60.0898C822.65 60.4698 822.1 60.7098 821.52 60.8098C820.94 60.9098 820.25 60.7599 819.43 60.3799C817.6 59.6099 816.6 58.5099 816.41 57.0699C816.36 56.6899 816.37 56.1798 816.45 55.5598C816.52 54.9398 816.65 54.2798 816.85 53.5798C817.04 52.8898 817.26 52.2098 817.5 51.5598C817.74 50.9098 818 50.3699 818.29 49.9398H819.77C820.32 49.9398 820.89 49.9898 821.46 50.0798C822.18 50.0798 822.78 50.1298 823.26 50.2198C823.74 50.3198 823.98 50.6998 823.98 51.3698V52.4499C823.98 52.7899 823.93 53.1498 823.84 53.5298C823.84 54.0098 823.83 54.4698 823.8 54.8998C823.78 55.3298 823.79 55.7898 823.84 56.2698C823.84 56.6498 823.88 57.0498 823.95 57.4598C824.02 57.8698 824.11 58.3398 824.2 58.8598L824.19 58.8698ZM821.09 7.09985C821.71 7.14985 822.36 7.15986 823.03 7.13986C823.7 7.11986 824.3 7.19986 824.83 7.38986C825.31 7.57986 825.9 7.76985 826.59 7.96985C827.28 8.15985 827.95 8.39985 828.57 8.68985C829.19 8.97985 829.72 9.35984 830.15 9.83984C830.58 10.3198 830.8 10.9398 830.8 11.7098C830.75 13.9198 830.56 16.1699 830.22 18.4799C829.88 20.7799 829.5 23.0198 829.07 25.1798C828.78 26.5198 828.43 27.8798 828.03 29.2498C827.62 30.6198 827.2 31.9999 826.77 33.3899C826.34 34.7799 825.93 36.1598 825.55 37.5298C825.17 38.8998 824.85 40.2298 824.61 41.5298C824.51 42.1498 824.29 42.7798 823.93 43.3998C823.57 44.0198 823.05 44.5299 822.38 44.9099C821.9 45.0098 821.3 45.0498 820.58 45.0498C819.86 45.0498 819.36 44.9499 819.07 44.7599C818.78 44.5199 818.54 44.1398 818.35 43.6098C818.16 43.0798 818 42.4698 817.88 41.7698C817.76 41.0698 817.69 40.3299 817.66 39.5399C817.64 38.7499 817.65 37.9699 817.7 37.1999C817.89 34.9499 818.01 33.0999 818.06 31.6599C818.11 30.2199 818.2 28.7299 818.35 27.1999C818.59 24.3199 818.84 21.6199 819.11 19.0999C819.37 16.5799 819.79 13.9498 820.37 11.2198C820.51 10.5498 820.63 9.88984 820.73 9.23984C820.83 8.58984 820.95 7.87984 821.09 7.11984V7.09985Z" fill="#010000"/>
</svg>
