<svg width="445" height="38" viewBox="0 0 445 38" fill="none" xmlns="http://www.w3.org/2000/svg">
<path d="M73.3523 12.8239V10.6364H88.625V12.8239H82.2216V31H79.7557V12.8239H73.3523ZM94.4592 21.8125V31H92.1126V10.6364H94.4592V18.1136H94.658C95.016 17.3248 95.5529 16.6984 96.2688 16.2344C96.9914 15.7637 97.9525 15.5284 99.1523 15.5284C100.193 15.5284 101.105 15.7372 101.887 16.1548C102.669 16.5658 103.275 17.1989 103.706 18.054C104.144 18.9025 104.363 19.983 104.363 21.2955V31H102.016V21.4545C102.016 20.2415 101.701 19.3035 101.071 18.6406C100.448 17.9711 99.5832 17.6364 98.4762 17.6364C97.7073 17.6364 97.0179 17.7988 96.408 18.1236C95.8048 18.4484 95.3275 18.9223 94.9762 19.5455C94.6315 20.1686 94.4592 20.9242 94.4592 21.8125ZM115.059 31.3182C113.587 31.3182 112.318 30.9934 111.251 30.3438C110.19 29.6875 109.371 28.7727 108.795 27.5994C108.225 26.4195 107.94 25.0473 107.94 23.483C107.94 21.9186 108.225 20.5398 108.795 19.3466C109.371 18.1468 110.174 17.2121 111.201 16.5426C112.235 15.8665 113.442 15.5284 114.82 15.5284C115.616 15.5284 116.401 15.661 117.177 15.9261C117.952 16.1913 118.658 16.6222 119.295 17.2188C119.931 17.8087 120.438 18.5909 120.816 19.5653C121.194 20.5398 121.383 21.7396 121.383 23.1648V24.1591H109.61V22.1307H118.996C118.996 21.2689 118.824 20.5 118.479 19.8239C118.141 19.1477 117.657 18.6141 117.028 18.223C116.405 17.8319 115.669 17.6364 114.82 17.6364C113.886 17.6364 113.077 17.8684 112.394 18.3324C111.718 18.7898 111.198 19.3864 110.833 20.1222C110.469 20.858 110.286 21.6468 110.286 22.4886V23.8409C110.286 24.9943 110.485 25.9721 110.883 26.7741C111.287 27.5696 111.847 28.1761 112.563 28.5938C113.279 29.0047 114.111 29.2102 115.059 29.2102C115.675 29.2102 116.232 29.1241 116.729 28.9517C117.233 28.7727 117.667 28.5076 118.032 28.1562C118.397 27.7983 118.678 27.3542 118.877 26.8239L121.144 27.4602C120.906 28.2292 120.504 28.9053 119.941 29.4886C119.378 30.0653 118.682 30.5161 117.853 30.8409C117.024 31.1591 116.093 31.3182 115.059 31.3182ZM139.43 31H133.146V10.6364H139.708C141.683 10.6364 143.374 11.044 144.779 11.8594C146.184 12.6681 147.262 13.8314 148.011 15.3494C148.76 16.8608 149.134 18.6705 149.134 20.7784C149.134 22.8996 148.756 24.7259 148.001 26.2571C147.245 27.7817 146.145 28.955 144.7 29.777C143.254 30.5923 141.498 31 139.43 31ZM135.612 28.8125H139.271C140.954 28.8125 142.35 28.4877 143.457 27.8381C144.564 27.1884 145.389 26.2637 145.933 25.0639C146.476 23.8641 146.748 22.4356 146.748 20.7784C146.748 19.1345 146.479 17.7192 145.942 16.5327C145.406 15.3395 144.603 14.4247 143.536 13.7884C142.469 13.1454 141.14 12.8239 139.549 12.8239H135.612V28.8125ZM152.952 31V15.7273H155.219V18.0341H155.379C155.657 17.2784 156.161 16.6652 156.89 16.1946C157.619 15.724 158.441 15.4886 159.356 15.4886C159.528 15.4886 159.744 15.4919 160.002 15.4986C160.261 15.5052 160.456 15.5152 160.589 15.5284V17.9148C160.509 17.8949 160.327 17.8651 160.042 17.8253C159.763 17.7789 159.469 17.7557 159.157 17.7557C158.415 17.7557 157.752 17.9115 157.168 18.223C156.592 18.5279 156.134 18.9522 155.796 19.4957C155.465 20.0327 155.299 20.6458 155.299 21.3352V31H152.952ZM169.309 31.3182C167.837 31.3182 166.568 30.9934 165.501 30.3438C164.44 29.6875 163.621 28.7727 163.045 27.5994C162.475 26.4195 162.19 25.0473 162.19 23.483C162.19 21.9186 162.475 20.5398 163.045 19.3466C163.621 18.1468 164.424 17.2121 165.451 16.5426C166.485 15.8665 167.692 15.5284 169.07 15.5284C169.866 15.5284 170.651 15.661 171.427 15.9261C172.202 16.1913 172.908 16.6222 173.545 17.2188C174.181 17.8087 174.688 18.5909 175.066 19.5653C175.444 20.5398 175.633 21.7396 175.633 23.1648V24.1591H163.86V22.1307H173.246C173.246 21.2689 173.074 20.5 172.729 19.8239C172.391 19.1477 171.907 18.6141 171.278 18.223C170.655 17.8319 169.919 17.6364 169.07 17.6364C168.136 17.6364 167.327 17.8684 166.644 18.3324C165.968 18.7898 165.448 19.3864 165.083 20.1222C164.719 20.858 164.536 21.6468 164.536 22.4886V23.8409C164.536 24.9943 164.735 25.9721 165.133 26.7741C165.537 27.5696 166.097 28.1761 166.813 28.5938C167.529 29.0047 168.361 29.2102 169.309 29.2102C169.925 29.2102 170.482 29.1241 170.979 28.9517C171.483 28.7727 171.917 28.5076 172.282 28.1562C172.647 27.7983 172.928 27.3542 173.127 26.8239L175.394 27.4602C175.156 28.2292 174.754 28.9053 174.191 29.4886C173.628 30.0653 172.932 30.5161 172.103 30.8409C171.274 31.1591 170.343 31.3182 169.309 31.3182ZM183.697 31.358C182.729 31.358 181.851 31.1757 181.062 30.8111C180.273 30.4399 179.647 29.9062 179.183 29.2102C178.719 28.5076 178.487 27.6591 178.487 26.6648C178.487 25.7898 178.659 25.0805 179.004 24.5369C179.348 23.9867 179.809 23.5559 180.386 23.2443C180.962 22.9328 181.599 22.7008 182.295 22.5483C182.997 22.3892 183.703 22.2633 184.413 22.1705C185.341 22.0511 186.093 21.9616 186.67 21.902C187.253 21.8357 187.677 21.7263 187.942 21.5739C188.214 21.4214 188.35 21.1562 188.35 20.7784V20.6989C188.35 19.7178 188.082 18.9555 187.545 18.4119C187.014 17.8684 186.209 17.5966 185.129 17.5966C184.008 17.5966 183.13 17.8419 182.494 18.3324C181.857 18.8229 181.41 19.3466 181.151 19.9034L178.924 19.108C179.322 18.1799 179.852 17.4574 180.515 16.9403C181.184 16.4167 181.914 16.0521 182.702 15.8466C183.498 15.6345 184.28 15.5284 185.049 15.5284C185.54 15.5284 186.103 15.5881 186.739 15.7074C187.382 15.8201 188.002 16.0554 188.599 16.4134C189.202 16.7713 189.702 17.3116 190.1 18.0341C190.498 18.7566 190.697 19.7244 190.697 20.9375V31H188.35V28.9318H188.231C188.072 29.2633 187.807 29.6179 187.435 29.9957C187.064 30.3736 186.57 30.6951 185.954 30.9602C185.337 31.2254 184.585 31.358 183.697 31.358ZM184.055 29.25C184.983 29.25 185.765 29.0677 186.401 28.7031C187.044 28.3385 187.528 27.8679 187.853 27.2912C188.184 26.7145 188.35 26.108 188.35 25.4716V23.3239C188.251 23.4432 188.032 23.5526 187.694 23.652C187.362 23.7448 186.978 23.8277 186.54 23.9006C186.11 23.9669 185.689 24.0265 185.278 24.0795C184.873 24.1259 184.545 24.1657 184.293 24.1989C183.683 24.2784 183.113 24.4077 182.583 24.5866C182.059 24.759 181.635 25.0208 181.31 25.3722C180.992 25.7169 180.833 26.1875 180.833 26.7841C180.833 27.5994 181.135 28.2159 181.738 28.6335C182.348 29.0445 183.12 29.25 184.055 29.25ZM194.98 31V15.7273H197.247V18.1136H197.446C197.764 17.2983 198.278 16.6652 198.987 16.2145C199.696 15.7571 200.548 15.5284 201.542 15.5284C202.55 15.5284 203.388 15.7571 204.058 16.2145C204.734 16.6652 205.261 17.2983 205.639 18.1136H205.798C206.189 17.3248 206.776 16.6984 207.558 16.2344C208.34 15.7637 209.278 15.5284 210.372 15.5284C211.737 15.5284 212.854 15.956 213.723 16.8111C214.591 17.6596 215.025 18.982 215.025 20.7784V31H212.679V20.7784C212.679 19.6515 212.37 18.8461 211.754 18.3622C211.137 17.8783 210.412 17.6364 209.576 17.6364C208.502 17.6364 207.671 17.9612 207.081 18.6108C206.491 19.2538 206.196 20.0691 206.196 21.0568V31H203.809V20.5398C203.809 19.6714 203.528 18.9721 202.964 18.4418C202.401 17.9048 201.675 17.6364 200.787 17.6364C200.177 17.6364 199.607 17.7988 199.076 18.1236C198.553 18.4484 198.128 18.8991 197.804 19.4759C197.485 20.0459 197.326 20.7055 197.326 21.4545V31H194.98ZM238.645 15.7273C238.526 14.7197 238.042 13.9375 237.194 13.3807C236.345 12.8239 235.304 12.5455 234.071 12.5455C233.17 12.5455 232.381 12.6913 231.705 12.983C231.035 13.2746 230.512 13.6757 230.134 14.1861C229.763 14.6965 229.577 15.2765 229.577 15.9261C229.577 16.4697 229.706 16.937 229.965 17.3281C230.23 17.7126 230.568 18.0341 230.979 18.2926C231.39 18.5445 231.821 18.7533 232.272 18.919C232.722 19.0781 233.137 19.2074 233.515 19.3068L235.583 19.8636C236.113 20.0028 236.703 20.1951 237.353 20.4403C238.009 20.6856 238.635 21.0204 239.232 21.4446C239.835 21.8622 240.332 22.3991 240.723 23.0554C241.114 23.7116 241.31 24.517 241.31 25.4716C241.31 26.572 241.022 27.5663 240.445 28.4545C239.875 29.3428 239.04 30.0488 237.939 30.5724C236.846 31.0961 235.516 31.358 233.952 31.358C232.494 31.358 231.231 31.1226 230.164 30.652C229.103 30.1813 228.268 29.5251 227.658 28.6832C227.055 27.8414 226.713 26.8636 226.634 25.75H229.179C229.246 26.5189 229.504 27.1553 229.955 27.6591C230.412 28.1562 230.989 28.5275 231.685 28.7727C232.388 29.0114 233.143 29.1307 233.952 29.1307C234.893 29.1307 235.739 28.9782 236.488 28.6733C237.237 28.3617 237.83 27.9309 238.267 27.3807C238.705 26.8239 238.924 26.1742 238.924 25.4318C238.924 24.7557 238.735 24.2055 238.357 23.7812C237.979 23.357 237.482 23.0123 236.865 22.7472C236.249 22.482 235.583 22.25 234.867 22.0511L232.361 21.3352C230.77 20.8778 229.511 20.2249 228.583 19.3764C227.655 18.5279 227.191 17.4176 227.191 16.0455C227.191 14.9053 227.499 13.911 228.115 13.0625C228.739 12.2074 229.574 11.5445 230.621 11.0739C231.675 10.5966 232.852 10.358 234.151 10.358C235.463 10.358 236.63 10.5933 237.651 11.0639C238.672 11.5279 239.48 12.1643 240.077 12.973C240.68 13.7817 240.998 14.6998 241.032 15.7273H238.645ZM251.45 31.3182C249.978 31.3182 248.709 30.9934 247.641 30.3438C246.581 29.6875 245.762 28.7727 245.185 27.5994C244.615 26.4195 244.33 25.0473 244.33 23.483C244.33 21.9186 244.615 20.5398 245.185 19.3466C245.762 18.1468 246.564 17.2121 247.592 16.5426C248.626 15.8665 249.832 15.5284 251.211 15.5284C252.006 15.5284 252.792 15.661 253.567 15.9261C254.343 16.1913 255.049 16.6222 255.685 17.2188C256.322 17.8087 256.829 18.5909 257.207 19.5653C257.585 20.5398 257.773 21.7396 257.773 23.1648V24.1591H246.001V22.1307H255.387C255.387 21.2689 255.215 20.5 254.87 19.8239C254.532 19.1477 254.048 18.6141 253.418 18.223C252.795 17.8319 252.059 17.6364 251.211 17.6364C250.276 17.6364 249.468 17.8684 248.785 18.3324C248.109 18.7898 247.588 19.3864 247.224 20.1222C246.859 20.858 246.677 21.6468 246.677 22.4886V23.8409C246.677 24.9943 246.876 25.9721 247.273 26.7741C247.678 27.5696 248.238 28.1761 248.954 28.5938C249.67 29.0047 250.502 29.2102 251.45 29.2102C252.066 29.2102 252.623 29.1241 253.12 28.9517C253.624 28.7727 254.058 28.5076 254.423 28.1562C254.787 27.7983 255.069 27.3542 255.268 26.8239L257.535 27.4602C257.296 28.2292 256.895 28.9053 256.332 29.4886C255.768 30.0653 255.072 30.5161 254.244 30.8409C253.415 31.1591 252.484 31.3182 251.45 31.3182ZM263.69 10.6364V31H261.343V10.6364H263.69ZM270.334 10.6364V31H267.988V10.6364H270.334ZM274.632 31V15.7273H276.979V31H274.632ZM275.825 13.1818C275.368 13.1818 274.973 13.026 274.642 12.7145C274.317 12.4029 274.155 12.0284 274.155 11.5909C274.155 11.1534 274.317 10.7789 274.642 10.4673C274.973 10.1558 275.368 10 275.825 10C276.283 10 276.674 10.1558 276.999 10.4673C277.33 10.7789 277.496 11.1534 277.496 11.5909C277.496 12.0284 277.33 12.4029 276.999 12.7145C276.674 13.026 276.283 13.1818 275.825 13.1818ZM283.623 21.8125V31H281.277V15.7273H283.544V18.1136H283.743C284.1 17.3381 284.644 16.715 285.373 16.2443C286.102 15.767 287.044 15.5284 288.197 15.5284C289.231 15.5284 290.136 15.7405 290.912 16.1648C291.687 16.5824 292.29 17.2188 292.721 18.0739C293.152 18.9223 293.368 19.9962 293.368 21.2955V31H291.021V21.4545C291.021 20.2547 290.709 19.3201 290.086 18.6506C289.463 17.9744 288.608 17.6364 287.521 17.6364C286.772 17.6364 286.102 17.7988 285.512 18.1236C284.929 18.4484 284.468 18.9223 284.13 19.5455C283.792 20.1686 283.623 20.9242 283.623 21.8125ZM303.82 37.0455C302.687 37.0455 301.712 36.8996 300.897 36.608C300.082 36.3229 299.402 35.9451 298.859 35.4744C298.322 35.0104 297.894 34.5133 297.576 33.983L299.445 32.6705C299.657 32.9489 299.926 33.267 300.251 33.625C300.576 33.9896 301.02 34.3045 301.583 34.5696C302.153 34.8414 302.899 34.9773 303.82 34.9773C305.053 34.9773 306.071 34.679 306.873 34.0824C307.675 33.4858 308.076 32.5511 308.076 31.2784V28.1761H307.877C307.705 28.4545 307.46 28.7992 307.141 29.2102C306.83 29.6146 306.379 29.9759 305.789 30.294C305.206 30.6056 304.417 30.7614 303.423 30.7614C302.19 30.7614 301.083 30.4697 300.102 29.8864C299.127 29.303 298.355 28.4545 297.785 27.3409C297.221 26.2273 296.94 24.875 296.94 23.2841C296.94 21.7197 297.215 20.3575 297.765 19.1974C298.315 18.0308 299.081 17.1293 300.062 16.4929C301.043 15.8499 302.176 15.5284 303.462 15.5284C304.457 15.5284 305.246 15.6941 305.829 16.0256C306.419 16.3504 306.87 16.7216 307.181 17.1392C307.499 17.5502 307.745 17.8883 307.917 18.1534H308.156V15.7273H310.423V31.4375C310.423 32.75 310.124 33.8172 309.528 34.6392C308.938 35.4678 308.142 36.0743 307.141 36.4588C306.147 36.8499 305.04 37.0455 303.82 37.0455ZM303.741 28.6534C304.682 28.6534 305.478 28.438 306.127 28.0071C306.777 27.5762 307.271 26.9564 307.609 26.1477C307.947 25.339 308.116 24.3712 308.116 23.2443C308.116 22.1439 307.95 21.1728 307.619 20.331C307.287 19.4891 306.797 18.8295 306.147 18.3523C305.497 17.875 304.695 17.6364 303.741 17.6364C302.746 17.6364 301.918 17.8883 301.255 18.392C300.599 18.8958 300.105 19.572 299.773 20.4205C299.449 21.2689 299.286 22.2102 299.286 23.2443C299.286 24.3049 299.452 25.2429 299.783 26.0582C300.121 26.867 300.619 27.5033 301.275 27.9673C301.938 28.4247 302.76 28.6534 303.741 28.6534ZM336.832 17C336.613 16.3305 336.325 15.7306 335.967 15.2003C335.615 14.6634 335.194 14.206 334.704 13.8281C334.22 13.4503 333.67 13.1619 333.053 12.9631C332.437 12.7642 331.761 12.6648 331.025 12.6648C329.818 12.6648 328.721 12.9763 327.734 13.5994C326.746 14.2225 325.96 15.1406 325.377 16.3537C324.794 17.5668 324.502 19.0549 324.502 20.8182C324.502 22.5814 324.797 24.0696 325.387 25.2827C325.977 26.4957 326.776 27.4138 327.783 28.0369C328.791 28.66 329.924 28.9716 331.184 28.9716C332.351 28.9716 333.378 28.723 334.266 28.2259C335.161 27.7221 335.857 27.0128 336.354 26.098C336.858 25.1766 337.11 24.0928 337.11 22.8466L337.866 23.0057H331.741V20.8182H339.496V23.0057C339.496 24.6828 339.138 26.1411 338.423 27.3807C337.713 28.6203 336.732 29.5814 335.479 30.2642C334.233 30.9403 332.801 31.2784 331.184 31.2784C329.381 31.2784 327.797 30.8542 326.431 30.0057C325.072 29.1572 324.012 27.9508 323.249 26.3864C322.494 24.822 322.116 22.9659 322.116 20.8182C322.116 19.2074 322.331 17.759 322.762 16.473C323.2 15.1804 323.816 14.08 324.612 13.1719C325.407 12.2637 326.348 11.5677 327.435 11.0838C328.522 10.5999 329.719 10.358 331.025 10.358C332.099 10.358 333.1 10.5204 334.028 10.8452C334.962 11.1634 335.794 11.6174 336.523 12.2074C337.259 12.7907 337.872 13.4901 338.363 14.3054C338.853 15.1141 339.192 16.0123 339.377 17H336.832ZM349.805 31.3182C348.333 31.3182 347.064 30.9934 345.997 30.3438C344.936 29.6875 344.118 28.7727 343.541 27.5994C342.971 26.4195 342.686 25.0473 342.686 23.483C342.686 21.9186 342.971 20.5398 343.541 19.3466C344.118 18.1468 344.92 17.2121 345.947 16.5426C346.981 15.8665 348.188 15.5284 349.566 15.5284C350.362 15.5284 351.147 15.661 351.923 15.9261C352.699 16.1913 353.404 16.6222 354.041 17.2188C354.677 17.8087 355.184 18.5909 355.562 19.5653C355.94 20.5398 356.129 21.7396 356.129 23.1648V24.1591H344.356V22.1307H353.743C353.743 21.2689 353.57 20.5 353.225 19.8239C352.887 19.1477 352.404 18.6141 351.774 18.223C351.151 17.8319 350.415 17.6364 349.566 17.6364C348.632 17.6364 347.823 17.8684 347.14 18.3324C346.464 18.7898 345.944 19.3864 345.579 20.1222C345.215 20.858 345.032 21.6468 345.032 22.4886V23.8409C345.032 24.9943 345.231 25.9721 345.629 26.7741C346.033 27.5696 346.593 28.1761 347.309 28.5938C348.025 29.0047 348.857 29.2102 349.805 29.2102C350.422 29.2102 350.978 29.1241 351.475 28.9517C351.979 28.7727 352.413 28.5076 352.778 28.1562C353.143 27.7983 353.424 27.3542 353.623 26.8239L355.89 27.4602C355.652 28.2292 355.251 28.9053 354.687 29.4886C354.124 30.0653 353.428 30.5161 352.599 30.8409C351.77 31.1591 350.839 31.3182 349.805 31.3182ZM359.699 31V15.7273H361.966V18.0341H362.125C362.403 17.2784 362.907 16.6652 363.636 16.1946C364.365 15.724 365.187 15.4886 366.102 15.4886C366.274 15.4886 366.49 15.4919 366.748 15.4986C367.007 15.5052 367.202 15.5152 367.335 15.5284V17.9148C367.255 17.8949 367.073 17.8651 366.788 17.8253C366.51 17.7789 366.215 17.7557 365.903 17.7557C365.161 17.7557 364.498 17.9115 363.914 18.223C363.338 18.5279 362.88 18.9522 362.542 19.4957C362.211 20.0327 362.045 20.6458 362.045 21.3352V31H359.699ZM389.446 15.7273C389.327 14.7197 388.843 13.9375 387.994 13.3807C387.146 12.8239 386.105 12.5455 384.872 12.5455C383.971 12.5455 383.182 12.6913 382.506 12.983C381.836 13.2746 381.313 13.6757 380.935 14.1861C380.563 14.6965 380.378 15.2765 380.378 15.9261C380.378 16.4697 380.507 16.937 380.766 17.3281C381.031 17.7126 381.369 18.0341 381.78 18.2926C382.191 18.5445 382.622 18.7533 383.072 18.919C383.523 19.0781 383.938 19.2074 384.315 19.3068L386.384 19.8636C386.914 20.0028 387.504 20.1951 388.153 20.4403C388.81 20.6856 389.436 21.0204 390.033 21.4446C390.636 21.8622 391.133 22.3991 391.524 23.0554C391.915 23.7116 392.111 24.517 392.111 25.4716C392.111 26.572 391.822 27.5663 391.246 28.4545C390.676 29.3428 389.84 30.0488 388.74 30.5724C387.646 31.0961 386.317 31.358 384.753 31.358C383.295 31.358 382.032 31.1226 380.964 30.652C379.904 30.1813 379.069 29.5251 378.459 28.6832C377.856 27.8414 377.514 26.8636 377.435 25.75H379.98C380.046 26.5189 380.305 27.1553 380.756 27.6591C381.213 28.1562 381.79 28.5275 382.486 28.7727C383.188 29.0114 383.944 29.1307 384.753 29.1307C385.694 29.1307 386.539 28.9782 387.288 28.6733C388.037 28.3617 388.631 27.9309 389.068 27.3807C389.506 26.8239 389.724 26.1742 389.724 25.4318C389.724 24.7557 389.536 24.2055 389.158 23.7812C388.78 23.357 388.283 23.0123 387.666 22.7472C387.05 22.482 386.384 22.25 385.668 22.0511L383.162 21.3352C381.571 20.8778 380.312 20.2249 379.384 19.3764C378.455 18.5279 377.991 17.4176 377.991 16.0455C377.991 14.9053 378.3 13.911 378.916 13.0625C379.539 12.2074 380.375 11.5445 381.422 11.0739C382.476 10.5966 383.652 10.358 384.952 10.358C386.264 10.358 387.431 10.5933 388.452 11.0639C389.473 11.5279 390.281 12.1643 390.878 12.973C391.481 13.7817 391.799 14.6998 391.832 15.7273H389.446ZM398.194 21.8125V31H395.847V10.6364H398.194V18.1136H398.392C398.75 17.3248 399.287 16.6984 400.003 16.2344C400.726 15.7637 401.687 15.5284 402.887 15.5284C403.927 15.5284 404.839 15.7372 405.621 16.1548C406.403 16.5658 407.01 17.1989 407.441 18.054C407.878 18.9025 408.097 19.983 408.097 21.2955V31H405.75V21.4545C405.75 20.2415 405.435 19.3035 404.806 18.6406C404.183 17.9711 403.318 17.6364 402.211 17.6364C401.442 17.6364 400.752 17.7988 400.142 18.1236C399.539 18.4484 399.062 18.9223 398.711 19.5455C398.366 20.1686 398.194 20.9242 398.194 21.8125ZM418.594 31.3182C417.216 31.3182 416.006 30.9901 414.965 30.3338C413.931 29.6776 413.122 28.7595 412.539 27.5795C411.962 26.3996 411.674 25.0208 411.674 23.4432C411.674 21.8523 411.962 20.4635 412.539 19.277C413.122 18.0904 413.931 17.169 414.965 16.5128C416.006 15.8565 417.216 15.5284 418.594 15.5284C419.973 15.5284 421.18 15.8565 422.214 16.5128C423.254 17.169 424.063 18.0904 424.64 19.277C425.223 20.4635 425.515 21.8523 425.515 23.4432C425.515 25.0208 425.223 26.3996 424.64 27.5795C424.063 28.7595 423.254 29.6776 422.214 30.3338C421.18 30.9901 419.973 31.3182 418.594 31.3182ZM418.594 29.2102C419.642 29.2102 420.504 28.9418 421.18 28.4048C421.856 27.8679 422.356 27.1619 422.681 26.2869C423.006 25.4119 423.168 24.464 423.168 23.4432C423.168 22.4223 423.006 21.4711 422.681 20.5895C422.356 19.7079 421.856 18.9953 421.18 18.4517C420.504 17.9081 419.642 17.6364 418.594 17.6364C417.547 17.6364 416.685 17.9081 416.009 18.4517C415.333 18.9953 414.833 19.7079 414.508 20.5895C414.183 21.4711 414.021 22.4223 414.021 23.4432C414.021 24.464 414.183 25.4119 414.508 26.2869C414.833 27.1619 415.333 27.8679 416.009 28.4048C416.685 28.9418 417.547 29.2102 418.594 29.2102ZM429.097 36.7273V15.7273H431.364V18.1534H431.642C431.815 17.8883 432.053 17.5502 432.358 17.1392C432.67 16.7216 433.114 16.3504 433.691 16.0256C434.274 15.6941 435.063 15.5284 436.057 15.5284C437.343 15.5284 438.477 15.8499 439.458 16.4929C440.439 17.1359 441.204 18.0473 441.755 19.2273C442.305 20.4072 442.58 21.7992 442.58 23.4034C442.58 25.0208 442.305 26.4228 441.755 27.6094C441.204 28.7893 440.442 29.7041 439.468 30.3537C438.493 30.9967 437.37 31.3182 436.097 31.3182C435.116 31.3182 434.33 31.1558 433.74 30.831C433.15 30.4995 432.696 30.125 432.378 29.7074C432.06 29.2831 431.815 28.9318 431.642 28.6534H431.444V36.7273H429.097ZM431.404 23.3636C431.404 24.517 431.573 25.5346 431.911 26.4162C432.249 27.2912 432.743 27.9773 433.392 28.4744C434.042 28.965 434.837 29.2102 435.779 29.2102C436.76 29.2102 437.578 28.9517 438.235 28.4347C438.898 27.911 439.395 27.2083 439.726 26.3267C440.064 25.4384 440.233 24.4508 440.233 23.3636C440.233 22.2898 440.068 21.322 439.736 20.4602C439.411 19.5919 438.917 18.9058 438.255 18.402C437.598 17.8916 436.773 17.6364 435.779 17.6364C434.824 17.6364 434.022 17.8783 433.373 18.3622C432.723 18.8395 432.232 19.509 431.901 20.3707C431.569 21.2259 431.404 22.2235 431.404 23.3636Z" fill="#010000"/>
<path d="M15.7401 21.7699C20.9901 21.7699 23.5701 20.2599 26.3001 18.6699C29.1701 16.9899 32.4301 15.0899 38.6301 15.0899C44.8301 15.0899 48.0801 16.9899 50.9601 18.6699C52.0401 19.2999 53.1001 19.9099 54.3001 20.4199C53.9801 17.0599 52.1601 13.9999 49.3001 12.1299L35.9201 3.40994C30.6301 -0.0500586 23.7801 -0.0500586 18.4801 3.40994L5.10006 12.1299C3.38006 13.2499 2.05005 14.7999 1.18005 16.5899C2.71005 17.2199 3.99006 17.9599 5.20006 18.6699C7.93006 20.2699 10.5101 21.7699 15.7601 21.7699H15.7401Z" fill="#050100"/>
<path d="M38.62 18.59C33.37 18.59 30.79 20.1 28.06 21.69C25.19 23.37 21.93 25.27 15.73 25.27C9.53 25.27 6.28 23.37 3.4 21.69C2.34 21.07 1.29 20.46 0.110001 19.95C0.0400006 20.45 0 20.96 0 21.48V29.71C0 33.85 12.17 37.2 27.17 37.2C42.17 37.2 54.34 33.85 54.34 29.71V24.19C52.27 23.49 50.67 22.56 49.17 21.69C46.44 20.09 43.86 18.59 38.61 18.59H38.62Z" fill="#050100"/>
</svg>
