<svg width="24" height="18" viewBox="0 0 24 18" fill="none" xmlns="http://www.w3.org/2000/svg">
<path d="M20.5801 0.819824H3.38007C1.62007 0.819824 0.190063 2.24989 0.190063 4.00989V14.6399C0.190063 16.3999 1.62007 17.8298 3.38007 17.8298H20.5801C22.3401 17.8298 23.7701 16.3999 23.7701 14.6399V4.00989C23.7701 2.24989 22.3401 0.819824 20.5801 0.819824ZM22.1401 4.00989V14.6399C22.1401 14.7899 22.1101 14.9298 22.0701 15.0698L15.8 9.33984L22.0801 3.60986C22.1201 3.73986 22.1401 3.8799 22.1401 4.0199V4.00989ZM20.5801 2.43982C20.6901 2.43982 20.8001 2.44985 20.9001 2.46985L11.98 10.6099L3.06006 2.46985C3.16006 2.44985 3.27007 2.43982 3.38007 2.43982H20.5801ZM1.88007 15.0599C1.84007 14.9199 1.81006 14.7799 1.81006 14.6299V3.99988C1.81006 3.85988 1.84006 3.71984 1.87006 3.58984L8.15009 9.31982L1.88007 15.0499V15.0599ZM3.38007 16.1998C3.28007 16.1998 3.18008 16.1899 3.08008 16.1699L9.36005 10.4299L11.11 12.0299C11.36 12.2599 11.67 12.3699 11.98 12.3699C12.29 12.3699 12.6 12.2599 12.85 12.0299L14.6 10.4299L20.8801 16.1699C20.7801 16.1899 20.6801 16.1998 20.5801 16.1998H3.38007Z" fill="#494542"/>
</svg>
