<svg width="747" height="77" viewBox="0 0 747 77" fill="none" xmlns="http://www.w3.org/2000/svg">
<path d="M43.6699 12.8801C41.1699 13.2201 38.81 13.5201 36.58 13.7801C34.35 14.0401 32.0299 14.3401 29.6299 14.6801C28.7199 14.8201 27.97 14.9801 27.4 15.1501C26.82 15.3201 26.3799 15.5701 26.0699 15.9101C25.7599 16.2501 25.5399 16.7001 25.4199 17.2801C25.2999 17.8601 25.2399 18.6001 25.2399 19.5101C25.1899 24.0701 25.0799 28.9101 24.9199 34.0201C24.7499 39.1301 24.5499 43.9701 24.3099 48.5301C24.2099 49.9201 24.0999 51.2901 23.9899 52.6301C23.8699 53.9701 23.7599 55.3401 23.6699 56.7301C23.1399 57.2101 22.3699 57.4401 21.3699 57.4101C20.3599 57.3901 19.5199 57.2501 18.8499 57.0101C17.3099 56.4801 16.08 55.5701 15.14 54.2701C14.2 52.9701 13.7799 51.5101 13.8799 49.8801C13.9799 47.9601 14.1799 45.8801 14.4899 43.6501C14.7999 41.4201 15.15 39.1501 15.53 36.8501C15.91 34.5501 16.3099 32.2901 16.7199 30.0801C17.1299 27.8701 17.5 25.8101 17.84 23.8901C18.08 22.7401 18.3799 21.4201 18.7399 19.9301C19.0999 18.4401 19.4999 17.0501 19.9299 15.7501C17.7199 15.9401 15.4299 16.2701 13.0499 16.7201C10.6699 17.1801 8.71993 17.6001 7.17993 17.9801C5.63993 18.3601 4.41995 18.4501 3.50995 18.2301C2.59995 18.0101 1.96995 17.6201 1.63995 17.0401C1.44995 16.7001 1.27995 16.3601 1.13995 16.0001C0.999954 15.6401 0.849961 15.2701 0.709961 14.8801C3.44996 13.7801 6.26992 12.8601 9.16992 12.1401C12.0699 11.4201 14.9899 10.8001 17.9199 10.2701C20.9399 9.74006 23.9399 9.19006 26.9199 8.61006C29.8999 8.03006 32.8999 7.55009 35.9199 7.17009C36.9299 7.03009 37.9499 7.06007 38.9799 7.28007C40.0099 7.50007 41.0299 7.72007 42.0399 7.96007C43.1899 8.34007 43.8399 8.90007 43.9799 9.62007C44.1199 10.3401 44.0299 11.4201 43.6899 12.8601L43.6699 12.8801Z" fill="#010000"/>
<path d="M48.28 55.9401C46.89 56.1801 45.7099 56.0101 44.7499 55.4401C43.7899 54.8601 42.9 54.1001 42.09 53.1401C41.85 52.9001 41.68 52.6101 41.59 52.2801C41.49 51.9401 41.45 51.6301 41.45 51.3401C41.45 50.8601 41.5 50.3801 41.59 49.9001C41.69 49.4201 41.7799 48.9401 41.8799 48.4601C42.1199 47.3101 42.34 46.0801 42.53 44.7901C42.72 43.4901 42.8199 42.2201 42.8199 40.9701C42.7699 39.2401 42.76 37.5101 42.78 35.7901C42.8 34.0601 42.8199 32.3601 42.8199 30.6801C42.7699 28.0401 42.9199 25.4401 43.2499 22.8701C43.5899 20.3001 43.97 17.7201 44.4 15.1301C44.5 14.6001 44.5399 14.0501 44.5399 13.4701V11.8101C44.5399 11.5201 44.4999 11.2301 44.4299 10.9501C44.3599 10.6601 44.3699 10.3701 44.4699 10.0901C44.5199 9.85013 44.6099 9.59012 44.7599 9.30012C44.9099 9.01012 45.0699 8.82013 45.2599 8.72013C45.3999 8.62013 45.6099 8.60012 45.8699 8.65012C46.1299 8.70012 46.3899 8.77013 46.6299 8.87013C47.2999 9.01013 48.0499 9.17013 48.8599 9.34013C49.6799 9.51013 50.54 9.93014 51.45 10.6001C51.59 11.1301 51.7499 11.6601 51.9199 12.1801C52.0899 12.7101 52.2199 13.2401 52.3199 13.7601C52.4199 15.1501 52.4499 16.3301 52.4299 17.2901C52.4099 18.2501 52.25 19.4001 51.96 20.7501C51.72 21.7101 51.5599 22.6601 51.4899 23.5901C51.4199 24.5301 51.26 25.4301 51.02 26.2901C50.88 26.9101 50.8399 27.5001 50.9099 28.0501C50.9799 28.6001 51.0599 29.0001 51.1599 29.2401C51.9799 28.8601 52.7899 28.5401 53.6099 28.3001C54.4299 28.0601 55.2199 27.9701 55.9899 28.0101C56.9499 28.0601 57.84 28.3201 58.65 28.8001C59.47 29.2801 60.07 30.0701 60.45 31.1801C60.93 32.5701 61.43 34.1001 61.96 35.7501C62.49 37.4101 63.0199 38.9301 63.5399 40.3201C64.3599 42.4801 65.1099 44.4201 65.8099 46.1501C66.5099 47.8801 67.12 49.4101 67.65 50.7601C67.89 51.3401 68.1699 51.8901 68.4799 52.4201C68.7899 52.9501 69.14 53.4801 69.52 54.0001C69.81 54.3801 69.92 54.7501 69.84 55.0801C69.77 55.4101 69.68 55.7801 69.59 56.1601C69.4 56.6901 69.0499 57.0201 68.5499 57.1701C68.0499 57.3101 67.5999 57.1901 67.2199 56.8101C66.4999 56.0901 65.8899 55.3101 65.3799 54.4701C64.8799 53.6301 64.4099 52.7301 63.9799 51.7701C63.6399 51.0501 63.1899 49.9101 62.6099 48.3501C62.0299 46.7901 61.4099 45.1501 60.7399 43.4201C59.9699 41.5501 59.2399 39.6501 58.5399 37.7301C57.8399 35.8101 57.11 34.3201 56.34 33.2701C55.43 33.1701 54.6699 33.4401 54.0699 34.0601C53.4699 34.6801 52.98 35.3101 52.59 35.9301C52.16 36.6001 51.82 37.3301 51.58 38.1301C51.34 38.9201 51.1499 39.6101 50.9999 40.1801C50.8099 40.9501 50.6599 41.6001 50.5699 42.1201C50.4699 42.6501 50.38 43.3001 50.28 44.0601C50.23 44.3501 50.2199 44.6401 50.2399 44.9201C50.2599 45.2101 50.28 45.5001 50.28 45.7801C50.33 46.9801 50.3499 48.1601 50.3499 49.3101V53.5601C50.3999 53.8001 50.3599 54.1601 50.2399 54.6401C50.1199 55.1201 49.77 55.4801 49.2 55.7201L48.2599 55.9401H48.28Z" fill="#010000"/>
<path d="M93.9299 45.64C94.6999 47.08 94.9999 48.17 94.8299 48.92C94.6599 49.67 93.8799 50.37 92.4899 51.04C90.9499 51.81 89.3199 52.34 87.5899 52.62C85.8599 52.9 84.1499 52.93 82.4399 52.69C80.7399 52.45 79.0899 51.92 77.5099 51.11C75.9299 50.29 74.5099 49.14 73.2599 47.65C72.2499 46.5 71.5399 45.23 71.1399 43.83C70.7299 42.44 70.4099 41.02 70.1699 39.58C69.8299 36.56 69.9399 33.62 70.4899 30.76C71.0399 27.9 72.2799 25.2 74.1999 22.66C74.8699 21.84 75.5899 21.15 76.3599 20.57C77.1299 19.99 78.0599 19.87 79.1699 20.21C79.4599 20.31 79.7599 20.4 80.0699 20.5C80.3799 20.6 80.6799 20.6 80.9699 20.5C82.3599 20.26 83.7199 20.39 85.0399 20.9C86.3599 21.4 87.4299 22.11 88.2399 23.02C88.7699 23.55 89.3099 24.11 89.8599 24.71C90.4099 25.31 90.8799 25.9 91.2599 26.47C91.7899 27.29 92.2899 28.23 92.7699 29.31C93.2499 30.39 93.4199 31.48 93.2699 32.59C93.2699 33.21 93.1999 33.77 93.0499 34.25C92.7599 34.35 92.4899 34.45 92.2199 34.57C91.9599 34.69 91.6599 34.8 91.3199 34.89C89.8299 35.37 88.3599 35.86 86.8899 36.37C85.4299 36.87 83.9499 37.44 82.4599 38.06C81.4499 38.44 80.3499 38.63 79.1499 38.6C77.9499 38.58 77.0899 38.42 76.5599 38.13L75.2599 37.41C75.2599 39.14 75.5099 40.69 76.0199 42.05C76.5299 43.41 77.2399 44.55 78.1799 45.43C79.1199 46.32 80.2199 46.93 81.4899 47.27C82.7599 47.61 84.1599 47.58 85.6999 47.2C86.8999 46.91 88.0599 46.56 89.1899 46.16C90.3199 45.75 91.5099 45.55 92.7499 45.55C92.9399 45.55 93.1299 45.56 93.3299 45.59C93.5199 45.61 93.7099 45.63 93.9099 45.63L93.9299 45.64ZM75.1399 35.56C75.8599 35.56 76.5299 35.39 77.1599 35.06C77.7799 34.72 78.4799 34.36 79.2499 33.98C80.0199 33.55 80.9299 33.08 81.9899 32.58C83.0499 32.08 83.9599 31.63 84.7299 31.25C84.2999 29.67 83.6099 28.51 82.6799 27.79C81.7499 27.07 80.7199 26.59 79.6199 26.35C78.8999 26.73 78.2199 27.27 77.5699 27.97C76.9199 28.67 76.3799 29.42 75.9499 30.24C75.5199 31.06 75.2199 31.93 75.0499 32.87C74.8799 33.81 74.9199 34.71 75.1599 35.57L75.1399 35.56Z" fill="#010000"/>
<path d="M124.89 7.12012C125.32 7.26012 125.86 7.38013 126.51 7.48013C127.16 7.58013 127.94 7.74013 128.85 7.98013C129.91 8.22013 131.08 8.52013 132.38 8.88013C133.68 9.24013 134.9 9.68011 136.05 10.2101C136.77 10.5001 137.47 10.7901 138.14 11.0701C138.81 11.3601 139.53 11.6901 140.3 12.0801C141.55 12.7001 142.65 13.3501 143.61 14.0201C144.57 14.6901 145.7 15.5601 146.99 16.6101C147.81 17.2301 148.55 18.1301 149.22 19.3101C149.89 20.4901 150.42 21.5501 150.8 22.5101C151.23 23.7101 151.54 25.0501 151.74 26.5401C151.93 28.0301 151.99 29.5401 151.92 31.0801C151.85 32.6201 151.67 34.1001 151.38 35.5401C151.09 36.9801 150.66 38.2501 150.08 39.3601C148.69 41.6601 147.16 43.8601 145.51 45.9501C143.85 48.0401 141.87 49.8301 139.57 51.3101C138.03 52.4101 136.51 53.3401 135 54.0801C133.49 54.8201 131.82 55.2701 130 55.4101C128.99 55.4601 128.02 55.5201 127.08 55.5901C126.14 55.6601 125.26 55.6601 124.42 55.5901C123.58 55.5201 122.78 55.3101 122.01 54.9801C121.24 54.6501 120.52 54.0701 119.85 53.2501C119.18 52.2901 118.67 51.3301 118.34 50.3701C118 49.4101 117.96 48.3301 118.2 47.1301C118.44 45.4001 118.75 43.5401 119.14 41.5501C119.52 39.5601 119.92 37.5301 120.33 35.4701C120.74 33.4101 121.15 31.3501 121.55 29.3101C121.96 27.2701 122.31 25.3601 122.59 23.5901L123.09 17.3301C122.37 17.3801 121.7 17.4101 121.07 17.4401C120.45 17.4701 119.92 17.4201 119.49 17.3001C119.06 17.1801 118.73 16.9801 118.52 16.6901C118.31 16.4001 118.27 15.9501 118.41 15.3201C118.46 15.1301 118.55 14.7801 118.7 14.2801C118.85 13.7801 119.02 13.2101 119.24 12.5901C119.46 11.9701 119.72 11.3701 120.03 10.7901C120.34 10.2101 120.69 9.78011 121.07 9.49011C121.69 8.82011 122.29 8.33013 122.87 8.01013C123.45 7.70013 124.12 7.40011 124.89 7.11011V7.12012ZM126.4 48.8101C127.36 48.6201 128.19 48.4901 128.88 48.4101C129.58 48.3401 130.26 48.1801 130.93 47.9401C133.57 47.0801 135.78 45.9401 137.55 44.5201C139.33 43.1001 141.03 41.3201 142.66 39.1601C143.76 37.7701 144.57 36.0901 145.07 34.1201C145.57 32.1501 145.63 30.3301 145.25 28.6501C145.06 27.7401 144.84 26.9501 144.6 26.2701C144.36 25.6001 144.08 24.9701 143.77 24.4001C143.46 23.8201 143.07 23.2501 142.62 22.6701C142.16 22.0901 141.6 21.4701 140.93 20.8001C139.97 19.7901 138.85 18.9601 137.58 18.3201C136.31 17.6701 134.95 17.3001 133.51 17.2001L128.47 16.7701C128.33 18.5501 128.21 20.4801 128.11 22.5701C128.01 24.6601 127.92 26.7701 127.82 28.9101C127.72 31.0501 127.61 33.1501 127.5 35.2101C127.38 37.2701 127.22 39.1701 127.03 40.9001C126.93 42.1501 126.86 43.4001 126.81 44.6401C126.76 45.8901 126.62 47.2801 126.38 48.8201L126.4 48.8101Z" fill="#010000"/>
<path d="M157.36 52.84C156.88 51.74 156.83 50.15 157.22 48.09C157.6 46.07 157.75 44.11 157.65 42.19C157.55 40.27 157.48 38.4 157.43 36.57C157.43 35.71 157.39 34.7 157.32 33.55C157.25 32.4 157.15 31.22 157.03 30.02C156.91 28.82 156.79 27.61 156.67 26.38C156.55 25.16 156.42 24.04 156.27 23.03C156.89 22.89 157.54 22.84 158.21 22.89C158.88 22.94 159.49 23.08 160.05 23.32C160.6 23.56 161.08 23.87 161.49 24.26C161.9 24.64 162.17 25.05 162.32 25.48C162.47 25.91 162.57 26.49 162.64 27.21C162.71 27.93 162.77 28.69 162.82 29.48C162.87 30.27 162.9 31.05 162.93 31.82C162.95 32.59 162.94 33.24 162.89 33.76C164.23 31.36 166.06 29.33 168.36 27.68C170.66 26.02 173.78 24.62 177.72 23.47C179.35 22.99 180.71 22.99 181.79 23.47C182.87 23.95 183.7 24.74 184.27 25.85C184.89 27.1 185.06 28.23 184.77 29.23C184.48 30.23 183.71 31.27 182.47 32.33C181.85 32.47 181.4 32.34 181.14 31.93C180.88 31.52 180.74 30.98 180.74 30.31C180.74 29.83 180.73 29.4 180.7 29.01C180.68 28.63 180.54 28.34 180.3 28.15C179.72 28.2 179.14 28.22 178.54 28.22C177.94 28.22 177.35 28.29 176.78 28.44C175.96 28.63 175.15 28.98 174.33 29.48C173.51 29.98 172.75 30.5 172.03 31.03C171.17 31.7 170.36 32.58 169.62 33.66C168.88 34.74 168.24 35.98 167.71 37.37C166.89 39.63 166.38 41.89 166.16 44.17C165.94 46.45 166.15 48.77 166.77 51.12C166.87 51.55 166.95 52 167.02 52.45C167.09 52.91 167.2 53.33 167.34 53.71C167.44 54.09 167.4 54.43 167.23 54.72C167.06 55.01 166.82 55.26 166.51 55.48C166.2 55.7 165.84 55.88 165.43 56.02C165.02 56.16 164.65 56.28 164.31 56.38C163.45 56.48 162.61 56.42 161.79 56.2C160.97 55.98 160.24 55.7 159.59 55.34C158.94 54.98 158.41 54.58 158.01 54.15C157.6 53.72 157.37 53.29 157.33 52.85L157.36 52.84Z" fill="#010000"/>
<path d="M209.77 45.64C210.54 47.08 210.84 48.17 210.67 48.92C210.5 49.67 209.72 50.37 208.33 51.04C206.79 51.81 205.16 52.34 203.43 52.62C201.7 52.9 199.99 52.93 198.28 52.69C196.58 52.45 194.93 51.92 193.35 51.11C191.77 50.29 190.35 49.14 189.1 47.65C188.09 46.5 187.38 45.23 186.98 43.83C186.57 42.44 186.25 41.02 186.01 39.58C185.67 36.56 185.78 33.62 186.33 30.76C186.88 27.9 188.12 25.2 190.04 22.66C190.71 21.84 191.43 21.15 192.2 20.57C192.97 19.99 193.9 19.87 195.01 20.21C195.3 20.31 195.6 20.4 195.91 20.5C196.22 20.6 196.52 20.6 196.81 20.5C198.2 20.26 199.56 20.39 200.88 20.9C202.2 21.4 203.27 22.11 204.08 23.02C204.61 23.55 205.15 24.11 205.7 24.71C206.25 25.31 206.72 25.9 207.1 26.47C207.63 27.29 208.13 28.23 208.61 29.31C209.09 30.39 209.26 31.48 209.11 32.59C209.11 33.21 209.04 33.77 208.89 34.25C208.6 34.35 208.33 34.45 208.06 34.57C207.8 34.69 207.5 34.8 207.16 34.89C205.67 35.37 204.2 35.86 202.73 36.37C201.27 36.87 199.79 37.44 198.3 38.06C197.29 38.44 196.19 38.63 194.99 38.6C193.79 38.58 192.93 38.42 192.4 38.13L191.1 37.41C191.1 39.14 191.35 40.69 191.86 42.05C192.37 43.41 193.08 44.55 194.02 45.43C194.96 46.32 196.06 46.93 197.33 47.27C198.6 47.61 200 47.58 201.54 47.2C202.74 46.91 203.9 46.56 205.03 46.16C206.16 45.75 207.35 45.55 208.59 45.55C208.78 45.55 208.97 45.56 209.17 45.59C209.36 45.61 209.55 45.63 209.75 45.63L209.77 45.64ZM190.98 35.56C191.7 35.56 192.37 35.39 193 35.06C193.62 34.72 194.32 34.36 195.09 33.98C195.86 33.55 196.77 33.08 197.83 32.58C198.89 32.08 199.8 31.63 200.57 31.25C200.14 29.67 199.45 28.51 198.52 27.79C197.59 27.07 196.56 26.59 195.46 26.35C194.74 26.73 194.06 27.27 193.41 27.97C192.76 28.67 192.22 29.42 191.79 30.24C191.36 31.06 191.06 31.93 190.89 32.87C190.72 33.81 190.76 34.71 191 35.57L190.98 35.56Z" fill="#010000"/>
<path d="M232.09 35.7802C231.9 36.3602 231.71 37.0002 231.51 37.7202C231.32 38.4402 231.13 39.1501 230.93 39.8401C230.74 40.5401 230.55 41.2002 230.35 41.8202C230.16 42.4402 229.97 42.9701 229.77 43.4001C229.34 44.2601 228.94 45.0902 228.58 45.8802C228.22 46.6702 227.81 47.4301 227.36 48.1501C226.9 48.8701 226.38 49.5502 225.78 50.2002C225.18 50.8502 224.42 51.4901 223.51 52.1101C222.84 52.6401 222.14 52.8402 221.42 52.7202C220.7 52.6002 220.05 52.4201 219.48 52.1801C218.04 51.5601 216.94 50.7402 216.17 49.7302C215.4 48.7202 214.83 47.4502 214.44 45.9102C214.01 43.4602 214.06 41.1301 214.58 38.9301C215.11 36.7201 215.9 34.5402 216.96 32.3802C217.63 31.0802 218.4 29.8202 219.26 28.6002C220.12 27.3802 221.2 26.3302 222.5 25.4702C222.74 25.2302 223.15 24.9401 223.72 24.6101C225.74 23.5601 227.75 23.5102 229.77 24.4702L230.85 23.5302C231.33 23.2402 231.82 22.9402 232.33 22.6302C232.83 22.3202 233.35 22.1602 233.88 22.1602C234.7 22.1602 235.4 22.2101 236 22.3001C236.6 22.4001 237.33 22.5402 238.2 22.7302L240.14 33.1002L241.29 41.4502C241.58 42.9902 241.94 44.6101 242.37 46.3102C242.8 48.0102 243.28 49.5602 243.81 50.9502C243.91 51.1402 243.95 51.4302 243.95 51.8102C243.95 52.1901 243.83 52.5102 243.59 52.7502C243.35 52.9902 242.91 53.2502 242.26 53.5402C241.61 53.8302 241.12 53.9702 240.78 53.9702C239.82 53.9702 239.12 53.8302 238.69 53.5402C237.3 53.1602 236.13 52.4701 235.2 51.4901C234.26 50.5101 233.7 49.2902 233.51 47.8502C233.27 46.1202 233.04 44.4802 232.83 42.9202C232.61 41.3602 232.43 39.9302 232.29 38.6402C232.24 38.4002 232.21 37.9902 232.18 37.4202C232.16 36.8402 232.12 36.2902 232.07 35.7602L232.09 35.7802ZM228.06 28.3601C226.48 28.0301 225.25 28.5301 224.39 29.8701C224.15 30.4001 223.84 30.9302 223.45 31.4502C223.07 31.9802 222.68 32.5301 222.3 33.1101C221.29 35.1701 220.46 37.1902 219.82 39.1602C219.17 41.1302 218.9 43.3101 218.99 45.7101C219.04 45.8501 219.1 46.0502 219.17 46.2902C219.24 46.5302 219.37 46.7901 219.57 47.0801C220.29 46.7901 221.11 45.8302 222.02 44.2002C222.93 42.5702 223.82 40.7202 224.68 38.6602C225.54 36.6002 226.29 34.5901 226.91 32.6501C227.53 30.7101 227.92 29.2801 228.06 28.3701V28.3601Z" fill="#010000"/>
<path d="M259.02 29.7299C258.35 31.2699 257.82 32.9499 257.44 34.7699C257.06 36.5899 256.84 38.2699 256.79 39.8099C256.74 40.8699 256.71 41.8399 256.68 42.7299C256.66 43.6199 256.64 44.5099 256.64 45.3899V48.0499C256.64 48.9399 256.66 49.9099 256.71 50.9699C256.66 51.7899 256.51 52.4799 256.24 53.0599C255.98 53.6399 255.51 54.3299 254.84 55.1499C254.07 55.5299 253.41 55.7599 252.86 55.8299C252.31 55.8999 251.55 55.8199 250.59 55.5799C250.01 55.4399 249.38 55.1399 248.68 54.6799C247.98 54.2199 247.35 53.8299 246.77 53.4899C246.39 53.2499 246.16 52.8799 246.09 52.3699C246.02 51.8699 246.01 51.3699 246.05 50.8899L248.57 31.6699C248.76 30.5199 248.86 29.3799 248.86 28.2499C248.86 27.1199 248.96 25.9399 249.15 24.6899C249.2 24.1599 249.34 23.5899 249.58 22.9599C249.82 22.3399 250.18 21.8799 250.66 21.5899C251.09 21.2999 251.58 21.1099 252.14 21.0099C252.69 20.9099 253.27 20.8899 253.87 20.9399C254.47 20.9899 255.06 21.1499 255.63 21.4099C256.21 21.6699 256.71 22.0199 257.14 22.4499C257.28 22.5899 257.4 22.7999 257.5 23.0599C257.6 23.3199 257.68 23.5999 257.75 23.8899C257.82 24.1799 257.88 24.4399 257.93 24.6799C257.98 24.9199 258.05 25.0899 258.15 25.1799C258.58 24.8499 259.07 24.6499 259.63 24.5999C260.18 24.5499 260.73 24.5899 261.29 24.7099C261.84 24.8299 262.35 25.0199 262.8 25.2899C263.26 25.5499 263.58 25.8299 263.77 26.1199C264.3 26.8899 264.71 27.7499 264.99 28.7099C265.27 29.6699 265.54 30.6099 265.78 31.5199L266.79 37.5699C266.93 36.9899 267.1 36.3699 267.29 35.6999C267.48 35.0299 267.69 34.3699 267.9 33.7199C268.12 33.0699 268.33 32.4699 268.55 31.9199C268.77 31.3699 268.95 30.9499 269.09 30.6599C269.71 29.4099 270.33 28.1599 270.93 26.9199C271.53 25.6699 272.19 24.4499 272.91 23.2499C273.77 21.8599 274.83 21.0999 276.08 20.9799C277.33 20.8599 278.43 21.4999 279.39 22.8899C280.45 24.5699 281.2 26.3199 281.66 28.1499C282.12 29.9699 282.42 31.8499 282.56 33.7699C282.8 36.8399 283.24 39.7099 283.89 42.3699C284.54 45.0299 285.34 47.8499 286.3 50.8299C286.54 51.4999 286.78 52.1499 287.02 52.7699C287.26 53.3899 287.48 53.9499 287.67 54.4299C287.57 55.0999 287.45 55.5999 287.31 55.9399C287.17 56.2699 286.93 56.5599 286.59 56.7999C286.45 56.8899 286.11 56.7299 285.58 56.2999C285.05 55.8699 284.6 55.4799 284.21 55.1499C283.54 54.5299 283.01 53.8099 282.63 52.9899C282.25 52.1699 281.96 51.3099 281.77 50.3999L279.54 38.8799C279.2 37.2499 278.86 35.4899 278.5 33.5899C278.14 31.6899 277.84 29.9099 277.6 28.2299C277.6 27.9399 277.46 27.5299 277.17 27.0099C276.31 28.5499 275.62 30.1399 275.12 31.7999C274.62 33.4599 274.2 34.8799 273.86 36.0799C273.52 37.3299 273.26 38.6999 273.07 40.1799C272.88 41.6699 272.57 43.0099 272.13 44.2099C271.94 44.8299 271.83 45.4499 271.81 46.0499C271.79 46.6499 271.8 47.2499 271.85 47.8499C271.9 48.4499 271.92 49.0399 271.92 49.6099C271.92 50.1799 271.85 50.7599 271.7 51.3399C270.79 51.3899 269.85 51.3499 268.89 51.2299C267.93 51.1099 267.04 50.9199 266.23 50.6499C265.41 50.3899 264.71 50.0599 264.11 49.6799C263.51 49.2999 263.14 48.8599 262.99 48.3799C262.85 47.9499 262.75 47.5199 262.7 47.0799C262.65 46.6499 262.7 46.1899 262.84 45.7099C262.94 45.2299 263.01 44.7499 263.06 44.2699C263.11 43.7899 263.08 43.2899 262.99 42.7599C262.85 42.0899 262.68 41.2599 262.49 40.2799C262.3 39.2999 262.11 38.2799 261.91 37.2199C261.72 36.1599 261.53 35.1099 261.33 34.0499C261.14 32.9899 260.95 32.0299 260.75 31.1699C260.65 30.7399 260.49 30.3799 260.25 30.0899C260.01 29.7999 259.6 29.6799 259.03 29.7299H259.02Z" fill="#010000"/>
<path d="M336.71 20.15C335.94 19.53 335.23 19.02 334.59 18.64C333.94 18.26 333.21 17.82 332.39 17.34C331.96 17.1 331.47 16.91 330.91 16.76C330.36 16.62 329.82 16.59 329.29 16.69C327.8 16.88 326.41 17.17 325.11 17.55C323.81 17.93 322.57 18.32 321.37 18.7C320.94 18.94 320.51 19.24 320.07 19.6C319.63 19.96 319.23 20.33 318.85 20.72C318.56 20.96 318.37 21.28 318.27 21.69C318.17 22.1 318.14 22.51 318.16 22.91C318.18 23.32 318.28 23.69 318.45 24.03C318.62 24.37 318.82 24.61 319.06 24.75C319.59 25.28 320.15 25.71 320.75 26.05C321.35 26.39 321.94 26.67 322.51 26.91C323.13 27.29 323.91 27.73 324.85 28.21C325.79 28.69 326.76 29.17 327.77 29.65C328.78 30.13 329.76 30.6 330.72 31.05C331.68 31.51 332.5 31.9 333.17 32.24C335.09 33.3 336.78 34.45 338.25 35.7C339.71 36.95 340.69 38.51 341.17 40.38C341.41 41.39 341.45 42.55 341.28 43.87C341.11 45.19 340.78 46.47 340.27 47.72C339.77 48.97 339.13 50.13 338.36 51.21C337.59 52.29 336.75 53.07 335.84 53.55C335.07 53.93 334.24 54.34 333.36 54.77C332.47 55.2 331.55 55.59 330.59 55.92C329.63 56.25 328.68 56.52 327.75 56.71C326.81 56.9 325.91 56.97 325.05 56.93C324.52 56.93 323.99 56.98 323.47 57.07C322.94 57.17 322.44 57.19 321.96 57.14C320.81 57 319.61 56.86 318.36 56.74C317.11 56.62 315.89 56.42 314.69 56.13C313.49 55.84 312.39 55.45 311.38 54.94C310.37 54.44 309.51 53.71 308.79 52.74C308.45 52.36 308.15 51.94 307.89 51.48C307.63 51.02 307.66 50.46 308 49.79C308.05 49.6 308.16 49.33 308.32 49L308.86 47.92C310.01 46.91 311.26 46.23 312.6 45.87C313.94 45.51 315.46 45.62 317.14 46.19C317.33 46.62 317.84 47.04 318.65 47.45C319.47 47.86 320.38 48.21 321.39 48.49C322.4 48.77 323.41 48.99 324.41 49.14C325.42 49.28 326.21 49.28 326.79 49.14C328.61 48.76 329.99 47.92 330.93 46.62C331.87 45.32 332.38 43.84 332.48 42.16C332.43 41.82 332.37 41.42 332.3 40.94C332.23 40.46 332.07 40.1 331.83 39.86C330.97 39.04 330.01 38.23 328.95 37.41C327.89 36.59 326.84 35.83 325.78 35.11C324.72 34.39 323.75 33.77 322.86 33.24C321.97 32.71 321.24 32.33 320.66 32.09C319.8 31.61 318.91 31.2 318 30.87C317.09 30.54 316.22 30.1 315.41 29.57C314.4 28.9 313.55 28.15 312.85 27.34C312.15 26.52 311.76 25.49 311.66 24.24C311.56 23.9 311.42 23.59 311.23 23.3C311.04 23.01 310.85 22.72 310.65 22.44C309.55 20.62 309.38 18.86 310.15 17.18C310.92 15.5 312.31 13.84 314.33 12.21C315.39 11.35 316.63 10.66 318.07 10.16C319.51 9.66 321 9.29999 322.53 9.07999C324.07 8.85999 325.6 8.76001 327.14 8.76001C328.68 8.76001 330.09 8.83001 331.39 8.98001C332.16 9.08001 332.91 9.28 333.66 9.59C334.4 9.9 335.14 10.27 335.86 10.71C336.72 11.24 337.28 11.96 337.52 12.87C337.66 13.3 337.82 13.87 337.99 14.56C338.16 15.26 338.24 15.96 338.24 16.68C338.24 17.4 338.13 18.08 337.92 18.73C337.7 19.38 337.31 19.85 336.73 20.13L336.71 20.15Z" fill="#010000"/>
<path d="M368.1 45.64C368.87 47.08 369.17 48.17 369 48.92C368.83 49.67 368.05 50.37 366.66 51.04C365.12 51.81 363.49 52.34 361.76 52.62C360.03 52.9 358.32 52.93 356.61 52.69C354.91 52.45 353.26 51.92 351.68 51.11C350.1 50.29 348.68 49.14 347.43 47.65C346.42 46.5 345.71 45.23 345.31 43.83C344.9 42.44 344.58 41.02 344.34 39.58C344 36.56 344.11 33.62 344.66 30.76C345.21 27.9 346.45 25.2 348.37 22.66C349.04 21.84 349.76 21.15 350.53 20.57C351.3 19.99 352.23 19.87 353.34 20.21C353.63 20.31 353.93 20.4 354.24 20.5C354.55 20.6 354.85 20.6 355.14 20.5C356.53 20.26 357.89 20.39 359.21 20.9C360.53 21.4 361.6 22.11 362.41 23.02C362.94 23.55 363.48 24.11 364.03 24.71C364.58 25.31 365.05 25.9 365.43 26.47C365.96 27.29 366.46 28.23 366.94 29.31C367.42 30.39 367.59 31.48 367.44 32.59C367.44 33.21 367.37 33.77 367.22 34.25C366.93 34.35 366.66 34.45 366.39 34.57C366.13 34.69 365.83 34.8 365.49 34.89C364 35.37 362.53 35.86 361.06 36.37C359.6 36.87 358.12 37.44 356.63 38.06C355.62 38.44 354.52 38.63 353.32 38.6C352.12 38.58 351.26 38.42 350.73 38.13L349.43 37.41C349.43 39.14 349.68 40.69 350.19 42.05C350.7 43.41 351.41 44.55 352.35 45.43C353.29 46.32 354.39 46.93 355.66 47.27C356.93 47.61 358.33 47.58 359.87 47.2C361.07 46.91 362.23 46.56 363.36 46.16C364.49 45.75 365.68 45.55 366.92 45.55C367.11 45.55 367.3 45.56 367.5 45.59C367.69 45.61 367.88 45.63 368.08 45.63L368.1 45.64ZM349.31 35.56C350.03 35.56 350.7 35.39 351.33 35.06C351.95 34.72 352.65 34.36 353.42 33.98C354.19 33.55 355.1 33.08 356.16 32.58C357.22 32.08 358.13 31.63 358.9 31.25C358.47 29.67 357.78 28.51 356.85 27.79C355.92 27.07 354.89 26.59 353.79 26.35C353.07 26.73 352.39 27.27 351.74 27.97C351.09 28.67 350.55 29.42 350.12 30.24C349.69 31.06 349.39 31.93 349.22 32.87C349.05 33.81 349.09 34.71 349.33 35.57L349.31 35.56Z" fill="#010000"/>
<path d="M376.95 0.780029C378.15 1.26003 379.17 1.73002 380.01 2.18002C380.85 2.64002 381.53 3.15004 382.06 3.73004C382.59 4.31004 382.94 4.98003 383.1 5.75003C383.27 6.52003 383.26 7.46003 383.06 8.56003C382.82 9.81003 382.62 11.26 382.45 12.92C382.28 14.58 382.11 16.27 381.95 18C381.78 19.73 381.63 21.42 381.48 23.08C381.33 24.74 381.19 26.21 381.05 27.51C380.67 30.97 380.58 34.42 380.8 37.88C381.02 41.34 381.17 44.79 381.27 48.25C381.27 49.02 381.31 49.86 381.38 50.77C381.45 51.68 381.56 52.52 381.7 53.29C381.75 53.67 381.69 54 381.52 54.26C381.35 54.52 381.11 54.76 380.8 54.98C380.49 55.2 380.14 55.41 379.76 55.63C379.38 55.85 379.02 56.1 378.68 56.39C377.19 56.01 376 55.11 375.12 53.69C374.23 52.27 373.98 50.34 374.36 47.89C374.79 44.96 374.9 42.01 374.68 39.03C374.46 36.05 374.36 33.05 374.36 30.03C374.36 28.4 374.4 26.57 374.47 24.56C374.54 22.54 374.65 20.5 374.79 18.44C374.93 16.38 375.11 14.35 375.33 12.36C375.55 10.37 375.8 8.56004 376.09 6.92004C376.19 6.39004 376.23 5.86003 376.23 5.34003C376.23 4.82003 376.28 4.28004 376.37 3.76004C376.42 3.28004 376.5 2.80004 376.62 2.32004C376.74 1.84004 376.85 1.34003 376.94 0.810028L376.95 0.780029Z" fill="#010000"/>
<path d="M393.87 0.780029C395.07 1.26003 396.09 1.73002 396.93 2.18002C397.77 2.64002 398.45 3.15004 398.98 3.73004C399.51 4.31004 399.86 4.98003 400.02 5.75003C400.19 6.52003 400.18 7.46003 399.98 8.56003C399.74 9.81003 399.54 11.26 399.37 12.92C399.2 14.58 399.03 16.27 398.87 18C398.7 19.73 398.55 21.42 398.4 23.08C398.25 24.74 398.11 26.21 397.97 27.51C397.59 30.97 397.5 34.42 397.72 37.88C397.94 41.34 398.09 44.79 398.19 48.25C398.19 49.02 398.23 49.86 398.3 50.77C398.37 51.68 398.48 52.52 398.62 53.29C398.67 53.67 398.61 54 398.44 54.26C398.27 54.52 398.03 54.76 397.72 54.98C397.41 55.2 397.06 55.41 396.68 55.63C396.3 55.85 395.94 56.1 395.6 56.39C394.11 56.01 392.92 55.11 392.04 53.69C391.15 52.27 390.9 50.34 391.28 47.89C391.71 44.96 391.82 42.01 391.6 39.03C391.38 36.05 391.28 33.05 391.28 30.03C391.28 28.4 391.32 26.57 391.39 24.56C391.46 22.54 391.57 20.5 391.71 18.44C391.85 16.38 392.03 14.35 392.25 12.36C392.47 10.37 392.72 8.56004 393.01 6.92004C393.11 6.39004 393.15 5.86003 393.15 5.34003C393.15 4.82003 393.2 4.28004 393.29 3.76004C393.34 3.28004 393.42 2.80004 393.54 2.32004C393.66 1.84004 393.77 1.34003 393.86 0.810028L393.87 0.780029Z" fill="#010000"/>
<path d="M415.62 19.14C414.8 19.72 413.86 19.93 412.78 19.79C411.7 19.65 410.68 19.05 409.72 17.99C408.95 17.17 408.41 16.37 408.1 15.58C407.79 14.79 407.73 13.84 407.92 12.74C408.16 11.4 408.11 10.2 407.78 9.14003C407.35 7.70003 407.71 6.52001 408.86 5.61001C409.34 5.37001 409.92 5.23001 410.59 5.18001C411.26 5.13001 411.97 5.22001 412.71 5.43001C413.45 5.65001 414.19 6.01003 414.91 6.51003C415.63 7.01003 416.28 7.67001 416.85 8.49001C416.85 9.83001 416.74 11 416.53 11.98C416.31 12.96 416.33 13.98 416.57 15.04C416.71 15.81 416.76 16.52 416.71 17.16C416.66 17.81 416.3 18.47 415.63 19.14H415.62ZM409.71 26.06C410.77 25.1 411.75 24.42 412.66 24.01C413.57 23.6 414.56 23.5 415.61 23.69C415.8 23.69 416.01 23.97 416.22 24.52C416.44 25.07 416.52 25.54 416.47 25.92C416.23 27.6 416.07 29.51 416 31.64C415.93 33.77 415.93 35.96 416 38.19C416.07 40.42 416.22 42.61 416.43 44.74C416.65 46.88 416.92 48.76 417.26 50.39C417.45 51.06 417.56 51.77 417.58 52.51C417.6 53.25 417.62 53.99 417.62 54.71C417.62 55.05 417.57 55.39 417.48 55.75C417.38 56.11 417.24 56.34 417.05 56.43C416.76 56.53 416.31 56.57 415.68 56.57C415.05 56.57 414.6 56.55 414.31 56.5C413.73 56.4 413.11 56.19 412.44 55.85C411.77 55.51 411.14 55.08 410.57 54.55C409.99 54.02 409.54 53.37 409.2 52.61C408.86 51.84 408.72 50.95 408.77 49.95C408.82 48.61 408.94 47 409.13 45.13C409.32 43.26 409.51 41.34 409.71 39.37C409.9 37.4 410.07 35.48 410.21 33.61C410.35 31.74 410.38 30.11 410.28 28.71C410.23 28.28 410.15 27.85 410.03 27.41C409.91 26.98 409.8 26.52 409.71 26.04V26.06Z" fill="#010000"/>
<path d="M436.21 25.9101C435.25 26.2501 434.53 26.6801 434.05 27.2101C433.57 27.7401 432.99 28.4101 432.32 29.2301C431.65 30.0901 431.16 31.2001 430.84 32.5401C430.53 33.8801 430.32 35.3701 430.23 37.0001V40.3501C430.23 41.3301 430.24 42.2901 430.27 43.2301C430.29 44.1701 430.32 45.1301 430.34 46.1101C430.36 47.0901 430.38 48.2101 430.38 49.4601C430.38 49.9901 430.43 50.5301 430.52 51.0801C430.62 51.6301 430.71 52.3201 430.81 53.1301C430.57 53.2701 430.25 53.3801 429.84 53.4501C429.43 53.5201 429.01 53.5701 428.58 53.5901C428.15 53.6101 427.73 53.6001 427.32 53.5501C426.91 53.5001 426.61 53.4301 426.42 53.3301C425.89 53.0401 425.35 52.6601 424.8 52.1801C424.25 51.7001 423.8 51.2001 423.47 50.6701C423.28 50.3801 423.16 50.0301 423.11 49.6301C423.06 49.2201 423.09 48.8301 423.18 48.4401C423.8 45.5601 424.04 42.5101 423.9 39.3001C423.8 36.8501 423.69 34.5601 423.58 32.4201C423.46 30.2801 423.4 27.9401 423.4 25.4001C424.02 24.7301 424.72 24.3901 425.49 24.3901C426.26 24.3901 426.81 24.5801 427.15 24.9701C427.25 25.0701 427.49 25.3701 427.87 25.8701C428.25 26.3701 428.49 26.7201 428.59 26.9101C429.93 25.4701 431.41 24.2601 433.02 23.2701C434.63 22.2901 436.27 21.3601 437.95 20.5001C438.81 20.0701 439.68 19.8501 440.54 19.8501C441.4 19.8501 442.17 20.1901 442.84 20.8601C443.66 21.6801 444.3 22.5501 444.78 23.4901C445.26 24.4301 445.62 25.4501 445.86 26.5501L448.24 37.0601C448.77 39.2201 449.31 41.2001 449.86 43.0001C450.41 44.8001 450.98 46.7601 451.55 48.8701C451.65 49.5901 451.67 50.4101 451.62 51.3201C451.57 52.2301 451.48 53.1201 451.33 53.9801C451.28 54.2201 451.14 54.5301 450.9 54.9201C450.66 55.3001 450.42 55.5401 450.18 55.6401C449.94 55.7801 449.59 55.8901 449.14 55.9601C448.68 56.0301 448.18 56.0601 447.63 56.0301C447.08 56.0101 446.55 55.9501 446.05 55.8501C445.55 55.7501 445.13 55.5901 444.79 55.3501C442.63 54.0101 441.38 52.1401 441.05 49.7301C440.67 47.9101 440.34 46.1801 440.08 44.5501C439.82 42.9201 439.52 41.1901 439.18 39.3701C438.8 37.6001 438.45 36.0001 438.14 34.5801C437.83 33.1601 437.53 31.6201 437.24 29.9401L436.23 25.9101H436.21Z" fill="#010000"/>
<path d="M465.94 68.9701C466.56 68.7801 467.1 68.0801 467.56 66.8801C468.02 65.6801 468.39 64.22 468.68 62.49C468.97 60.76 469.18 58.88 469.33 56.84C469.47 54.8 469.57 52.84 469.62 50.97C469.09 51.21 468.61 51.43 468.18 51.62C467.75 51.81 467.24 52.03 466.67 52.27C465.28 52.89 463.94 53.07 462.67 52.81C461.4 52.55 460.31 52.05 459.39 51.33C458.38 50.42 457.64 49.4 457.16 48.27C456.68 47.14 456.44 45.98 456.44 44.78C456.44 43.77 456.54 42.6101 456.73 41.2901C456.92 39.9701 457.19 38.6301 457.52 37.2601C457.85 35.8901 458.24 34.59 458.67 33.34C459.1 32.09 459.53 31.0401 459.97 30.1701C460.16 29.8801 460.33 29.61 460.47 29.34C460.61 29.08 460.81 28.83 461.05 28.58C461.43 28.1 461.99 27.63 462.71 27.18C463.43 26.72 464.21 26.34 465.05 26.03C465.89 25.72 466.71 25.5001 467.5 25.3801C468.29 25.2601 468.95 25.3 469.48 25.49C470.06 25.73 470.64 25.9501 471.24 26.1401C471.84 26.3301 472.4 26.4801 472.93 26.5701C474.18 26.8101 475.16 27.19 475.88 27.72C476.6 28.25 477.39 28.94 478.26 29.81C478.5 30.15 478.75 30.78 479.02 31.72C479.28 32.66 479.32 33.5301 479.13 34.3501C478.99 34.6901 478.85 35.18 478.73 35.83C478.61 36.48 478.49 37.14 478.37 37.81C478.25 38.48 478.15 39.13 478.08 39.75C478.01 40.37 477.97 40.81 477.97 41.05C477.87 43.35 477.74 45.67 477.57 48C477.4 50.33 477.29 52.6401 477.25 54.9501C477.25 57.0601 477.2 58.98 477.11 60.71C477.01 62.44 476.87 64.3601 476.68 66.4701C476.58 66.9501 476.45 67.5001 476.28 68.1301C476.11 68.7501 475.9 69.3901 475.63 70.0401C475.37 70.6901 475.07 71.3001 474.73 71.8801C474.39 72.4601 474.03 72.9601 473.65 73.3901C472.83 74.3001 471.68 75.02 470.19 75.55C468.7 76.08 467.12 76.25 465.44 76.05C464.43 75.95 463.3 75.6901 462.06 75.2601C460.81 74.8301 459.76 74.3501 458.89 73.8201C457.93 73.2901 457.03 72.7 456.19 72.06C455.35 71.41 454.59 70.7901 453.92 70.1901C453.25 69.5901 452.67 69.04 452.19 68.53C451.71 68.03 451.37 67.6501 451.18 67.4101C449.69 65.8701 449.28 64.4801 449.96 63.2301C450.1 62.9401 450.32 62.73 450.61 62.58C450.9 62.44 451.16 62.22 451.4 61.93C451.88 61.69 452.48 61.7301 453.2 62.0401C453.92 62.3501 454.62 62.8901 455.29 63.6601C456.15 64.6201 457.04 65.46 457.95 66.18C458.86 66.9 460.16 67.69 461.84 68.56C462.32 68.8 462.88 68.9901 463.53 69.1401C464.18 69.2801 464.98 69.2401 465.94 69V68.9701ZM462.42 48.6601C463.52 48.7101 464.65 48.5601 465.8 48.2301C466.95 47.9001 467.74 47.32 468.18 46.5C468.56 45.68 468.85 44.7 469.04 43.55C469.23 42.4 469.35 41.21 469.4 39.99C469.45 38.77 469.45 37.5501 469.4 36.3501C469.35 35.1501 469.3 34.12 469.26 33.25C468.83 32.63 468.24 32.1701 467.5 31.8801C466.76 31.5901 466.05 31.64 465.38 32.02C465.04 32.31 464.72 32.62 464.41 32.96C464.1 33.3 463.85 33.6601 463.65 34.0401C463.36 34.6201 463.05 35.37 462.71 36.31C462.37 37.25 462.06 38.2301 461.77 39.2601C461.48 40.2901 461.24 41.3 461.05 42.28C460.86 43.26 460.79 44.0901 460.83 44.7601C460.93 45.4801 461.03 46.1801 461.15 46.8501C461.27 47.5201 461.69 48.12 462.41 48.65L462.42 48.6601Z" fill="#010000"/>
<path d="M532.18 22.9601C531.75 22.8201 531.41 22.6701 531.17 22.5301C530.93 22.3901 530.73 22.2201 530.56 22.0301C530.39 21.8401 530.24 21.6301 530.09 21.4201C529.94 21.2101 529.75 20.9501 529.51 20.6601C529.22 20.1301 528.98 19.5701 528.79 18.9701C528.6 18.3701 528.38 17.7801 528.14 17.2101C527.71 16.2501 526.88 15.4201 525.66 14.7301C524.44 14.0301 523.06 13.8101 521.52 14.0501C520.27 14.2901 519.3 14.6901 518.6 15.2401C517.9 15.7901 517.22 16.6001 516.55 17.6501C516.02 18.7501 515.52 19.7301 515.04 20.5701C514.56 21.4101 514.25 22.3301 514.1 23.3401C513.72 25.8401 513.39 28.3201 513.13 30.7901C512.87 33.2601 513.05 35.7701 513.67 38.3101C514.01 39.8901 514.46 41.4101 515.04 42.8501C515.62 44.2901 516.38 45.6801 517.34 47.0301C517.87 47.7001 518.71 48.3001 519.86 48.8301C521.01 49.3601 522.09 49.7401 523.1 49.9801C523.53 50.0801 523.99 50.0901 524.47 50.0201C524.95 49.9501 525.38 49.8201 525.77 49.6201C526.83 49.0901 527.89 48.3701 528.97 47.4601C530.05 46.5501 530.88 45.5601 531.45 44.5101C531.69 42.7801 531.82 40.8701 531.85 38.7901C531.87 36.7001 531.93 34.6501 532.03 32.6301C531.69 32.7701 531.28 32.9301 530.81 33.1001C530.33 33.2701 529.85 33.4501 529.37 33.6401C528.89 33.8301 528.43 34.0001 528 34.1401C527.57 34.2801 527.23 34.4001 526.99 34.5001C526.27 34.7401 525.62 34.8601 525.05 34.8601C524.47 34.9101 523.96 34.7901 523.5 34.5001C523.04 34.2101 522.62 33.9201 522.24 33.6401C521.81 33.2601 521.46 32.7201 521.2 32.0201C520.94 31.3201 520.85 30.7401 520.95 30.2601C521.33 29.9301 521.67 29.6401 521.96 29.4001C522.25 29.1601 522.58 28.9701 522.97 28.8201C523.98 28.4901 524.85 28.1701 525.6 27.8801C526.34 27.5901 527.03 27.3601 527.65 27.2001C528.27 27.0301 528.86 26.8901 529.41 26.7701C529.96 26.6501 530.57 26.5701 531.25 26.5201C532.26 26.3301 533.29 26.2101 534.35 26.1601C535.41 26.1101 536.46 26.0401 537.52 25.9401C538 25.8901 538.41 25.8701 538.74 25.8701H539.64C539.9 25.8701 540.18 25.8901 540.47 25.9401C540.76 25.9901 541.09 26.0401 541.48 26.0801C541.77 26.2201 542.01 26.4501 542.2 26.7601C542.39 27.0701 542.5 27.4201 542.52 27.8001C542.54 28.1801 542.47 28.5601 542.3 28.9201C542.13 29.2801 541.86 29.5601 541.47 29.7501C540.85 29.9901 540.17 30.1501 539.45 30.2201C538.73 30.2901 537.96 30.4501 537.15 30.6901C536.91 30.7901 536.63 30.8701 536.32 30.9401C536.01 31.0101 535.8 31.1001 535.71 31.1901C535.81 33.0201 535.94 35.0701 536.11 37.3501C536.28 39.6301 536.39 41.6801 536.43 43.5101C536.43 44.9501 536.19 46.2501 535.71 47.4001C535.23 48.5501 534.62 49.5701 533.87 50.4601C533.12 51.3501 532.32 52.1201 531.46 52.7601C530.6 53.4101 529.78 53.9501 529.01 54.3801C528.77 54.5201 528.48 54.7001 528.15 54.9201C527.81 55.1401 527.48 55.2901 527.14 55.3901C526.32 55.6801 525.49 55.9201 524.66 56.1101C523.82 56.3001 522.99 56.4901 522.18 56.6901C521.89 56.7401 521.58 56.7301 521.24 56.6501C520.9 56.5801 520.57 56.4901 520.23 56.4001C518.89 56.0201 517.52 55.5201 516.13 54.9201C514.74 54.3201 513.63 53.6801 512.82 53.0101C510.76 51.2301 508.97 49.3101 507.46 47.2501C505.95 45.1901 504.88 42.7901 504.26 40.0501C504.07 38.8501 503.86 37.6401 503.65 36.4101C503.43 35.1901 503.28 33.9501 503.18 32.7001C502.94 29.9601 502.95 27.4201 503.22 25.0701C503.48 22.7201 504.07 20.2501 504.98 17.6501C505.75 16.3501 506.64 15.0601 507.64 13.7601C508.64 12.4601 509.76 11.2801 510.99 10.2001C512.21 9.1201 513.52 8.1801 514.91 7.3901C516.3 6.6001 517.79 6.06007 519.37 5.77007C519.85 5.72007 520.43 5.76009 521.1 5.88009C521.77 6.00009 522.47 6.16009 523.19 6.35009C523.91 6.54009 524.61 6.75008 525.28 6.96008C525.95 7.18008 526.53 7.38009 527.01 7.57009C528.55 8.19009 529.75 8.93007 530.61 9.77007C531.47 10.6101 532.27 11.9401 532.99 13.7701C533.42 14.8701 533.78 15.9201 534.07 16.9001C534.36 17.8801 534.55 18.6901 534.65 19.3101C534.7 19.6901 534.64 20.0801 534.47 20.4601C534.3 20.8401 534.09 21.2101 533.82 21.5401C533.56 21.8801 533.27 22.1601 532.96 22.4001C532.65 22.6401 532.4 22.8301 532.2 22.9801L532.18 22.9601Z" fill="#010000"/>
<path d="M567.89 45.64C568.66 47.08 568.96 48.17 568.79 48.92C568.62 49.67 567.84 50.37 566.45 51.04C564.91 51.81 563.28 52.34 561.55 52.62C559.82 52.9 558.11 52.93 556.4 52.69C554.7 52.45 553.05 51.92 551.47 51.11C549.89 50.29 548.47 49.14 547.22 47.65C546.21 46.5 545.5 45.23 545.1 43.83C544.69 42.44 544.37 41.02 544.13 39.58C543.79 36.56 543.9 33.62 544.45 30.76C545 27.9 546.24 25.2 548.16 22.66C548.83 21.84 549.55 21.15 550.32 20.57C551.09 19.99 552.02 19.87 553.13 20.21C553.42 20.31 553.72 20.4 554.03 20.5C554.34 20.6 554.64 20.6 554.93 20.5C556.32 20.26 557.68 20.39 559 20.9C560.32 21.4 561.39 22.11 562.2 23.02C562.73 23.55 563.27 24.11 563.82 24.71C564.37 25.31 564.84 25.9 565.22 26.47C565.75 27.29 566.25 28.23 566.73 29.31C567.21 30.39 567.38 31.48 567.23 32.59C567.23 33.21 567.16 33.77 567.01 34.25C566.72 34.35 566.45 34.45 566.18 34.57C565.92 34.69 565.62 34.8 565.28 34.89C563.79 35.37 562.32 35.86 560.85 36.37C559.39 36.87 557.91 37.44 556.42 38.06C555.41 38.44 554.31 38.63 553.11 38.6C551.91 38.58 551.05 38.42 550.52 38.13L549.22 37.41C549.22 39.14 549.47 40.69 549.98 42.05C550.49 43.41 551.2 44.55 552.14 45.43C553.08 46.32 554.18 46.93 555.45 47.27C556.72 47.61 558.12 47.58 559.66 47.2C560.86 46.91 562.02 46.56 563.15 46.16C564.28 45.75 565.47 45.55 566.71 45.55C566.9 45.55 567.09 45.56 567.29 45.59C567.48 45.61 567.67 45.63 567.87 45.63L567.89 45.64ZM549.1 35.56C549.82 35.56 550.49 35.39 551.12 35.06C551.74 34.72 552.44 34.36 553.21 33.98C553.98 33.55 554.89 33.08 555.95 32.58C557.01 32.08 557.92 31.63 558.69 31.25C558.26 29.67 557.57 28.51 556.64 27.79C555.71 27.07 554.68 26.59 553.58 26.35C552.86 26.73 552.18 27.27 551.53 27.97C550.88 28.67 550.34 29.42 549.91 30.24C549.48 31.06 549.18 31.93 549.01 32.87C548.84 33.81 548.88 34.71 549.12 35.57L549.1 35.56Z" fill="#010000"/>
<path d="M573.87 52.84C573.39 51.74 573.34 50.15 573.73 48.09C574.11 46.07 574.26 44.11 574.16 42.19C574.06 40.27 573.99 38.4 573.94 36.57C573.94 35.71 573.9 34.7 573.83 33.55C573.76 32.4 573.66 31.22 573.54 30.02C573.42 28.82 573.3 27.61 573.18 26.38C573.06 25.16 572.93 24.04 572.78 23.03C573.4 22.89 574.05 22.84 574.72 22.89C575.39 22.94 576 23.08 576.56 23.32C577.11 23.56 577.59 23.87 578 24.26C578.41 24.64 578.68 25.05 578.83 25.48C578.98 25.91 579.08 26.49 579.15 27.21C579.22 27.93 579.28 28.69 579.33 29.48C579.38 30.27 579.41 31.05 579.44 31.82C579.46 32.59 579.45 33.24 579.4 33.76C580.74 31.36 582.57 29.33 584.87 27.68C587.17 26.02 590.29 24.62 594.23 23.47C595.86 22.99 597.22 22.99 598.3 23.47C599.38 23.95 600.21 24.74 600.78 25.85C601.4 27.1 601.57 28.23 601.28 29.23C600.99 30.23 600.22 31.27 598.98 32.33C598.36 32.47 597.91 32.34 597.65 31.93C597.39 31.52 597.25 30.98 597.25 30.31C597.25 29.83 597.24 29.4 597.21 29.01C597.19 28.63 597.05 28.34 596.81 28.15C596.23 28.2 595.65 28.22 595.05 28.22C594.45 28.22 593.86 28.29 593.29 28.44C592.47 28.63 591.66 28.98 590.84 29.48C590.02 29.98 589.26 30.5 588.54 31.03C587.68 31.7 586.87 32.58 586.13 33.66C585.39 34.74 584.75 35.98 584.22 37.37C583.4 39.63 582.89 41.89 582.67 44.17C582.45 46.45 582.66 48.77 583.28 51.12C583.38 51.55 583.46 52 583.53 52.45C583.6 52.91 583.71 53.33 583.85 53.71C583.95 54.09 583.91 54.43 583.74 54.72C583.57 55.01 583.33 55.26 583.02 55.48C582.71 55.7 582.35 55.88 581.94 56.02C581.53 56.16 581.16 56.28 580.82 56.38C579.96 56.48 579.12 56.42 578.3 56.2C577.48 55.98 576.75 55.7 576.1 55.34C575.45 54.98 574.92 54.58 574.52 54.15C574.11 53.72 573.88 53.29 573.84 52.85L573.87 52.84Z" fill="#010000"/>
<path d="M650.48 20.15C649.71 19.53 649 19.02 648.36 18.64C647.71 18.26 646.98 17.82 646.16 17.34C645.73 17.1 645.24 16.91 644.68 16.76C644.13 16.62 643.59 16.59 643.06 16.69C641.57 16.88 640.18 17.17 638.88 17.55C637.58 17.93 636.34 18.32 635.14 18.7C634.71 18.94 634.28 19.24 633.84 19.6C633.4 19.96 633 20.33 632.62 20.72C632.33 20.96 632.14 21.28 632.04 21.69C631.94 22.1 631.91 22.51 631.93 22.91C631.95 23.32 632.05 23.69 632.22 24.03C632.39 24.37 632.59 24.61 632.83 24.75C633.36 25.28 633.92 25.71 634.52 26.05C635.12 26.39 635.71 26.67 636.28 26.91C636.9 27.29 637.68 27.73 638.62 28.21C639.56 28.69 640.53 29.17 641.54 29.65C642.55 30.13 643.53 30.6 644.49 31.05C645.45 31.51 646.27 31.9 646.94 32.24C648.86 33.3 650.55 34.45 652.02 35.7C653.48 36.95 654.46 38.51 654.94 40.38C655.18 41.39 655.22 42.55 655.05 43.87C654.88 45.19 654.55 46.47 654.04 47.72C653.54 48.97 652.9 50.13 652.13 51.21C651.36 52.29 650.52 53.07 649.61 53.55C648.84 53.93 648.01 54.34 647.13 54.77C646.24 55.2 645.32 55.59 644.36 55.92C643.4 56.25 642.45 56.52 641.52 56.71C640.58 56.9 639.68 56.97 638.82 56.93C638.29 56.93 637.76 56.98 637.24 57.07C636.71 57.17 636.21 57.19 635.73 57.14C634.58 57 633.38 56.86 632.13 56.74C630.88 56.62 629.66 56.42 628.46 56.13C627.26 55.84 626.16 55.45 625.15 54.94C624.14 54.44 623.28 53.71 622.56 52.74C622.22 52.36 621.92 51.94 621.66 51.48C621.4 51.02 621.43 50.46 621.77 49.79C621.82 49.6 621.93 49.33 622.09 49L622.63 47.92C623.78 46.91 625.03 46.23 626.37 45.87C627.71 45.51 629.23 45.62 630.91 46.19C631.1 46.62 631.61 47.04 632.42 47.45C633.24 47.86 634.15 48.21 635.16 48.49C636.17 48.77 637.18 48.99 638.18 49.14C639.19 49.28 639.98 49.28 640.56 49.14C642.38 48.76 643.76 47.92 644.7 46.62C645.64 45.32 646.15 43.84 646.25 42.16C646.2 41.82 646.14 41.42 646.07 40.94C646 40.46 645.84 40.1 645.6 39.86C644.74 39.04 643.78 38.23 642.72 37.41C641.66 36.59 640.61 35.83 639.55 35.11C638.49 34.39 637.52 33.77 636.63 33.24C635.74 32.71 635.01 32.33 634.43 32.09C633.57 31.61 632.68 31.2 631.77 30.87C630.86 30.54 629.99 30.1 629.18 29.57C628.17 28.9 627.32 28.15 626.62 27.34C625.92 26.52 625.53 25.49 625.43 24.24C625.33 23.9 625.19 23.59 625 23.3C624.81 23.01 624.62 22.72 624.42 22.44C623.32 20.62 623.15 18.86 623.92 17.18C624.69 15.5 626.08 13.84 628.1 12.21C629.16 11.35 630.4 10.66 631.84 10.16C633.28 9.66 634.77 9.29999 636.3 9.07999C637.84 8.85999 639.37 8.76001 640.91 8.76001C642.45 8.76001 643.86 8.83001 645.16 8.98001C645.93 9.08001 646.68 9.28 647.43 9.59C648.17 9.9 648.91 10.27 649.63 10.71C650.49 11.24 651.05 11.96 651.29 12.87C651.43 13.3 651.59 13.87 651.76 14.56C651.93 15.26 652.01 15.96 652.01 16.68C652.01 17.4 651.9 18.08 651.69 18.73C651.47 19.38 651.08 19.85 650.5 20.13L650.48 20.15Z" fill="#010000"/>
<path d="M665.23 55.9401C663.84 56.1801 662.66 56.0101 661.7 55.4401C660.74 54.8601 659.85 54.1001 659.04 53.1401C658.8 52.9001 658.63 52.6101 658.54 52.2801C658.44 51.9401 658.4 51.6301 658.4 51.3401C658.4 50.8601 658.45 50.3801 658.54 49.9001C658.64 49.4201 658.73 48.9401 658.83 48.4601C659.07 47.3101 659.29 46.0801 659.48 44.7901C659.67 43.4901 659.77 42.2201 659.77 40.9701C659.72 39.2401 659.71 37.5101 659.73 35.7901C659.75 34.0601 659.77 32.3601 659.77 30.6801C659.72 28.0401 659.87 25.4401 660.2 22.8701C660.54 20.3001 660.92 17.7201 661.35 15.1301C661.45 14.6001 661.49 14.0501 661.49 13.4701V11.8101C661.49 11.5201 661.45 11.2301 661.38 10.9501C661.31 10.6601 661.32 10.3701 661.42 10.0901C661.47 9.85013 661.56 9.59012 661.71 9.30012C661.86 9.01012 662.02 8.82013 662.21 8.72013C662.35 8.62013 662.56 8.60012 662.82 8.65012C663.08 8.70012 663.34 8.77013 663.58 8.87013C664.25 9.01013 665 9.17013 665.81 9.34013C666.63 9.51013 667.49 9.93014 668.4 10.6001C668.54 11.1301 668.7 11.6601 668.87 12.1801C669.04 12.7101 669.17 13.2401 669.27 13.7601C669.37 15.1501 669.4 16.3301 669.38 17.2901C669.36 18.2501 669.2 19.4001 668.91 20.7501C668.67 21.7101 668.51 22.6601 668.44 23.5901C668.37 24.5301 668.21 25.4301 667.97 26.2901C667.83 26.9101 667.79 27.5001 667.86 28.0501C667.93 28.6001 668.01 29.0001 668.11 29.2401C668.93 28.8601 669.74 28.5401 670.56 28.3001C671.38 28.0601 672.17 27.9701 672.94 28.0101C673.9 28.0601 674.79 28.3201 675.6 28.8001C676.42 29.2801 677.02 30.0701 677.4 31.1801C677.88 32.5701 678.38 34.1001 678.91 35.7501C679.44 37.4101 679.97 38.9301 680.49 40.3201C681.31 42.4801 682.06 44.4201 682.76 46.1501C683.46 47.8801 684.07 49.4101 684.6 50.7601C684.84 51.3401 685.12 51.8901 685.43 52.4201C685.74 52.9501 686.09 53.4801 686.47 54.0001C686.76 54.3801 686.87 54.7501 686.79 55.0801C686.72 55.4101 686.63 55.7801 686.54 56.1601C686.35 56.6901 686 57.0201 685.5 57.1701C685 57.3101 684.55 57.1901 684.17 56.8101C683.45 56.0901 682.84 55.3101 682.33 54.4701C681.83 53.6301 681.36 52.7301 680.93 51.7701C680.59 51.0501 680.14 49.9101 679.56 48.3501C678.98 46.7901 678.36 45.1501 677.69 43.4201C676.92 41.5501 676.19 39.6501 675.49 37.7301C674.79 35.8101 674.06 34.3201 673.29 33.2701C672.38 33.1701 671.62 33.4401 671.02 34.0601C670.42 34.6801 669.93 35.3101 669.54 35.9301C669.11 36.6001 668.77 37.3301 668.53 38.1301C668.29 38.9201 668.1 39.6101 667.95 40.1801C667.76 40.9501 667.61 41.6001 667.52 42.1201C667.42 42.6501 667.33 43.3001 667.23 44.0601C667.18 44.3501 667.17 44.6401 667.19 44.9201C667.21 45.2101 667.23 45.5001 667.23 45.7801C667.28 46.9801 667.3 48.1601 667.3 49.3101V53.5601C667.35 53.8001 667.31 54.1601 667.19 54.6401C667.07 55.1201 666.72 55.4801 666.15 55.7201L665.21 55.9401H665.23Z" fill="#010000"/>
<path d="M687.05 41.75C686.91 40.84 686.98 39.96 687.27 39.12C687.56 38.28 687.94 37.38 688.42 36.42C689.04 35.08 689.7 33.76 690.4 32.46C691.1 31.16 691.83 29.82 692.6 28.43C693.75 26.32 695.7 24.66 698.43 23.46C699.63 22.88 700.77 22.68 701.85 22.85C702.93 23.02 704.05 23.29 705.2 23.68C707.5 24.3 709.1 25.36 709.99 26.85C710.88 28.34 711.44 30.02 711.68 31.89C711.82 33.57 711.76 35.21 711.5 36.82C711.24 38.43 710.94 40.07 710.6 41.75C710.46 42.76 710.2 43.74 709.84 44.7C709.48 45.66 709.06 46.64 708.58 47.65C708.48 47.94 708.35 48.19 708.18 48.41C708.01 48.63 707.81 48.8299 707.57 49.0199C707.33 49.2599 707.09 49.4299 706.85 49.5199C706.61 49.6199 706.47 49.7799 706.42 50.0199C705.99 50.9299 705.3 51.57 704.37 51.93C703.44 52.29 702.46 52.5899 701.45 52.8299C700.35 52.9699 699.31 53.02 698.35 52.97C697.39 52.92 696.45 52.61 695.54 52.03C695.44 51.93 695.3 51.86 695.11 51.81C694.92 51.76 694.75 51.74 694.61 51.74C693.17 51.2099 691.97 50.6599 691.01 50.0799C690.05 49.4999 689.28 48.83 688.71 48.06C688.13 47.29 687.71 46.3899 687.45 45.3599C687.19 44.3299 687.05 43.12 687.05 41.72V41.75ZM705.55 29.44C704.97 29.3 704.49 29.2 704.11 29.15C703.73 29.1 703.4 29.11 703.14 29.19C702.88 29.26 702.61 29.4 702.35 29.59C702.09 29.78 701.79 30.07 701.45 30.45L699.22 33.76C698.36 35.34 697.72 36.77 697.31 38.04C696.9 39.31 696.48 40.79 696.05 42.47C695.91 43.29 695.95 44.0399 696.19 44.74C696.43 45.44 696.79 46.0499 697.27 46.5799C697.75 47.1099 698.3 47.53 698.93 47.84C699.55 48.15 700.15 48.31 700.73 48.31C702.22 48.31 703.41 47.91 704.29 47.12C705.18 46.33 705.79 45.24 706.13 43.84L706.85 40.38C706.99 39.23 707.17 38.03 707.39 36.78C707.61 35.53 707.55 34.28 707.21 33.04C707.07 32.46 706.89 31.82 706.67 31.1C706.45 30.38 706.08 29.83 705.55 29.44Z" fill="#010000"/>
<path d="M723.91 50.3901C724.1 51.8801 724.37 53.6201 724.7 55.6101C725.04 57.6001 725.4 59.5901 725.78 61.5901C726.16 63.5801 726.55 65.4701 726.93 67.2401C727.31 69.0201 727.67 70.4601 728.01 71.5601C728.15 72.0901 728.25 72.7101 728.3 73.4301C728.35 74.1501 728.06 74.7701 727.44 75.3001C725.86 75.3001 724.55 75.0201 723.52 74.4701C722.49 73.9201 721.44 73.2601 720.39 72.4901C720.1 72.3001 719.84 71.9901 719.6 71.5501C719.36 71.1201 719.16 70.6501 718.99 70.1501C718.82 69.6501 718.67 69.1301 718.52 68.6001C718.38 68.0701 718.26 67.6201 718.16 67.2301C717.92 66.3201 717.8 65.4101 717.8 64.4901C717.8 63.5701 717.75 62.6401 717.66 61.6801C717.56 60.4801 717.47 59.0501 717.37 57.4001C717.27 55.7401 717.16 54.0301 717.05 52.2501C716.93 50.4701 716.82 48.7601 716.73 47.1001C716.63 45.4401 716.56 44.0201 716.51 42.8201C716.46 41.5701 716.5 40.3101 716.62 39.0401C716.74 37.7701 716.85 36.5101 716.94 35.2601L717.59 26.4801C718.26 26.1901 719.01 26.1201 719.82 26.2601C720.64 26.4001 721.16 26.6701 721.4 27.0501C721.59 27.3901 721.75 27.7501 721.87 28.1301C721.99 28.5101 722.03 28.9701 721.98 29.5001C721.98 29.6901 722.02 29.9701 722.09 30.3301C722.16 30.6901 722.25 31.0601 722.34 31.4501C722.44 31.8301 722.56 32.1801 722.7 32.4901C722.84 32.8001 722.99 33.0301 723.13 33.1701C723.32 32.9301 723.51 32.6801 723.71 32.4101C723.9 32.1501 724.04 31.8901 724.14 31.6501C724.48 30.9301 724.85 30.3101 725.26 29.7801C725.67 29.2501 726.11 28.7501 726.59 28.2701C727.07 27.7901 727.56 27.3201 728.07 26.8701C728.58 26.4201 729.11 25.9201 729.69 25.3901C730.55 24.5301 731.54 23.8701 732.64 23.4101C733.74 22.9501 734.87 22.6501 736.02 22.5101C737.56 22.2701 739.03 22.4701 740.45 23.1201C741.87 23.7701 742.91 24.7601 743.58 26.1101C745.07 29.2301 746.03 32.2901 746.46 35.2901C746.89 38.2901 746.32 41.4501 744.73 44.7601C743.24 47.8801 741.15 50.4201 738.47 52.3901C738.18 52.5801 737.82 52.7501 737.39 52.8901C736.96 53.0301 736.49 53.1501 735.99 53.2501C735.49 53.3501 735.01 53.4101 734.55 53.4301C734.09 53.4601 733.7 53.4401 733.36 53.3901C732.54 53.2501 731.74 53.0701 730.95 52.8501C730.16 52.6301 729.35 52.3801 728.54 52.0901C727.87 51.8501 727.16 51.5601 726.42 51.2301C725.68 50.8901 724.85 50.6101 723.94 50.3701L723.91 50.3901ZM740.98 31.3801C740.74 30.0401 740.36 29.0001 739.83 28.2801C739.3 27.5601 738.68 27.1301 737.96 26.9801C737.24 26.8401 736.46 26.9601 735.62 27.3401C734.78 27.7201 733.93 28.3001 733.06 29.0701C731.24 30.6501 729.6 32.4101 728.16 34.3301C726.72 36.2501 725.59 38.3901 724.78 40.7401C724.06 42.7601 724.71 43.9601 726.72 44.3401C727.63 44.5301 728.53 44.6601 729.42 44.7401C730.31 44.8101 731.18 44.9701 732.05 45.2101C733.39 45.5901 734.55 45.5501 735.51 45.0701C736.47 44.5901 737.36 43.9201 738.17 43.0501C739.13 42.0901 739.95 40.9401 740.62 39.5901C741.29 38.2501 741.58 36.4701 741.48 34.2601L740.98 31.3801Z" fill="#010000"/>
</svg>
