<svg width="113" height="51" viewBox="0 0 113 51" fill="none" xmlns="http://www.w3.org/2000/svg">
<path d="M28.9931 13.5765C28.2231 12.9565 27.5131 12.4465 26.8731 12.0665C26.2231 11.6865 25.4931 11.2465 24.6731 10.7665C24.2431 10.5265 23.7531 10.3365 23.1931 10.1865C22.6431 10.0465 22.1031 10.0165 21.5731 10.1165C20.0831 10.3065 18.6931 10.5965 17.3931 10.9765C16.0931 11.3565 14.8531 11.7465 13.6531 12.1265C13.2231 12.3665 12.7931 12.6665 12.3531 13.0265C11.9131 13.3865 11.5131 13.7565 11.1331 14.1465C10.8431 14.3865 10.6531 14.7065 10.5531 15.1165C10.4531 15.5265 10.4231 15.9365 10.4431 16.3365C10.4631 16.7465 10.5631 17.1165 10.7331 17.4565C10.9031 17.7965 11.1031 18.0365 11.3431 18.1765C11.8731 18.7065 12.4331 19.1365 13.0331 19.4765C13.6331 19.8165 14.2231 20.0965 14.7931 20.3365C15.4131 20.7165 16.1931 21.1565 17.1331 21.6365C18.0731 22.1165 19.0431 22.5965 20.0531 23.0765C21.0631 23.5565 22.0431 24.0265 23.0031 24.4765C23.9631 24.9365 24.7831 25.3265 25.4531 25.6665C27.3731 26.7265 29.0631 27.8765 30.5331 29.1265C31.9931 30.3765 32.9731 31.9365 33.4531 33.8065C33.6931 34.8165 33.7331 35.9765 33.5631 37.2965C33.3931 38.6165 33.0631 39.8965 32.5531 41.1465C32.0531 42.3965 31.4131 43.5565 30.6431 44.6365C29.8731 45.7165 29.0331 46.4965 28.1231 46.9765C27.3531 47.3565 26.5231 47.7665 25.6431 48.1965C24.7531 48.6265 23.8331 49.0165 22.8731 49.3465C21.9131 49.6765 20.9631 49.9465 20.0331 50.1365C19.0931 50.3265 18.1931 50.3965 17.3331 50.3565C16.8031 50.3565 16.2731 50.4065 15.7531 50.4965C15.2231 50.5965 14.7231 50.6165 14.2431 50.5665C13.0931 50.4265 11.8931 50.2865 10.6431 50.1665C9.39306 50.0465 8.17308 49.8465 6.97308 49.5565C5.77308 49.2665 4.67308 48.8765 3.66308 48.3665C2.65308 47.8665 1.79308 47.1365 1.07308 46.1665C0.733084 45.7865 0.43306 45.3665 0.17306 44.9065C-0.0869401 44.4465 -0.0569242 43.8865 0.283076 43.2165C0.333076 43.0265 0.443083 42.7565 0.603083 42.4265C0.773083 42.0965 0.953061 41.7265 1.14306 41.3465C2.29306 40.3365 3.54308 39.6565 4.88308 39.2965C6.22308 38.9365 7.74306 39.0465 9.42306 39.6165C9.61306 40.0465 10.1231 40.4665 10.9331 40.8765C11.7531 41.2865 12.6631 41.6365 13.6731 41.9165C14.6831 42.1965 15.6931 42.4165 16.6931 42.5665C17.7031 42.7065 18.4931 42.7065 19.0731 42.5665C20.8931 42.1865 22.2731 41.3465 23.2131 40.0465C24.1531 38.7465 24.6631 37.2665 24.7631 35.5865C24.7131 35.2465 24.6531 34.8465 24.5831 34.3665C24.5131 33.8865 24.3531 33.5265 24.1131 33.2865C23.2531 32.4665 22.2931 31.6565 21.2331 30.8365C20.1731 30.0165 19.1231 29.2565 18.0631 28.5365C17.0031 27.8165 16.0331 27.1965 15.1431 26.6665C14.2531 26.1365 13.5231 25.7565 12.9431 25.5165C12.0831 25.0365 11.1931 24.6265 10.2831 24.2965C9.37308 23.9665 8.50308 23.5265 7.69308 22.9965C6.68308 22.3265 5.83306 21.5765 5.14306 20.7665C4.44306 19.9465 4.05306 18.9165 3.95306 17.6665C3.85306 17.3265 3.71307 17.0165 3.52307 16.7265C3.33307 16.4365 3.14308 16.1465 2.94308 15.8665C1.84308 14.0465 1.67308 12.2865 2.44308 10.6065C3.21308 8.92651 4.60307 7.26651 6.62307 5.63651C7.68307 4.7765 8.92306 4.08652 10.3631 3.58652C11.8031 3.08652 13.2931 2.7265 14.8231 2.5065C16.3631 2.2865 17.8931 2.18652 19.4331 2.18652C20.9731 2.18652 22.3831 2.25652 23.6831 2.40652C24.4531 2.50652 25.2031 2.70651 25.9531 3.01651C26.6931 3.32651 27.4331 3.69651 28.1531 4.13651C29.0131 4.66651 29.5631 5.38651 29.8131 6.29651C29.9531 6.72651 30.1131 7.29651 30.2831 7.98651C30.4531 8.68651 30.5331 9.38651 30.5331 10.1065C30.5331 10.8265 30.4231 11.5065 30.2131 12.1565C30.0031 12.8065 29.6031 13.2765 29.0231 13.5565L28.9931 13.5765Z" fill="#010000"/>
<path d="M45.2631 15.5163C45.0731 16.2863 44.8831 17.4363 44.6831 18.9763C44.4931 20.5163 44.2831 22.2064 44.0731 24.0564C43.8531 25.9064 43.6431 27.8263 43.4231 29.8163C43.2031 31.8063 43.0131 33.6663 42.8431 35.3963C42.6731 37.1263 42.5331 38.6364 42.4131 39.9364C42.2931 41.2364 42.2331 42.0964 42.2331 42.5264C42.1831 43.4364 42.0731 44.2663 41.9131 45.0063C41.7431 45.7563 41.4631 46.3663 41.0831 46.8463C40.7031 47.3263 40.2031 47.6663 39.6031 47.8563C39.0031 48.0463 38.2431 48.0463 37.3331 47.8563C37.1931 47.2763 37.1031 46.2863 37.0831 44.8663C37.0531 43.4464 37.0831 41.8463 37.1531 40.0463C37.2231 38.2463 37.3231 36.3164 37.4431 34.2464C37.5631 32.1864 37.7031 30.1863 37.8731 28.2663C38.0431 26.3463 38.2031 24.5863 38.3731 22.9763C38.5431 21.3663 38.7231 20.0864 38.9131 19.1264C39.1531 17.8264 39.3331 16.5564 39.4531 15.3064C39.5731 14.0564 39.4431 12.7863 39.0531 11.4863C38.6731 10.1863 39.1731 9.30634 40.5631 8.82634C41.3831 8.39634 42.2531 8.00635 43.1931 7.67635C44.1331 7.34635 45.1031 6.95635 46.1131 6.52635C46.4931 7.19635 46.9131 8.01633 47.3731 8.97633C47.8331 9.93633 48.3431 10.8763 48.9231 11.7863C49.5031 12.8863 50.0231 13.9463 50.5031 14.9563C50.9831 15.9663 51.6031 17.3364 52.3731 19.0564C53.2331 21.0764 54.2431 23.2463 55.3931 25.5763C56.5431 27.9063 57.6031 30.0763 58.5631 32.0963C58.8031 32.4763 59.0331 32.9263 59.2431 33.4263C59.4631 33.9263 59.7131 34.3963 60.0031 34.8263C60.2431 34.4463 60.4231 34.0064 60.5431 33.5264C60.6631 33.0464 60.7431 32.6863 60.7931 32.4463C61.0831 31.1063 61.4031 29.4663 61.7631 27.5463C62.1231 25.6263 62.4631 23.6663 62.7731 21.6763C63.0831 19.6863 63.3931 17.7463 63.7131 15.8463C64.0231 13.9463 64.3031 12.3564 64.5431 11.0564C64.6431 10.2364 64.7831 9.48633 64.9731 8.78633C65.1631 8.08633 65.3031 7.33634 65.4031 6.51634C65.5031 6.03634 65.5831 5.48634 65.6531 4.85634C65.7231 4.23634 65.7631 3.75634 65.7631 3.41634C65.7131 2.74634 65.8331 2.10633 66.1231 1.50633C66.4131 0.906334 66.8431 0.536339 67.4231 0.386339C67.8531 0.286339 68.4631 0.19633 69.2631 0.0963301C70.0531 -0.00366994 70.6431 -0.0236467 71.0231 0.0263533C72.0331 0.126353 73.0631 0.346346 74.1231 0.706346C75.1831 1.06635 75.8731 1.46635 76.2131 1.89635C76.6431 2.18635 76.8631 2.74635 76.8631 3.58635C76.8631 4.42635 76.7431 5.06635 76.5031 5.49635C75.7831 6.31635 75.3031 7.18636 75.0631 8.12636C74.8231 9.06636 74.5631 10.1564 74.2731 11.4064C74.0331 12.3664 73.7231 13.8163 73.3331 15.7663C72.9531 17.7063 72.5431 19.7663 72.1131 21.9263C71.6831 24.0863 71.2731 26.1464 70.8931 28.1164C70.5131 30.0863 70.1931 31.5763 69.9531 32.5763C69.8131 33.1963 69.6431 34.0563 69.4531 35.1363C69.2631 36.2163 69.0731 37.3363 68.8731 38.4863C68.6831 39.6363 68.5131 40.7263 68.3731 41.7663C68.2331 42.7963 68.1331 43.5563 68.0831 44.0363C68.2731 44.4663 68.2631 44.9563 68.0431 45.5163C67.8231 46.0663 67.5231 46.5963 67.1431 47.0963C66.7631 47.5963 66.3431 48.0463 65.8831 48.4263C65.4231 48.8063 65.0331 49.0764 64.6931 49.2164C63.3531 48.8764 62.0531 48.2063 60.8031 47.1963C59.5531 46.1863 58.6231 45.2064 57.9931 44.2464C57.4631 43.5264 57.0331 42.8463 56.6931 42.1963C56.3531 41.5463 55.9731 40.8164 55.5431 39.9964C55.1131 39.1364 54.7431 38.3564 54.4231 37.6564C54.1131 36.9564 53.8131 36.2863 53.5231 35.6363C53.2331 34.9863 52.9331 34.3163 52.6231 33.6163C52.3131 32.9163 51.9831 32.1364 51.6531 31.2764L46.3931 19.1763C46.2531 18.7463 46.0531 18.2163 45.8131 17.5963C45.5731 16.9763 45.3831 16.2763 45.2331 15.5063L45.2631 15.5163Z" fill="#010000"/>
<path d="M107.543 13.5765C106.773 12.9565 106.063 12.4465 105.423 12.0665C104.773 11.6865 104.043 11.2465 103.223 10.7665C102.793 10.5265 102.303 10.3365 101.743 10.1865C101.193 10.0465 100.653 10.0165 100.123 10.1165C98.6331 10.3065 97.2431 10.5965 95.9431 10.9765C94.6531 11.3565 93.4031 11.7465 92.2031 12.1265C91.7731 12.3665 91.3431 12.6665 90.9131 13.0265C90.4831 13.3865 90.0731 13.7565 89.6931 14.1465C89.4031 14.3865 89.2131 14.7065 89.1131 15.1165C89.0131 15.5265 88.9831 15.9365 89.0031 16.3365C89.0231 16.7465 89.1231 17.1165 89.2931 17.4565C89.4631 17.7965 89.6631 18.0365 89.9031 18.1765C90.4331 18.7065 90.9931 19.1365 91.5931 19.4765C92.1931 19.8165 92.7831 20.0965 93.3531 20.3365C93.9731 20.7165 94.7531 21.1565 95.6931 21.6365C96.6331 22.1165 97.6031 22.5965 98.6131 23.0765C99.6231 23.5565 100.603 24.0265 101.563 24.4765C102.523 24.9365 103.343 25.3265 104.013 25.6665C105.933 26.7265 107.623 27.8765 109.093 29.1265C110.553 30.3765 111.533 31.9365 112.013 33.8065C112.253 34.8165 112.293 35.9765 112.123 37.2965C111.953 38.6165 111.623 39.8965 111.113 41.1465C110.613 42.3965 109.973 43.5565 109.203 44.6365C108.433 45.7165 107.593 46.4965 106.683 46.9765C105.913 47.3565 105.083 47.7665 104.203 48.1965C103.313 48.6265 102.393 49.0165 101.433 49.3465C100.473 49.6765 99.5231 49.9465 98.5931 50.1365C97.6531 50.3265 96.7531 50.3965 95.8931 50.3565C95.3631 50.3565 94.8331 50.4065 94.3131 50.4965C93.7831 50.5965 93.2831 50.6165 92.8031 50.5665C91.6531 50.4265 90.4531 50.2865 89.2031 50.1665C87.9531 50.0465 86.7331 49.8465 85.5331 49.5565C84.3331 49.2665 83.2331 48.8765 82.2231 48.3665C81.2131 47.8665 80.3531 47.1365 79.6331 46.1665C79.2931 45.7865 78.9931 45.3665 78.7331 44.9065C78.4731 44.4465 78.5031 43.8865 78.8431 43.2165C78.8931 43.0265 79.0031 42.7565 79.1631 42.4265C79.3331 42.0965 79.5131 41.7265 79.7031 41.3465C80.8531 40.3365 82.1031 39.6565 83.4431 39.2965C84.7831 38.9365 86.3031 39.0465 87.9831 39.6165C88.1731 40.0465 88.6831 40.4665 89.4931 40.8765C90.3131 41.2865 91.2231 41.6365 92.2331 41.9165C93.2431 42.1965 94.2531 42.4165 95.2531 42.5665C96.2631 42.7065 97.0531 42.7065 97.6331 42.5665C99.4531 42.1865 100.833 41.3465 101.773 40.0465C102.713 38.7465 103.223 37.2665 103.323 35.5865C103.273 35.2465 103.213 34.8465 103.143 34.3665C103.073 33.8865 102.913 33.5265 102.673 33.2865C101.813 32.4665 100.843 31.6565 99.7931 30.8365C98.7331 30.0165 97.6831 29.2565 96.6231 28.5365C95.5631 27.8165 94.5931 27.1965 93.7031 26.6665C92.8131 26.1365 92.0831 25.7565 91.5031 25.5165C90.6331 25.0365 89.7531 24.6265 88.8431 24.2965C87.9331 23.9665 87.0631 23.5265 86.2531 22.9965C85.2431 22.3265 84.3931 21.5765 83.6931 20.7665C82.9931 19.9465 82.6031 18.9165 82.5031 17.6665C82.4031 17.3265 82.2631 17.0165 82.0731 16.7265C81.8831 16.4365 81.6931 16.1465 81.4931 15.8665C80.3931 14.0465 80.2231 12.2865 80.9931 10.6065C81.7631 8.92651 83.1531 7.26651 85.1731 5.63651C86.2331 4.7765 87.4731 4.08652 88.9131 3.58652C90.3531 3.08652 91.8431 2.7265 93.3731 2.5065C94.9131 2.2865 96.4431 2.18652 97.9831 2.18652C99.5231 2.18652 100.933 2.25652 102.233 2.40652C103.003 2.50652 103.753 2.70651 104.503 3.01651C105.243 3.32651 105.983 3.69651 106.703 4.13651C107.563 4.66651 108.123 5.38651 108.363 6.29651C108.503 6.72651 108.663 7.29651 108.833 7.98651C109.003 8.68651 109.083 9.38651 109.083 10.1065C109.083 10.8265 108.973 11.5065 108.763 12.1565C108.543 12.8065 108.153 13.2765 107.573 13.5565L107.543 13.5765Z" fill="#010000"/>
</svg>
